G75*
%MOIN*%
%OFA0B0*%
%FSLAX25Y25*%
%IPPOS*%
%LPD*%
%AMOC8*
5,1,8,0,0,1.08239X$1,22.5*
%
%ADD10C,0.00000*%
%ADD11OC8,0.05200*%
%ADD12C,0.05200*%
%ADD13C,0.05150*%
%ADD14C,0.11220*%
%ADD15C,0.05200*%
%ADD16C,0.05937*%
%ADD17C,0.07400*%
%ADD18C,0.01600*%
%ADD19C,0.03562*%
D10*
X0008500Y0001800D02*
X0008500Y0198650D01*
X0205350Y0198650D01*
X0205350Y0001800D01*
X0008500Y0001800D01*
D11*
X0040783Y0031209D03*
X0055547Y0031013D03*
X0066886Y0054024D03*
X0066886Y0064024D03*
X0055547Y0071013D03*
X0040783Y0071209D03*
X0104602Y0016170D03*
X0114602Y0016170D03*
X0128461Y0016367D03*
X0168461Y0016367D03*
X0155154Y0084438D03*
X0137122Y0145619D03*
X0137122Y0155619D03*
X0150272Y0153178D03*
X0152476Y0171761D03*
X0142476Y0171761D03*
X0142280Y0185540D03*
X0152280Y0185540D03*
X0168972Y0187036D03*
X0190193Y0188729D03*
X0190193Y0178729D03*
X0190272Y0153178D03*
X0112831Y0181800D03*
X0107831Y0189300D03*
X0102831Y0181800D03*
D12*
X0168972Y0167036D03*
X0135154Y0084438D03*
D13*
X0077949Y0183493D03*
X0070075Y0183493D03*
X0062201Y0183493D03*
X0037555Y0157272D03*
X0034406Y0161997D03*
X0031256Y0157272D03*
X0028106Y0161997D03*
X0024957Y0157272D03*
D14*
X0016886Y0177351D03*
X0045626Y0177351D03*
D15*
X0089719Y0164241D02*
X0094919Y0164241D01*
X0094919Y0154241D02*
X0089719Y0154241D01*
X0089719Y0144241D02*
X0094919Y0144241D01*
X0094919Y0134241D02*
X0089719Y0134241D01*
X0089719Y0124241D02*
X0094919Y0124241D01*
X0094919Y0114241D02*
X0089719Y0114241D01*
X0089719Y0104241D02*
X0094919Y0104241D01*
X0094919Y0094241D02*
X0089719Y0094241D01*
X0089719Y0084241D02*
X0094919Y0084241D01*
X0094919Y0074241D02*
X0089719Y0074241D01*
X0089719Y0064241D02*
X0094919Y0064241D01*
X0094919Y0054241D02*
X0089719Y0054241D01*
X0089719Y0044241D02*
X0094919Y0044241D01*
X0094919Y0034241D02*
X0089719Y0034241D01*
X0119719Y0034241D02*
X0124919Y0034241D01*
X0124919Y0044241D02*
X0119719Y0044241D01*
X0119719Y0054241D02*
X0124919Y0054241D01*
X0124919Y0064241D02*
X0119719Y0064241D01*
X0119719Y0074241D02*
X0124919Y0074241D01*
X0124919Y0084241D02*
X0119719Y0084241D01*
X0119719Y0094241D02*
X0124919Y0094241D01*
X0124919Y0104241D02*
X0119719Y0104241D01*
X0119719Y0114241D02*
X0124919Y0114241D01*
X0124919Y0124241D02*
X0119719Y0124241D01*
X0119719Y0134241D02*
X0124919Y0134241D01*
X0124919Y0144241D02*
X0119719Y0144241D01*
X0119719Y0154241D02*
X0124919Y0154241D01*
X0124919Y0164241D02*
X0119719Y0164241D01*
D16*
X0085823Y0183493D03*
X0054327Y0183493D03*
D17*
X0013500Y0136800D03*
X0013500Y0126800D03*
X0013500Y0116800D03*
X0013500Y0106800D03*
X0013500Y0096800D03*
X0013500Y0086800D03*
X0013500Y0076800D03*
X0013500Y0066800D03*
X0013500Y0056800D03*
X0013500Y0046800D03*
X0013500Y0036800D03*
X0013500Y0026800D03*
X0013500Y0016800D03*
X0040665Y0017627D03*
X0060665Y0017627D03*
X0072437Y0017627D03*
X0092437Y0017627D03*
X0072752Y0094438D03*
X0062752Y0094438D03*
X0052752Y0094438D03*
X0200500Y0096800D03*
X0200500Y0106800D03*
X0200500Y0116800D03*
X0200500Y0126800D03*
X0200500Y0136800D03*
X0200500Y0086800D03*
X0200500Y0076800D03*
X0200500Y0066800D03*
D18*
X0200700Y0066600D02*
X0200700Y0061300D01*
X0200933Y0061300D01*
X0201788Y0061435D01*
X0202611Y0061703D01*
X0203383Y0062096D01*
X0203550Y0062218D01*
X0203550Y0003600D01*
X0010300Y0003600D01*
X0010300Y0012788D01*
X0010611Y0012476D01*
X0012486Y0011700D01*
X0014514Y0011700D01*
X0016389Y0012476D01*
X0017824Y0013911D01*
X0018600Y0015786D01*
X0018600Y0017814D01*
X0017824Y0019689D01*
X0016389Y0021124D01*
X0014756Y0021800D01*
X0016389Y0022476D01*
X0017824Y0023911D01*
X0018600Y0025786D01*
X0018600Y0027814D01*
X0017824Y0029689D01*
X0016389Y0031124D01*
X0014756Y0031800D01*
X0016389Y0032476D01*
X0017824Y0033911D01*
X0018600Y0035786D01*
X0018600Y0037814D01*
X0017824Y0039689D01*
X0016389Y0041124D01*
X0014756Y0041800D01*
X0016389Y0042476D01*
X0017824Y0043911D01*
X0018600Y0045786D01*
X0018600Y0047814D01*
X0018315Y0048503D01*
X0019711Y0049900D01*
X0021000Y0051189D01*
X0021000Y0059600D01*
X0032589Y0059600D01*
X0034213Y0057975D01*
X0035502Y0056687D01*
X0038682Y0056687D01*
X0039178Y0056190D01*
X0040348Y0055706D01*
X0041613Y0055706D01*
X0042782Y0056190D01*
X0043677Y0057085D01*
X0044161Y0058254D01*
X0044161Y0059519D01*
X0043677Y0060689D01*
X0042782Y0061583D01*
X0041613Y0062068D01*
X0040348Y0062068D01*
X0039178Y0061583D01*
X0038682Y0061087D01*
X0037325Y0061087D01*
X0034411Y0064000D01*
X0018246Y0064000D01*
X0018597Y0064689D01*
X0018865Y0065512D01*
X0019000Y0066367D01*
X0019000Y0066600D01*
X0013700Y0066600D01*
X0013700Y0067000D01*
X0019000Y0067000D01*
X0019000Y0067233D01*
X0018865Y0068088D01*
X0018597Y0068911D01*
X0018204Y0069683D01*
X0017695Y0070383D01*
X0017083Y0070995D01*
X0016383Y0071504D01*
X0015611Y0071897D01*
X0015263Y0072010D01*
X0016389Y0072476D01*
X0017824Y0073911D01*
X0018600Y0075786D01*
X0018600Y0077089D01*
X0024182Y0080151D01*
X0027673Y0080151D01*
X0038662Y0074745D01*
X0036783Y0072866D01*
X0036783Y0069553D01*
X0039127Y0067209D01*
X0041672Y0067209D01*
X0042352Y0066529D01*
X0045670Y0066529D01*
X0045670Y0052070D01*
X0052633Y0045107D01*
X0045670Y0038144D01*
X0045670Y0030270D01*
X0043022Y0027622D01*
X0042853Y0027622D01*
X0044783Y0029553D01*
X0044783Y0032866D01*
X0042440Y0035209D01*
X0039127Y0035209D01*
X0036783Y0032866D01*
X0036783Y0029553D01*
X0038714Y0027622D01*
X0030484Y0027622D01*
X0029987Y0028119D01*
X0028818Y0028603D01*
X0027552Y0028603D01*
X0026383Y0028119D01*
X0025488Y0027224D01*
X0025004Y0026055D01*
X0025004Y0024789D01*
X0025488Y0023620D01*
X0026383Y0022725D01*
X0027552Y0022241D01*
X0028818Y0022241D01*
X0029987Y0022725D01*
X0030484Y0023222D01*
X0044844Y0023222D01*
X0046133Y0024511D01*
X0048781Y0027159D01*
X0050070Y0028448D01*
X0050070Y0036322D01*
X0055789Y0042041D01*
X0074009Y0042041D01*
X0074752Y0041932D01*
X0074898Y0042041D01*
X0086301Y0042041D01*
X0086328Y0041975D01*
X0086901Y0041402D01*
X0068612Y0041402D01*
X0067625Y0040414D01*
X0066922Y0040414D01*
X0065753Y0039930D01*
X0064858Y0039035D01*
X0064374Y0037866D01*
X0064374Y0036600D01*
X0064858Y0035431D01*
X0065753Y0034536D01*
X0066922Y0034052D01*
X0068188Y0034052D01*
X0069357Y0034536D01*
X0070252Y0035431D01*
X0070736Y0036600D01*
X0070736Y0037002D01*
X0086823Y0037002D01*
X0086328Y0036507D01*
X0086301Y0036441D01*
X0076149Y0036441D01*
X0076062Y0036477D01*
X0074796Y0036477D01*
X0073627Y0035993D01*
X0072732Y0035098D01*
X0072248Y0033929D01*
X0072248Y0032663D01*
X0072732Y0031494D01*
X0073627Y0030599D01*
X0074796Y0030115D01*
X0076062Y0030115D01*
X0077231Y0030599D01*
X0078126Y0031494D01*
X0078352Y0032041D01*
X0086301Y0032041D01*
X0086328Y0031975D01*
X0087453Y0030850D01*
X0088923Y0030241D01*
X0095715Y0030241D01*
X0097185Y0030850D01*
X0098310Y0031975D01*
X0098919Y0033445D01*
X0098919Y0035037D01*
X0098310Y0036507D01*
X0097815Y0037002D01*
X0100788Y0037002D01*
X0100788Y0018013D01*
X0100602Y0017827D01*
X0100602Y0014513D01*
X0102946Y0012170D01*
X0106259Y0012170D01*
X0108602Y0014513D01*
X0108602Y0017827D01*
X0106259Y0020170D01*
X0105188Y0020170D01*
X0105188Y0053892D01*
X0103928Y0055152D01*
X0102640Y0056441D01*
X0098337Y0056441D01*
X0098310Y0056507D01*
X0097185Y0057632D01*
X0095715Y0058241D01*
X0088923Y0058241D01*
X0087453Y0057632D01*
X0086328Y0056507D01*
X0085719Y0055037D01*
X0085719Y0053445D01*
X0086328Y0051975D01*
X0087453Y0050850D01*
X0088923Y0050241D01*
X0095715Y0050241D01*
X0097185Y0050850D01*
X0098310Y0051975D01*
X0098337Y0052041D01*
X0100788Y0052041D01*
X0100788Y0041402D01*
X0097736Y0041402D01*
X0098310Y0041975D01*
X0098919Y0043445D01*
X0098919Y0045037D01*
X0098310Y0046507D01*
X0097185Y0047632D01*
X0095715Y0048241D01*
X0088923Y0048241D01*
X0087453Y0047632D01*
X0086328Y0046507D01*
X0086301Y0046441D01*
X0075274Y0046441D01*
X0070872Y0052354D01*
X0070886Y0052368D01*
X0070886Y0055681D01*
X0068543Y0058024D01*
X0065229Y0058024D01*
X0062886Y0055681D01*
X0062886Y0052368D01*
X0065229Y0050024D01*
X0067121Y0050024D01*
X0069789Y0046441D01*
X0057522Y0046441D01*
X0050070Y0053892D01*
X0050070Y0066529D01*
X0054175Y0066529D01*
X0054659Y0067013D01*
X0057204Y0067013D01*
X0059547Y0069356D01*
X0059547Y0072669D01*
X0057204Y0075013D01*
X0053890Y0075013D01*
X0051547Y0072669D01*
X0051547Y0070929D01*
X0050070Y0070929D01*
X0050070Y0072154D01*
X0050246Y0072513D01*
X0050070Y0073030D01*
X0050070Y0073577D01*
X0049788Y0073860D01*
X0049659Y0074238D01*
X0049168Y0074479D01*
X0048781Y0074866D01*
X0048382Y0074866D01*
X0029483Y0084164D01*
X0029096Y0084551D01*
X0028697Y0084551D01*
X0028339Y0084727D01*
X0027821Y0084551D01*
X0023932Y0084551D01*
X0023359Y0084718D01*
X0023054Y0084551D01*
X0022707Y0084551D01*
X0022285Y0084129D01*
X0016537Y0080976D01*
X0016389Y0081124D01*
X0014756Y0081800D01*
X0016389Y0082476D01*
X0017824Y0083911D01*
X0018600Y0085786D01*
X0018600Y0087814D01*
X0017824Y0089689D01*
X0016389Y0091124D01*
X0014756Y0091800D01*
X0016389Y0092476D01*
X0016779Y0092866D01*
X0047498Y0078707D01*
X0047864Y0078340D01*
X0048293Y0078340D01*
X0048682Y0078161D01*
X0049169Y0078340D01*
X0070581Y0078340D01*
X0085591Y0063330D01*
X0085891Y0063030D01*
X0086328Y0061975D01*
X0087453Y0060850D01*
X0088923Y0060241D01*
X0095715Y0060241D01*
X0097185Y0060850D01*
X0098310Y0061975D01*
X0098919Y0063445D01*
X0098919Y0065037D01*
X0098310Y0066507D01*
X0097185Y0067632D01*
X0095715Y0068241D01*
X0088923Y0068241D01*
X0087494Y0067649D01*
X0072403Y0082740D01*
X0049258Y0082740D01*
X0018600Y0096872D01*
X0018600Y0097814D01*
X0017824Y0099689D01*
X0016389Y0101124D01*
X0014756Y0101800D01*
X0016389Y0102476D01*
X0017824Y0103911D01*
X0017887Y0104064D01*
X0034058Y0102146D01*
X0034164Y0102041D01*
X0034945Y0102041D01*
X0035721Y0101949D01*
X0035837Y0102041D01*
X0086301Y0102041D01*
X0086328Y0101975D01*
X0087453Y0100850D01*
X0088923Y0100241D01*
X0095715Y0100241D01*
X0097185Y0100850D01*
X0098310Y0101975D01*
X0098919Y0103445D01*
X0098919Y0105037D01*
X0098310Y0106507D01*
X0097185Y0107632D01*
X0095715Y0108241D01*
X0088923Y0108241D01*
X0087453Y0107632D01*
X0086328Y0106507D01*
X0086301Y0106441D01*
X0035205Y0106441D01*
X0018340Y0108441D01*
X0017824Y0109689D01*
X0016389Y0111124D01*
X0014756Y0111800D01*
X0016389Y0112476D01*
X0017824Y0113911D01*
X0017887Y0114064D01*
X0034058Y0112146D01*
X0034164Y0112041D01*
X0034945Y0112041D01*
X0035721Y0111949D01*
X0035837Y0112041D01*
X0086301Y0112041D01*
X0086328Y0111975D01*
X0087453Y0110850D01*
X0088923Y0110241D01*
X0095715Y0110241D01*
X0097185Y0110850D01*
X0098310Y0111975D01*
X0098919Y0113445D01*
X0098919Y0115037D01*
X0098310Y0116507D01*
X0097185Y0117632D01*
X0095715Y0118241D01*
X0088923Y0118241D01*
X0087453Y0117632D01*
X0086328Y0116507D01*
X0086301Y0116441D01*
X0035205Y0116441D01*
X0018340Y0118441D01*
X0017824Y0119689D01*
X0016389Y0121124D01*
X0014756Y0121800D01*
X0016389Y0122476D01*
X0017824Y0123911D01*
X0018600Y0125786D01*
X0018600Y0127814D01*
X0018444Y0128192D01*
X0024482Y0133458D01*
X0080277Y0133458D01*
X0087606Y0140787D01*
X0088923Y0140241D01*
X0095715Y0140241D01*
X0097185Y0140850D01*
X0098310Y0141975D01*
X0098919Y0143445D01*
X0098919Y0145037D01*
X0098310Y0146507D01*
X0097185Y0147632D01*
X0095715Y0148241D01*
X0088923Y0148241D01*
X0087453Y0147632D01*
X0086328Y0146507D01*
X0085780Y0145183D01*
X0085749Y0145152D01*
X0078455Y0137858D01*
X0023733Y0137858D01*
X0022898Y0137915D01*
X0022833Y0137858D01*
X0022746Y0137858D01*
X0022155Y0137267D01*
X0015522Y0131483D01*
X0014756Y0131800D01*
X0016389Y0132476D01*
X0017824Y0133911D01*
X0018600Y0135786D01*
X0018600Y0137814D01*
X0018076Y0139079D01*
X0022919Y0145269D01*
X0080277Y0145269D01*
X0086656Y0151647D01*
X0087453Y0150850D01*
X0088923Y0150241D01*
X0095715Y0150241D01*
X0097185Y0150850D01*
X0098310Y0151975D01*
X0098919Y0153445D01*
X0098919Y0155037D01*
X0098310Y0156507D01*
X0097736Y0157080D01*
X0100689Y0157080D01*
X0101186Y0156584D01*
X0102355Y0156099D01*
X0103621Y0156099D01*
X0104790Y0156584D01*
X0105685Y0157478D01*
X0106169Y0158648D01*
X0106169Y0159913D01*
X0106082Y0160123D01*
X0106292Y0160036D01*
X0107558Y0160036D01*
X0108727Y0160521D01*
X0109224Y0161017D01*
X0117286Y0161017D01*
X0117453Y0160850D01*
X0118923Y0160241D01*
X0125715Y0160241D01*
X0127185Y0160850D01*
X0127352Y0161017D01*
X0132284Y0161017D01*
X0132284Y0158369D01*
X0133250Y0157403D01*
X0133122Y0157276D01*
X0133122Y0153962D01*
X0135465Y0151619D01*
X0138779Y0151619D01*
X0141122Y0153962D01*
X0141122Y0157276D01*
X0138779Y0159619D01*
X0137257Y0159619D01*
X0136684Y0160192D01*
X0136684Y0161017D01*
X0166892Y0161017D01*
X0168910Y0163036D01*
X0169768Y0163036D01*
X0171238Y0163645D01*
X0172363Y0164770D01*
X0172972Y0166241D01*
X0172972Y0167832D01*
X0172363Y0169302D01*
X0171238Y0170427D01*
X0169768Y0171036D01*
X0168177Y0171036D01*
X0166707Y0170427D01*
X0165581Y0169302D01*
X0164972Y0167832D01*
X0164972Y0166241D01*
X0165242Y0165590D01*
X0165069Y0165417D01*
X0128761Y0165417D01*
X0128310Y0166507D01*
X0127185Y0167632D01*
X0125715Y0168241D01*
X0118923Y0168241D01*
X0117453Y0167632D01*
X0116328Y0166507D01*
X0115877Y0165417D01*
X0109224Y0165417D01*
X0108727Y0165914D01*
X0107558Y0166398D01*
X0106292Y0166398D01*
X0105123Y0165914D01*
X0104228Y0165019D01*
X0103744Y0163850D01*
X0103744Y0162585D01*
X0103831Y0162374D01*
X0103621Y0162461D01*
X0102355Y0162461D01*
X0101186Y0161977D01*
X0100689Y0161480D01*
X0097815Y0161480D01*
X0098310Y0161975D01*
X0098919Y0163445D01*
X0098919Y0165037D01*
X0098310Y0166507D01*
X0097185Y0167632D01*
X0095715Y0168241D01*
X0088923Y0168241D01*
X0087453Y0167632D01*
X0086328Y0166507D01*
X0085719Y0165037D01*
X0085719Y0163445D01*
X0086328Y0161975D01*
X0086823Y0161480D01*
X0077111Y0161480D01*
X0070928Y0155298D01*
X0056321Y0155298D01*
X0056681Y0156167D01*
X0056681Y0156870D01*
X0069411Y0169600D01*
X0111201Y0169600D01*
X0111698Y0169103D01*
X0112867Y0168619D01*
X0114133Y0168619D01*
X0115302Y0169103D01*
X0116197Y0169998D01*
X0116681Y0171167D01*
X0116681Y0172433D01*
X0116197Y0173602D01*
X0115302Y0174497D01*
X0114133Y0174981D01*
X0112867Y0174981D01*
X0111698Y0174497D01*
X0111201Y0174000D01*
X0067589Y0174000D01*
X0066300Y0172711D01*
X0053570Y0159981D01*
X0052867Y0159981D01*
X0051698Y0159497D01*
X0050803Y0158602D01*
X0050319Y0157433D01*
X0050319Y0156167D01*
X0050679Y0155298D01*
X0041039Y0155298D01*
X0041530Y0156482D01*
X0041530Y0158063D01*
X0041509Y0158115D01*
X0044411Y0161017D01*
X0052718Y0161017D01*
X0070986Y0179285D01*
X0071469Y0179768D01*
X0072326Y0180123D01*
X0073444Y0181241D01*
X0074012Y0182611D01*
X0074579Y0181241D01*
X0075697Y0180123D01*
X0077158Y0179518D01*
X0078739Y0179518D01*
X0080200Y0180123D01*
X0081318Y0181241D01*
X0081673Y0182097D01*
X0082119Y0181018D01*
X0083348Y0179789D01*
X0084954Y0179124D01*
X0086692Y0179124D01*
X0088297Y0179789D01*
X0089526Y0181018D01*
X0090191Y0182624D01*
X0090191Y0184362D01*
X0089526Y0185967D01*
X0088394Y0187100D01*
X0104374Y0187100D01*
X0106174Y0185300D01*
X0109488Y0185300D01*
X0111831Y0187643D01*
X0111831Y0190957D01*
X0109488Y0193300D01*
X0106174Y0193300D01*
X0104374Y0191500D01*
X0082845Y0191500D01*
X0081556Y0190211D01*
X0078791Y0187446D01*
X0078739Y0187468D01*
X0077158Y0187468D01*
X0075697Y0186863D01*
X0074579Y0185744D01*
X0074012Y0184375D01*
X0073444Y0185744D01*
X0072326Y0186863D01*
X0070865Y0187468D01*
X0069284Y0187468D01*
X0067823Y0186863D01*
X0066705Y0185744D01*
X0066138Y0184375D01*
X0065570Y0185744D01*
X0064452Y0186863D01*
X0062991Y0187468D01*
X0061410Y0187468D01*
X0059949Y0186863D01*
X0058831Y0185744D01*
X0058477Y0184889D01*
X0058030Y0185967D01*
X0056801Y0187196D01*
X0055196Y0187861D01*
X0053458Y0187861D01*
X0051852Y0187196D01*
X0050623Y0185967D01*
X0049958Y0184362D01*
X0049958Y0182933D01*
X0049597Y0183294D01*
X0047020Y0184361D01*
X0044232Y0184361D01*
X0041655Y0183294D01*
X0039683Y0181322D01*
X0038616Y0178746D01*
X0038616Y0175957D01*
X0039683Y0173380D01*
X0041655Y0171408D01*
X0044232Y0170341D01*
X0047020Y0170341D01*
X0049597Y0171408D01*
X0051569Y0173380D01*
X0052636Y0175957D01*
X0052636Y0178746D01*
X0052277Y0179614D01*
X0053458Y0179124D01*
X0055196Y0179124D01*
X0056801Y0179789D01*
X0058030Y0181018D01*
X0058477Y0182097D01*
X0058831Y0181241D01*
X0059949Y0180123D01*
X0061410Y0179518D01*
X0062991Y0179518D01*
X0064452Y0180123D01*
X0065570Y0181241D01*
X0066138Y0182611D01*
X0066705Y0181241D01*
X0066713Y0181234D01*
X0050896Y0165417D01*
X0042589Y0165417D01*
X0041300Y0164129D01*
X0038397Y0161226D01*
X0038380Y0161233D01*
X0038380Y0162787D01*
X0037775Y0164248D01*
X0036657Y0165367D01*
X0035196Y0165972D01*
X0033615Y0165972D01*
X0032154Y0165367D01*
X0031256Y0164468D01*
X0030358Y0165367D01*
X0028897Y0165972D01*
X0027316Y0165972D01*
X0025855Y0165367D01*
X0024737Y0164248D01*
X0024131Y0162787D01*
X0024131Y0161571D01*
X0023932Y0161540D01*
X0023277Y0161327D01*
X0022664Y0161014D01*
X0022107Y0160609D01*
X0021620Y0160122D01*
X0021215Y0159565D01*
X0020902Y0158952D01*
X0020690Y0158297D01*
X0020582Y0157617D01*
X0020582Y0157272D01*
X0020582Y0156928D01*
X0020690Y0156248D01*
X0020902Y0155593D01*
X0021215Y0154980D01*
X0021620Y0154422D01*
X0022107Y0153936D01*
X0022664Y0153531D01*
X0023277Y0153218D01*
X0023932Y0153005D01*
X0024612Y0152898D01*
X0024957Y0152898D01*
X0025301Y0152898D01*
X0025981Y0153005D01*
X0026636Y0153218D01*
X0027250Y0153531D01*
X0027807Y0153936D01*
X0028294Y0154422D01*
X0028374Y0154533D01*
X0029004Y0153903D01*
X0030465Y0153298D01*
X0032047Y0153298D01*
X0032377Y0153435D01*
X0033626Y0152186D01*
X0034915Y0150898D01*
X0072751Y0150898D01*
X0078934Y0157080D01*
X0086901Y0157080D01*
X0086328Y0156507D01*
X0086301Y0156441D01*
X0085227Y0156441D01*
X0083938Y0155152D01*
X0078455Y0149669D01*
X0022605Y0149669D01*
X0022484Y0149764D01*
X0021713Y0149669D01*
X0020935Y0149669D01*
X0020827Y0149561D01*
X0020675Y0149543D01*
X0020196Y0148930D01*
X0019646Y0148381D01*
X0019646Y0148228D01*
X0014652Y0141843D01*
X0014514Y0141900D01*
X0012486Y0141900D01*
X0010611Y0141124D01*
X0010300Y0140812D01*
X0010300Y0174932D01*
X0010943Y0173380D01*
X0012915Y0171408D01*
X0015491Y0170341D01*
X0018280Y0170341D01*
X0020857Y0171408D01*
X0022829Y0173380D01*
X0023896Y0175957D01*
X0023896Y0178746D01*
X0022829Y0181322D01*
X0020857Y0183294D01*
X0018280Y0184361D01*
X0015491Y0184361D01*
X0012915Y0183294D01*
X0010943Y0181322D01*
X0010300Y0179770D01*
X0010300Y0196850D01*
X0203550Y0196850D01*
X0203550Y0140962D01*
X0203389Y0141124D01*
X0201514Y0141900D01*
X0199486Y0141900D01*
X0197611Y0141124D01*
X0196176Y0139689D01*
X0195783Y0138740D01*
X0141486Y0135705D01*
X0135972Y0141219D01*
X0137122Y0141219D01*
X0137122Y0145619D01*
X0137122Y0150019D01*
X0135300Y0150019D01*
X0132722Y0147441D01*
X0132722Y0145619D01*
X0137122Y0145619D01*
X0137122Y0145619D01*
X0137122Y0145619D01*
X0137122Y0150019D01*
X0138945Y0150019D01*
X0141522Y0147441D01*
X0141522Y0145619D01*
X0137122Y0145619D01*
X0137122Y0145619D01*
X0132722Y0145619D01*
X0132722Y0144469D01*
X0131459Y0145732D01*
X0128631Y0145732D01*
X0128310Y0146507D01*
X0127185Y0147632D01*
X0125715Y0148241D01*
X0118923Y0148241D01*
X0117453Y0147632D01*
X0116328Y0146507D01*
X0115719Y0145037D01*
X0115719Y0143445D01*
X0116328Y0141975D01*
X0117453Y0140850D01*
X0118923Y0140241D01*
X0125715Y0140241D01*
X0127185Y0140850D01*
X0127667Y0141332D01*
X0129636Y0141332D01*
X0138476Y0132492D01*
X0138480Y0132421D01*
X0139114Y0131855D01*
X0139715Y0131254D01*
X0139786Y0131254D01*
X0139839Y0131206D01*
X0140687Y0131254D01*
X0141537Y0131254D01*
X0141588Y0131304D01*
X0195997Y0134345D01*
X0196176Y0133911D01*
X0197611Y0132476D01*
X0199244Y0131800D01*
X0197611Y0131124D01*
X0196176Y0129689D01*
X0195779Y0128730D01*
X0143610Y0125707D01*
X0131459Y0137858D01*
X0126638Y0137858D01*
X0125715Y0138241D01*
X0118923Y0138241D01*
X0117453Y0137632D01*
X0116328Y0136507D01*
X0115719Y0135037D01*
X0115719Y0133445D01*
X0116328Y0131975D01*
X0117453Y0130850D01*
X0118923Y0130241D01*
X0125715Y0130241D01*
X0127185Y0130850D01*
X0128310Y0131975D01*
X0128919Y0133445D01*
X0128919Y0133458D01*
X0129636Y0133458D01*
X0140604Y0122490D01*
X0140608Y0122417D01*
X0141241Y0121853D01*
X0141841Y0121254D01*
X0141914Y0121254D01*
X0141969Y0121205D01*
X0142816Y0121254D01*
X0143663Y0121254D01*
X0143715Y0121306D01*
X0196001Y0124336D01*
X0196176Y0123911D01*
X0197611Y0122476D01*
X0199244Y0121800D01*
X0197611Y0121124D01*
X0196176Y0119689D01*
X0195783Y0118738D01*
X0141800Y0115705D01*
X0131459Y0126047D01*
X0128500Y0126047D01*
X0128310Y0126507D01*
X0127185Y0127632D01*
X0125715Y0128241D01*
X0118923Y0128241D01*
X0117453Y0127632D01*
X0116328Y0126507D01*
X0115719Y0125037D01*
X0115719Y0123445D01*
X0116328Y0121975D01*
X0117453Y0120850D01*
X0118923Y0120241D01*
X0125715Y0120241D01*
X0127185Y0120850D01*
X0127982Y0121647D01*
X0129636Y0121647D01*
X0138792Y0112492D01*
X0138796Y0112420D01*
X0139429Y0111854D01*
X0140030Y0111254D01*
X0140101Y0111254D01*
X0140155Y0111206D01*
X0141003Y0111254D01*
X0141852Y0111254D01*
X0141903Y0111304D01*
X0195997Y0114344D01*
X0196176Y0113911D01*
X0197611Y0112476D01*
X0199244Y0111800D01*
X0197611Y0111124D01*
X0196176Y0109689D01*
X0195652Y0108423D01*
X0173012Y0105654D01*
X0172234Y0105654D01*
X0172126Y0105545D01*
X0171974Y0105527D01*
X0171495Y0104914D01*
X0163780Y0097199D01*
X0163780Y0069640D01*
X0161132Y0066992D01*
X0127825Y0066992D01*
X0127185Y0067632D01*
X0125715Y0068241D01*
X0118923Y0068241D01*
X0117453Y0067632D01*
X0116328Y0066507D01*
X0115719Y0065037D01*
X0115719Y0063445D01*
X0116328Y0061975D01*
X0117453Y0060850D01*
X0118923Y0060241D01*
X0125715Y0060241D01*
X0127185Y0060850D01*
X0128310Y0061975D01*
X0128565Y0062592D01*
X0162955Y0062592D01*
X0166892Y0066529D01*
X0168180Y0067818D01*
X0168180Y0095377D01*
X0174165Y0101362D01*
X0196120Y0104048D01*
X0196176Y0103911D01*
X0197611Y0102476D01*
X0199244Y0101800D01*
X0197611Y0101124D01*
X0196176Y0099689D01*
X0195587Y0098265D01*
X0178724Y0095654D01*
X0177982Y0095654D01*
X0177846Y0095518D01*
X0177656Y0095488D01*
X0177218Y0094889D01*
X0171654Y0089325D01*
X0171654Y0069640D01*
X0161132Y0059118D01*
X0124085Y0059118D01*
X0123208Y0058241D01*
X0118923Y0058241D01*
X0117453Y0057632D01*
X0116328Y0056507D01*
X0115719Y0055037D01*
X0115719Y0053445D01*
X0116328Y0051975D01*
X0117453Y0050850D01*
X0118923Y0050241D01*
X0125715Y0050241D01*
X0127185Y0050850D01*
X0128310Y0051975D01*
X0128919Y0053445D01*
X0128919Y0054718D01*
X0162955Y0054718D01*
X0174766Y0066529D01*
X0176054Y0067818D01*
X0176054Y0087503D01*
X0179941Y0091390D01*
X0196182Y0093905D01*
X0197611Y0092476D01*
X0199244Y0091800D01*
X0197611Y0091124D01*
X0196176Y0089689D01*
X0195400Y0087814D01*
X0195400Y0087653D01*
X0188276Y0085654D01*
X0187667Y0085654D01*
X0187430Y0085416D01*
X0187107Y0085325D01*
X0186809Y0084795D01*
X0179528Y0077514D01*
X0179528Y0069640D01*
X0157195Y0047307D01*
X0127510Y0047307D01*
X0127185Y0047632D01*
X0125715Y0048241D01*
X0118923Y0048241D01*
X0117453Y0047632D01*
X0116328Y0046507D01*
X0115719Y0045037D01*
X0115719Y0043445D01*
X0116328Y0041975D01*
X0117453Y0040850D01*
X0118923Y0040241D01*
X0125715Y0040241D01*
X0127185Y0040850D01*
X0128310Y0041975D01*
X0128696Y0042907D01*
X0159018Y0042907D01*
X0182640Y0066529D01*
X0183928Y0067818D01*
X0183928Y0075692D01*
X0189727Y0081491D01*
X0196653Y0083435D01*
X0197611Y0082476D01*
X0199244Y0081800D01*
X0197611Y0081124D01*
X0196176Y0079689D01*
X0195400Y0077814D01*
X0195400Y0075786D01*
X0196176Y0073911D01*
X0197611Y0072476D01*
X0198737Y0072010D01*
X0198389Y0071897D01*
X0197617Y0071504D01*
X0196917Y0070995D01*
X0196305Y0070383D01*
X0195796Y0069683D01*
X0195403Y0068911D01*
X0195135Y0068088D01*
X0195000Y0067233D01*
X0195000Y0067000D01*
X0200300Y0067000D01*
X0200300Y0066600D01*
X0200700Y0066600D01*
X0200300Y0066600D02*
X0200300Y0061300D01*
X0200067Y0061300D01*
X0199212Y0061435D01*
X0198389Y0061703D01*
X0197617Y0062096D01*
X0196917Y0062605D01*
X0196305Y0063217D01*
X0195796Y0063917D01*
X0195403Y0064689D01*
X0195135Y0065512D01*
X0195000Y0066367D01*
X0195000Y0066600D01*
X0200300Y0066600D01*
X0200300Y0065740D02*
X0200700Y0065740D01*
X0200700Y0064142D02*
X0200300Y0064142D01*
X0200300Y0062543D02*
X0200700Y0062543D01*
X0197002Y0062543D02*
X0178654Y0062543D01*
X0177055Y0060945D02*
X0203550Y0060945D01*
X0203550Y0059346D02*
X0175457Y0059346D01*
X0173858Y0057748D02*
X0203550Y0057748D01*
X0203550Y0056149D02*
X0172260Y0056149D01*
X0170661Y0054551D02*
X0203550Y0054551D01*
X0203550Y0052952D02*
X0169063Y0052952D01*
X0167464Y0051354D02*
X0203550Y0051354D01*
X0203550Y0049755D02*
X0165866Y0049755D01*
X0164267Y0048157D02*
X0203550Y0048157D01*
X0203550Y0046558D02*
X0162669Y0046558D01*
X0161070Y0044960D02*
X0203550Y0044960D01*
X0203550Y0043361D02*
X0159472Y0043361D01*
X0158106Y0045107D02*
X0181728Y0068729D01*
X0181728Y0076603D01*
X0188579Y0083454D01*
X0200500Y0086800D01*
X0196763Y0083324D02*
X0196258Y0083324D01*
X0196615Y0080127D02*
X0188364Y0080127D01*
X0186765Y0078529D02*
X0195696Y0078529D01*
X0195400Y0076930D02*
X0185166Y0076930D01*
X0183928Y0075332D02*
X0195588Y0075332D01*
X0196354Y0073733D02*
X0183928Y0073733D01*
X0183928Y0072134D02*
X0198437Y0072134D01*
X0196458Y0070536D02*
X0183928Y0070536D01*
X0183928Y0068937D02*
X0195416Y0068937D01*
X0195017Y0067339D02*
X0183449Y0067339D01*
X0181851Y0065740D02*
X0195099Y0065740D01*
X0195682Y0064142D02*
X0180252Y0064142D01*
X0177227Y0067339D02*
X0175575Y0067339D01*
X0175628Y0065740D02*
X0173977Y0065740D01*
X0174030Y0064142D02*
X0172378Y0064142D01*
X0172431Y0062543D02*
X0170780Y0062543D01*
X0170833Y0060945D02*
X0169181Y0060945D01*
X0169234Y0059346D02*
X0167583Y0059346D01*
X0167636Y0057748D02*
X0165984Y0057748D01*
X0166037Y0056149D02*
X0164386Y0056149D01*
X0164439Y0054551D02*
X0128919Y0054551D01*
X0128715Y0052952D02*
X0162840Y0052952D01*
X0161242Y0051354D02*
X0127689Y0051354D01*
X0125918Y0048157D02*
X0158045Y0048157D01*
X0159643Y0049755D02*
X0105188Y0049755D01*
X0105188Y0048157D02*
X0118720Y0048157D01*
X0116379Y0046558D02*
X0105188Y0046558D01*
X0105188Y0044960D02*
X0115719Y0044960D01*
X0115754Y0043361D02*
X0105188Y0043361D01*
X0105188Y0041763D02*
X0116540Y0041763D01*
X0117453Y0037632D02*
X0116328Y0036507D01*
X0115719Y0035037D01*
X0115719Y0033445D01*
X0116328Y0031975D01*
X0117453Y0030850D01*
X0118923Y0030241D01*
X0125715Y0030241D01*
X0127185Y0030850D01*
X0128310Y0031975D01*
X0128919Y0033445D01*
X0128919Y0035037D01*
X0128310Y0036507D01*
X0127185Y0037632D01*
X0125715Y0038241D01*
X0118923Y0038241D01*
X0117453Y0037632D01*
X0116788Y0036967D02*
X0105188Y0036967D01*
X0105188Y0035369D02*
X0115856Y0035369D01*
X0115719Y0033770D02*
X0105188Y0033770D01*
X0105188Y0032172D02*
X0116246Y0032172D01*
X0118121Y0030573D02*
X0105188Y0030573D01*
X0105188Y0028975D02*
X0203550Y0028975D01*
X0203550Y0030573D02*
X0126517Y0030573D01*
X0128391Y0032172D02*
X0203550Y0032172D01*
X0203550Y0033770D02*
X0128919Y0033770D01*
X0128781Y0035369D02*
X0203550Y0035369D01*
X0203550Y0036967D02*
X0127849Y0036967D01*
X0128098Y0041763D02*
X0203550Y0041763D01*
X0203550Y0040164D02*
X0105188Y0040164D01*
X0105188Y0038566D02*
X0203550Y0038566D01*
X0203550Y0027376D02*
X0105188Y0027376D01*
X0105188Y0025778D02*
X0203550Y0025778D01*
X0203550Y0024179D02*
X0105188Y0024179D01*
X0105188Y0022581D02*
X0203550Y0022581D01*
X0203550Y0020982D02*
X0105188Y0020982D01*
X0107046Y0019384D02*
X0112159Y0019384D01*
X0112946Y0020170D02*
X0110602Y0017827D01*
X0110602Y0014513D01*
X0112946Y0012170D01*
X0116259Y0012170D01*
X0118602Y0014513D01*
X0118602Y0017827D01*
X0116259Y0020170D01*
X0112946Y0020170D01*
X0110602Y0017785D02*
X0108602Y0017785D01*
X0108602Y0016187D02*
X0110602Y0016187D01*
X0110602Y0014588D02*
X0108602Y0014588D01*
X0107079Y0012990D02*
X0112126Y0012990D01*
X0117079Y0012990D02*
X0126181Y0012990D01*
X0126804Y0012367D02*
X0130117Y0012367D01*
X0132461Y0014710D01*
X0132461Y0018024D01*
X0130117Y0020367D01*
X0126804Y0020367D01*
X0124461Y0018024D01*
X0124461Y0014710D01*
X0126804Y0012367D01*
X0124583Y0014588D02*
X0118602Y0014588D01*
X0118602Y0016187D02*
X0124461Y0016187D01*
X0124461Y0017785D02*
X0118602Y0017785D01*
X0117046Y0019384D02*
X0125820Y0019384D01*
X0131101Y0019384D02*
X0165255Y0019384D01*
X0164061Y0018189D02*
X0166638Y0020767D01*
X0168461Y0020767D01*
X0170283Y0020767D01*
X0172861Y0018189D01*
X0172861Y0016367D01*
X0168461Y0016367D01*
X0168461Y0016367D01*
X0172861Y0016367D01*
X0172861Y0014544D01*
X0170283Y0011967D01*
X0168461Y0011967D01*
X0168461Y0016367D01*
X0168461Y0016367D01*
X0168461Y0020767D01*
X0168461Y0016367D01*
X0168461Y0016367D01*
X0168461Y0011967D01*
X0166638Y0011967D01*
X0164061Y0014544D01*
X0164061Y0016367D01*
X0168460Y0016367D01*
X0168460Y0016367D01*
X0164061Y0016367D01*
X0164061Y0018189D01*
X0164061Y0017785D02*
X0132461Y0017785D01*
X0132461Y0016187D02*
X0164061Y0016187D01*
X0164061Y0014588D02*
X0132339Y0014588D01*
X0130740Y0012990D02*
X0165615Y0012990D01*
X0168461Y0012990D02*
X0168461Y0012990D01*
X0168461Y0014588D02*
X0168461Y0014588D01*
X0168461Y0016187D02*
X0168461Y0016187D01*
X0168461Y0017785D02*
X0168461Y0017785D01*
X0168461Y0019384D02*
X0168461Y0019384D01*
X0171666Y0019384D02*
X0203550Y0019384D01*
X0203550Y0017785D02*
X0172861Y0017785D01*
X0172861Y0016187D02*
X0203550Y0016187D01*
X0203550Y0014588D02*
X0172861Y0014588D01*
X0171306Y0012990D02*
X0203550Y0012990D01*
X0203550Y0011391D02*
X0010300Y0011391D01*
X0010300Y0009793D02*
X0203550Y0009793D01*
X0203550Y0008194D02*
X0010300Y0008194D01*
X0010300Y0006596D02*
X0203550Y0006596D01*
X0203550Y0004997D02*
X0010300Y0004997D01*
X0016902Y0012990D02*
X0038534Y0012990D01*
X0037776Y0013303D02*
X0039651Y0012527D01*
X0041680Y0012527D01*
X0043554Y0013303D01*
X0044989Y0014738D01*
X0045765Y0016612D01*
X0045765Y0018641D01*
X0044989Y0020516D01*
X0043554Y0021950D01*
X0041680Y0022727D01*
X0039651Y0022727D01*
X0037776Y0021950D01*
X0036342Y0020516D01*
X0035565Y0018641D01*
X0035565Y0016612D01*
X0036342Y0014738D01*
X0037776Y0013303D01*
X0036492Y0014588D02*
X0018104Y0014588D01*
X0018600Y0016187D02*
X0035742Y0016187D01*
X0035565Y0017785D02*
X0018600Y0017785D01*
X0017950Y0019384D02*
X0035873Y0019384D01*
X0036808Y0020982D02*
X0016530Y0020982D01*
X0016493Y0022581D02*
X0026732Y0022581D01*
X0025257Y0024179D02*
X0017935Y0024179D01*
X0018597Y0025778D02*
X0025004Y0025778D01*
X0025640Y0027376D02*
X0018600Y0027376D01*
X0018119Y0028975D02*
X0037361Y0028975D01*
X0036783Y0030573D02*
X0016939Y0030573D01*
X0015653Y0032172D02*
X0036783Y0032172D01*
X0037687Y0033770D02*
X0017683Y0033770D01*
X0018427Y0035369D02*
X0045670Y0035369D01*
X0045670Y0036967D02*
X0018600Y0036967D01*
X0018289Y0038566D02*
X0034165Y0038566D01*
X0034257Y0038473D02*
X0035426Y0037989D01*
X0036692Y0037989D01*
X0037861Y0038473D01*
X0038756Y0039368D01*
X0039240Y0040537D01*
X0039240Y0041803D01*
X0038756Y0042972D01*
X0038259Y0043469D01*
X0038259Y0044050D01*
X0036970Y0045339D01*
X0027429Y0054880D01*
X0027429Y0055582D01*
X0026945Y0056752D01*
X0026050Y0057646D01*
X0024881Y0058131D01*
X0023615Y0058131D01*
X0022446Y0057646D01*
X0021551Y0056752D01*
X0021067Y0055582D01*
X0021067Y0054317D01*
X0021551Y0053148D01*
X0022446Y0052253D01*
X0023615Y0051769D01*
X0024318Y0051769D01*
X0033290Y0042797D01*
X0032878Y0041803D01*
X0032878Y0040537D01*
X0033362Y0039368D01*
X0034257Y0038473D01*
X0033032Y0040164D02*
X0017348Y0040164D01*
X0014846Y0041763D02*
X0032878Y0041763D01*
X0032725Y0043361D02*
X0017274Y0043361D01*
X0018258Y0044960D02*
X0031127Y0044960D01*
X0029528Y0046558D02*
X0018600Y0046558D01*
X0018458Y0048157D02*
X0027930Y0048157D01*
X0026331Y0049755D02*
X0019567Y0049755D01*
X0021000Y0051354D02*
X0024733Y0051354D01*
X0021747Y0052952D02*
X0021000Y0052952D01*
X0021000Y0054551D02*
X0021067Y0054551D01*
X0021000Y0056149D02*
X0021302Y0056149D01*
X0021000Y0057748D02*
X0022691Y0057748D01*
X0021000Y0059346D02*
X0032842Y0059346D01*
X0034441Y0057748D02*
X0025805Y0057748D01*
X0027194Y0056149D02*
X0039276Y0056149D01*
X0040980Y0058887D02*
X0036413Y0058887D01*
X0033500Y0061800D01*
X0018500Y0061800D01*
X0018500Y0059295D01*
X0018800Y0058995D01*
X0018800Y0052100D01*
X0013500Y0046800D01*
X0013300Y0057000D02*
X0013300Y0061300D01*
X0013300Y0066600D01*
X0013700Y0066600D01*
X0013700Y0057000D01*
X0013300Y0057000D01*
X0013300Y0057748D02*
X0013700Y0057748D01*
X0013700Y0059346D02*
X0013300Y0059346D01*
X0013300Y0060945D02*
X0013700Y0060945D01*
X0013700Y0062543D02*
X0013300Y0062543D01*
X0013300Y0064142D02*
X0013700Y0064142D01*
X0013700Y0065740D02*
X0013300Y0065740D01*
X0018318Y0064142D02*
X0045670Y0064142D01*
X0045670Y0065740D02*
X0018901Y0065740D01*
X0018983Y0067339D02*
X0038997Y0067339D01*
X0037399Y0068937D02*
X0018584Y0068937D01*
X0017542Y0070536D02*
X0036783Y0070536D01*
X0036783Y0072134D02*
X0015563Y0072134D01*
X0017645Y0073733D02*
X0037650Y0073733D01*
X0037469Y0075332D02*
X0018412Y0075332D01*
X0018600Y0076930D02*
X0034220Y0076930D01*
X0030971Y0078529D02*
X0021224Y0078529D01*
X0024138Y0080127D02*
X0027722Y0080127D01*
X0028185Y0082351D02*
X0047870Y0072666D01*
X0047870Y0068729D01*
X0053264Y0068729D01*
X0055547Y0071013D01*
X0058484Y0073733D02*
X0075188Y0073733D01*
X0076787Y0072134D02*
X0059547Y0072134D01*
X0059547Y0070536D02*
X0078385Y0070536D01*
X0079984Y0068937D02*
X0059129Y0068937D01*
X0057530Y0067339D02*
X0063978Y0067339D01*
X0065063Y0068424D02*
X0062486Y0065847D01*
X0062486Y0064024D01*
X0062486Y0062202D01*
X0065063Y0059624D01*
X0066886Y0059624D01*
X0068708Y0059624D01*
X0071286Y0062202D01*
X0071286Y0064024D01*
X0066886Y0064024D01*
X0066886Y0059624D01*
X0066886Y0064024D01*
X0066886Y0064024D01*
X0066886Y0064024D01*
X0062486Y0064024D01*
X0066886Y0064024D01*
X0066886Y0064024D01*
X0071286Y0064024D01*
X0071286Y0065847D01*
X0068708Y0068424D01*
X0066886Y0068424D01*
X0066886Y0064025D01*
X0066886Y0064025D01*
X0066886Y0068424D01*
X0065063Y0068424D01*
X0066886Y0067339D02*
X0066886Y0067339D01*
X0066886Y0065740D02*
X0066886Y0065740D01*
X0066886Y0064142D02*
X0066886Y0064142D01*
X0066886Y0062543D02*
X0066886Y0062543D01*
X0066886Y0060945D02*
X0066886Y0060945D01*
X0063743Y0060945D02*
X0050070Y0060945D01*
X0050070Y0062543D02*
X0062486Y0062543D01*
X0062486Y0064142D02*
X0050070Y0064142D01*
X0050070Y0065740D02*
X0062486Y0065740D01*
X0069794Y0067339D02*
X0073477Y0067339D01*
X0073627Y0067489D02*
X0072732Y0066594D01*
X0072248Y0065425D01*
X0072248Y0064159D01*
X0072732Y0062990D01*
X0073229Y0062493D01*
X0073229Y0055280D01*
X0072732Y0054783D01*
X0072248Y0053614D01*
X0072248Y0052348D01*
X0072732Y0051179D01*
X0073627Y0050284D01*
X0074796Y0049800D01*
X0076062Y0049800D01*
X0077231Y0050284D01*
X0078126Y0051179D01*
X0078610Y0052348D01*
X0078610Y0053614D01*
X0078126Y0054783D01*
X0077629Y0055280D01*
X0077629Y0062493D01*
X0078126Y0062990D01*
X0078610Y0064159D01*
X0078610Y0065425D01*
X0078126Y0066594D01*
X0077231Y0067489D01*
X0076062Y0067973D01*
X0074796Y0067973D01*
X0073627Y0067489D01*
X0072379Y0065740D02*
X0071286Y0065740D01*
X0071286Y0064142D02*
X0072255Y0064142D01*
X0073179Y0062543D02*
X0071286Y0062543D01*
X0070029Y0060945D02*
X0073229Y0060945D01*
X0073229Y0059346D02*
X0050070Y0059346D01*
X0050070Y0057748D02*
X0064952Y0057748D01*
X0063354Y0056149D02*
X0050070Y0056149D01*
X0050070Y0054551D02*
X0062886Y0054551D01*
X0062886Y0052952D02*
X0051010Y0052952D01*
X0052609Y0051354D02*
X0063900Y0051354D01*
X0067321Y0049755D02*
X0054207Y0049755D01*
X0055806Y0048157D02*
X0068511Y0048157D01*
X0069701Y0046558D02*
X0057404Y0046558D01*
X0056610Y0044241D02*
X0054878Y0044241D01*
X0047870Y0037233D01*
X0047870Y0029359D01*
X0043933Y0025422D01*
X0028185Y0025422D01*
X0029638Y0022581D02*
X0039298Y0022581D01*
X0042033Y0022581D02*
X0058273Y0022581D01*
X0058554Y0022724D02*
X0057783Y0022331D01*
X0057082Y0021822D01*
X0056470Y0021210D01*
X0055961Y0020509D01*
X0055568Y0019738D01*
X0055301Y0018915D01*
X0055165Y0018060D01*
X0055165Y0017827D01*
X0060465Y0017827D01*
X0060465Y0017427D01*
X0055165Y0017427D01*
X0055165Y0017194D01*
X0055301Y0016339D01*
X0055568Y0015516D01*
X0055961Y0014744D01*
X0056470Y0014044D01*
X0057082Y0013432D01*
X0057783Y0012923D01*
X0058554Y0012530D01*
X0059377Y0012262D01*
X0060232Y0012127D01*
X0060465Y0012127D01*
X0060465Y0017427D01*
X0060865Y0017427D01*
X0060865Y0012127D01*
X0061098Y0012127D01*
X0061953Y0012262D01*
X0062777Y0012530D01*
X0063548Y0012923D01*
X0064248Y0013432D01*
X0064861Y0014044D01*
X0065369Y0014744D01*
X0065762Y0015516D01*
X0066030Y0016339D01*
X0066165Y0017194D01*
X0066165Y0017427D01*
X0060865Y0017427D01*
X0060865Y0017827D01*
X0060465Y0017827D01*
X0060465Y0023127D01*
X0060232Y0023127D01*
X0059377Y0022991D01*
X0058554Y0022724D01*
X0060465Y0022581D02*
X0060865Y0022581D01*
X0060865Y0023127D02*
X0060865Y0017827D01*
X0066165Y0017827D01*
X0066165Y0018060D01*
X0066030Y0018915D01*
X0065762Y0019738D01*
X0065369Y0020509D01*
X0064861Y0021210D01*
X0064248Y0021822D01*
X0063548Y0022331D01*
X0062777Y0022724D01*
X0061953Y0022991D01*
X0061098Y0023127D01*
X0060865Y0023127D01*
X0060865Y0020982D02*
X0060465Y0020982D01*
X0060465Y0019384D02*
X0060865Y0019384D01*
X0060865Y0017785D02*
X0067337Y0017785D01*
X0067337Y0018641D02*
X0067337Y0016612D01*
X0068113Y0014738D01*
X0069548Y0013303D01*
X0071423Y0012527D01*
X0073451Y0012527D01*
X0075326Y0013303D01*
X0076761Y0014738D01*
X0077537Y0016612D01*
X0077537Y0018641D01*
X0076761Y0020516D01*
X0075326Y0021950D01*
X0073451Y0022727D01*
X0071423Y0022727D01*
X0069548Y0021950D01*
X0068113Y0020516D01*
X0067337Y0018641D01*
X0067645Y0019384D02*
X0065878Y0019384D01*
X0065026Y0020982D02*
X0068580Y0020982D01*
X0071070Y0022581D02*
X0063058Y0022581D01*
X0060465Y0017785D02*
X0045765Y0017785D01*
X0045589Y0016187D02*
X0055350Y0016187D01*
X0056075Y0014588D02*
X0044839Y0014588D01*
X0042797Y0012990D02*
X0057691Y0012990D01*
X0060465Y0012990D02*
X0060865Y0012990D01*
X0060865Y0014588D02*
X0060465Y0014588D01*
X0060465Y0016187D02*
X0060865Y0016187D01*
X0063640Y0012990D02*
X0070305Y0012990D01*
X0068263Y0014588D02*
X0065256Y0014588D01*
X0065980Y0016187D02*
X0067513Y0016187D01*
X0073804Y0022581D02*
X0090045Y0022581D01*
X0090326Y0022724D02*
X0089554Y0022331D01*
X0088854Y0021822D01*
X0088242Y0021210D01*
X0087733Y0020509D01*
X0087340Y0019738D01*
X0087072Y0018915D01*
X0086937Y0018060D01*
X0086937Y0017827D01*
X0092237Y0017827D01*
X0092237Y0023127D01*
X0092004Y0023127D01*
X0091149Y0022991D01*
X0090326Y0022724D01*
X0092237Y0022581D02*
X0092637Y0022581D01*
X0092637Y0023127D02*
X0092637Y0017827D01*
X0092237Y0017827D01*
X0092237Y0017427D01*
X0086937Y0017427D01*
X0086937Y0017194D01*
X0087072Y0016339D01*
X0087340Y0015516D01*
X0087733Y0014744D01*
X0088242Y0014044D01*
X0088854Y0013432D01*
X0089554Y0012923D01*
X0090326Y0012530D01*
X0091149Y0012262D01*
X0092004Y0012127D01*
X0092237Y0012127D01*
X0092237Y0017427D01*
X0092637Y0017427D01*
X0092637Y0017827D01*
X0097937Y0017827D01*
X0097937Y0018060D01*
X0097802Y0018915D01*
X0097534Y0019738D01*
X0097141Y0020509D01*
X0096632Y0021210D01*
X0096020Y0021822D01*
X0095320Y0022331D01*
X0094548Y0022724D01*
X0093725Y0022991D01*
X0092870Y0023127D01*
X0092637Y0023127D01*
X0092637Y0020982D02*
X0092237Y0020982D01*
X0092237Y0019384D02*
X0092637Y0019384D01*
X0092637Y0017785D02*
X0100602Y0017785D01*
X0100602Y0016187D02*
X0097752Y0016187D01*
X0097802Y0016339D02*
X0097937Y0017194D01*
X0097937Y0017427D01*
X0092637Y0017427D01*
X0092637Y0012127D01*
X0092870Y0012127D01*
X0093725Y0012262D01*
X0094548Y0012530D01*
X0095320Y0012923D01*
X0096020Y0013432D01*
X0096632Y0014044D01*
X0097141Y0014744D01*
X0097534Y0015516D01*
X0097802Y0016339D01*
X0097028Y0014588D02*
X0100602Y0014588D01*
X0102126Y0012990D02*
X0095412Y0012990D01*
X0092637Y0012990D02*
X0092237Y0012990D01*
X0092237Y0014588D02*
X0092637Y0014588D01*
X0092637Y0016187D02*
X0092237Y0016187D01*
X0092237Y0017785D02*
X0077537Y0017785D01*
X0077361Y0016187D02*
X0087122Y0016187D01*
X0087846Y0014588D02*
X0076611Y0014588D01*
X0074569Y0012990D02*
X0089462Y0012990D01*
X0087225Y0019384D02*
X0077229Y0019384D01*
X0076294Y0020982D02*
X0088076Y0020982D01*
X0094829Y0022581D02*
X0100788Y0022581D01*
X0100788Y0024179D02*
X0045801Y0024179D01*
X0046133Y0024511D02*
X0046133Y0024511D01*
X0047400Y0025778D02*
X0100788Y0025778D01*
X0100788Y0027376D02*
X0057568Y0027376D01*
X0057204Y0027013D02*
X0059547Y0029356D01*
X0059547Y0032669D01*
X0057204Y0035013D01*
X0053890Y0035013D01*
X0051547Y0032669D01*
X0051547Y0029356D01*
X0053890Y0027013D01*
X0057204Y0027013D01*
X0059166Y0028975D02*
X0100788Y0028975D01*
X0100788Y0030573D02*
X0096517Y0030573D01*
X0098391Y0032172D02*
X0100788Y0032172D01*
X0100788Y0033770D02*
X0098919Y0033770D01*
X0098781Y0035369D02*
X0100788Y0035369D01*
X0100788Y0036967D02*
X0097849Y0036967D01*
X0098098Y0041763D02*
X0100788Y0041763D01*
X0100788Y0043361D02*
X0098884Y0043361D01*
X0098919Y0044960D02*
X0100788Y0044960D01*
X0100788Y0046558D02*
X0098258Y0046558D01*
X0095918Y0048157D02*
X0100788Y0048157D01*
X0100788Y0049755D02*
X0072807Y0049755D01*
X0072660Y0051354D02*
X0071617Y0051354D01*
X0072248Y0052952D02*
X0070886Y0052952D01*
X0070886Y0054551D02*
X0072636Y0054551D01*
X0073229Y0056149D02*
X0070418Y0056149D01*
X0068819Y0057748D02*
X0073229Y0057748D01*
X0077629Y0057748D02*
X0087733Y0057748D01*
X0086180Y0056149D02*
X0077629Y0056149D01*
X0078222Y0054551D02*
X0085719Y0054551D01*
X0085923Y0052952D02*
X0078610Y0052952D01*
X0078198Y0051354D02*
X0086949Y0051354D01*
X0088720Y0048157D02*
X0073997Y0048157D01*
X0075187Y0046558D02*
X0086379Y0046558D01*
X0086540Y0041763D02*
X0055511Y0041763D01*
X0053913Y0040164D02*
X0066319Y0040164D01*
X0064664Y0038566D02*
X0052314Y0038566D01*
X0050716Y0036967D02*
X0064374Y0036967D01*
X0064921Y0035369D02*
X0050070Y0035369D01*
X0050070Y0033770D02*
X0052648Y0033770D01*
X0051547Y0032172D02*
X0050070Y0032172D01*
X0050070Y0030573D02*
X0051547Y0030573D01*
X0051928Y0028975D02*
X0050070Y0028975D01*
X0048998Y0027376D02*
X0053527Y0027376D01*
X0059547Y0030573D02*
X0073690Y0030573D01*
X0072452Y0032172D02*
X0059547Y0032172D01*
X0058446Y0033770D02*
X0072248Y0033770D01*
X0073003Y0035369D02*
X0070190Y0035369D01*
X0070736Y0036967D02*
X0086788Y0036967D01*
X0092319Y0034241D02*
X0076374Y0034241D01*
X0075429Y0033296D01*
X0077168Y0030573D02*
X0088121Y0030573D01*
X0096798Y0020982D02*
X0100788Y0020982D01*
X0100788Y0019384D02*
X0097649Y0019384D01*
X0102988Y0017784D02*
X0102988Y0039202D01*
X0069524Y0039202D01*
X0067555Y0037233D01*
X0074169Y0044241D02*
X0066886Y0054024D01*
X0075429Y0052981D02*
X0075429Y0064792D01*
X0077679Y0062543D02*
X0086092Y0062543D01*
X0087358Y0060945D02*
X0077629Y0060945D01*
X0077629Y0059346D02*
X0161360Y0059346D01*
X0162959Y0060945D02*
X0127280Y0060945D01*
X0128545Y0062543D02*
X0164557Y0062543D01*
X0164504Y0064142D02*
X0166156Y0064142D01*
X0166103Y0065740D02*
X0167754Y0065740D01*
X0167701Y0067339D02*
X0169353Y0067339D01*
X0168180Y0068937D02*
X0170951Y0068937D01*
X0171654Y0070536D02*
X0168180Y0070536D01*
X0168180Y0072134D02*
X0171654Y0072134D01*
X0171654Y0073733D02*
X0168180Y0073733D01*
X0168180Y0075332D02*
X0171654Y0075332D01*
X0171654Y0076930D02*
X0168180Y0076930D01*
X0168180Y0078529D02*
X0171654Y0078529D01*
X0171654Y0080127D02*
X0168180Y0080127D01*
X0168180Y0081726D02*
X0171654Y0081726D01*
X0171654Y0083324D02*
X0168180Y0083324D01*
X0168180Y0084923D02*
X0171654Y0084923D01*
X0171654Y0086521D02*
X0168180Y0086521D01*
X0168180Y0088120D02*
X0171654Y0088120D01*
X0172047Y0089718D02*
X0168180Y0089718D01*
X0168180Y0091317D02*
X0173646Y0091317D01*
X0175244Y0092915D02*
X0168180Y0092915D01*
X0168180Y0094514D02*
X0176843Y0094514D01*
X0178894Y0093454D02*
X0200500Y0096800D01*
X0197172Y0092915D02*
X0189791Y0092915D01*
X0192006Y0097711D02*
X0170514Y0097711D01*
X0172113Y0099309D02*
X0196019Y0099309D01*
X0197395Y0100908D02*
X0173711Y0100908D01*
X0173146Y0103454D02*
X0200500Y0106800D01*
X0196986Y0110499D02*
X0126337Y0110499D01*
X0125715Y0110241D02*
X0127185Y0110850D01*
X0128310Y0111975D01*
X0128919Y0113445D01*
X0128919Y0115037D01*
X0128310Y0116507D01*
X0127185Y0117632D01*
X0125715Y0118241D01*
X0118923Y0118241D01*
X0117453Y0117632D01*
X0116328Y0116507D01*
X0116301Y0116441D01*
X0108988Y0116441D01*
X0108727Y0116702D01*
X0107558Y0117186D01*
X0106292Y0117186D01*
X0105123Y0116702D01*
X0104228Y0115807D01*
X0103744Y0114637D01*
X0103744Y0113372D01*
X0104228Y0112203D01*
X0105123Y0111308D01*
X0106292Y0110824D01*
X0107558Y0110824D01*
X0108727Y0111308D01*
X0109460Y0112041D01*
X0116301Y0112041D01*
X0116328Y0111975D01*
X0117453Y0110850D01*
X0118923Y0110241D01*
X0125715Y0110241D01*
X0125715Y0108241D02*
X0127185Y0107632D01*
X0128310Y0106507D01*
X0128919Y0105037D01*
X0128919Y0103445D01*
X0128310Y0101975D01*
X0127185Y0100850D01*
X0125715Y0100241D01*
X0118923Y0100241D01*
X0117453Y0100850D01*
X0116328Y0101975D01*
X0115719Y0103445D01*
X0115719Y0105037D01*
X0116328Y0106507D01*
X0117453Y0107632D01*
X0118923Y0108241D01*
X0125715Y0108241D01*
X0127515Y0107302D02*
X0186484Y0107302D01*
X0183519Y0102506D02*
X0197581Y0102506D01*
X0195850Y0108900D02*
X0018150Y0108900D01*
X0017014Y0110499D02*
X0088301Y0110499D01*
X0087123Y0107302D02*
X0027947Y0107302D01*
X0031022Y0102506D02*
X0016419Y0102506D01*
X0016605Y0100908D02*
X0087395Y0100908D01*
X0088030Y0098319D02*
X0087413Y0098004D01*
X0086852Y0097597D01*
X0086363Y0097107D01*
X0085956Y0096547D01*
X0085641Y0095930D01*
X0085427Y0095271D01*
X0085319Y0094587D01*
X0085319Y0094241D01*
X0092319Y0094241D01*
X0099319Y0094241D01*
X0099319Y0094587D01*
X0099211Y0095271D01*
X0098997Y0095930D01*
X0098682Y0096547D01*
X0098275Y0097107D01*
X0097785Y0097597D01*
X0097225Y0098004D01*
X0096608Y0098319D01*
X0095949Y0098533D01*
X0095265Y0098641D01*
X0092319Y0098641D01*
X0092319Y0094241D01*
X0092319Y0094241D01*
X0092319Y0094241D01*
X0099319Y0094241D01*
X0099319Y0093895D01*
X0099211Y0093211D01*
X0098997Y0092552D01*
X0098682Y0091935D01*
X0098275Y0091375D01*
X0097785Y0090885D01*
X0097225Y0090478D01*
X0096608Y0090163D01*
X0095949Y0089949D01*
X0095265Y0089841D01*
X0092319Y0089841D01*
X0092319Y0094241D01*
X0092319Y0094241D01*
X0092319Y0098641D01*
X0089373Y0098641D01*
X0088689Y0098533D01*
X0088030Y0098319D01*
X0087009Y0097711D02*
X0076692Y0097711D01*
X0077076Y0097327D02*
X0075641Y0098761D01*
X0073766Y0099538D01*
X0071738Y0099538D01*
X0069863Y0098761D01*
X0068428Y0097327D01*
X0067962Y0096201D01*
X0067849Y0096549D01*
X0067456Y0097320D01*
X0066947Y0098021D01*
X0066335Y0098633D01*
X0065635Y0099142D01*
X0064863Y0099535D01*
X0064040Y0099802D01*
X0063185Y0099938D01*
X0062952Y0099938D01*
X0062952Y0094638D01*
X0062552Y0094638D01*
X0062552Y0099938D01*
X0062319Y0099938D01*
X0061464Y0099802D01*
X0060641Y0099535D01*
X0059869Y0099142D01*
X0059169Y0098633D01*
X0058557Y0098021D01*
X0058048Y0097320D01*
X0057655Y0096549D01*
X0057542Y0096201D01*
X0057076Y0097327D01*
X0055641Y0098761D01*
X0053766Y0099538D01*
X0051737Y0099538D01*
X0049863Y0098761D01*
X0048428Y0097327D01*
X0047652Y0095452D01*
X0047652Y0093423D01*
X0048428Y0091549D01*
X0049863Y0090114D01*
X0050591Y0089813D01*
X0050591Y0087503D01*
X0053544Y0084550D01*
X0054833Y0083261D01*
X0073534Y0083261D01*
X0083465Y0073330D01*
X0084754Y0072041D01*
X0086301Y0072041D01*
X0086328Y0071975D01*
X0087453Y0070850D01*
X0088923Y0070241D01*
X0095715Y0070241D01*
X0097185Y0070850D01*
X0098310Y0071975D01*
X0098919Y0073445D01*
X0098919Y0075037D01*
X0098310Y0076507D01*
X0097185Y0077632D01*
X0095715Y0078241D01*
X0088923Y0078241D01*
X0087453Y0077632D01*
X0086419Y0076598D01*
X0075356Y0087661D01*
X0056655Y0087661D01*
X0054991Y0089325D01*
X0054991Y0089845D01*
X0055641Y0090114D01*
X0057076Y0091549D01*
X0057542Y0092675D01*
X0057655Y0092327D01*
X0058048Y0091555D01*
X0058557Y0090855D01*
X0059169Y0090243D01*
X0059869Y0089734D01*
X0060641Y0089341D01*
X0061464Y0089073D01*
X0062319Y0088938D01*
X0062552Y0088938D01*
X0062552Y0094238D01*
X0062952Y0094238D01*
X0062952Y0088938D01*
X0063185Y0088938D01*
X0064040Y0089073D01*
X0064863Y0089341D01*
X0065635Y0089734D01*
X0066335Y0090243D01*
X0066947Y0090855D01*
X0067456Y0091555D01*
X0067849Y0092327D01*
X0067962Y0092675D01*
X0068428Y0091549D01*
X0069863Y0090114D01*
X0071738Y0089338D01*
X0073766Y0089338D01*
X0074455Y0089623D01*
X0080749Y0083330D01*
X0082038Y0082041D01*
X0086301Y0082041D01*
X0086328Y0081975D01*
X0087453Y0080850D01*
X0088923Y0080241D01*
X0095715Y0080241D01*
X0097185Y0080850D01*
X0098310Y0081975D01*
X0098919Y0083445D01*
X0098919Y0085037D01*
X0098310Y0086507D01*
X0097185Y0087632D01*
X0095715Y0088241D01*
X0088923Y0088241D01*
X0087453Y0087632D01*
X0086328Y0086507D01*
X0086301Y0086441D01*
X0083860Y0086441D01*
X0077567Y0092734D01*
X0077852Y0093423D01*
X0077852Y0095452D01*
X0077076Y0097327D01*
X0077579Y0096112D02*
X0085734Y0096112D01*
X0085319Y0094514D02*
X0077852Y0094514D01*
X0077641Y0092915D02*
X0085523Y0092915D01*
X0085427Y0093211D02*
X0085641Y0092552D01*
X0085956Y0091935D01*
X0086363Y0091375D01*
X0086852Y0090885D01*
X0087413Y0090478D01*
X0088030Y0090163D01*
X0088689Y0089949D01*
X0089373Y0089841D01*
X0092319Y0089841D01*
X0092319Y0094241D01*
X0092319Y0094241D01*
X0085319Y0094241D01*
X0085319Y0093895D01*
X0085427Y0093211D01*
X0086421Y0091317D02*
X0078984Y0091317D01*
X0080583Y0089718D02*
X0163780Y0089718D01*
X0163780Y0088120D02*
X0157694Y0088120D01*
X0156976Y0088838D02*
X0155154Y0088838D01*
X0155154Y0084438D01*
X0159554Y0084438D01*
X0159554Y0086260D01*
X0156976Y0088838D01*
X0155153Y0088838D02*
X0153331Y0088838D01*
X0150754Y0086260D01*
X0150754Y0084438D01*
X0155153Y0084438D01*
X0155153Y0084438D01*
X0155153Y0088838D01*
X0155153Y0088120D02*
X0155154Y0088120D01*
X0155153Y0086521D02*
X0155154Y0086521D01*
X0155153Y0084923D02*
X0155154Y0084923D01*
X0155154Y0084438D02*
X0155153Y0084438D01*
X0150754Y0084438D01*
X0150754Y0082615D01*
X0153331Y0080038D01*
X0155153Y0080038D01*
X0155153Y0084438D01*
X0155154Y0084438D01*
X0155154Y0084438D01*
X0159554Y0084438D01*
X0159554Y0082615D01*
X0156976Y0080038D01*
X0155154Y0080038D01*
X0155154Y0084438D01*
X0155153Y0083324D02*
X0155154Y0083324D01*
X0155153Y0081726D02*
X0155154Y0081726D01*
X0155153Y0080127D02*
X0155154Y0080127D01*
X0157065Y0080127D02*
X0163780Y0080127D01*
X0163780Y0078529D02*
X0125962Y0078529D01*
X0125949Y0078533D02*
X0125265Y0078641D01*
X0122319Y0078641D01*
X0122319Y0074241D01*
X0129319Y0074241D01*
X0129319Y0074587D01*
X0129211Y0075271D01*
X0128997Y0075930D01*
X0128682Y0076547D01*
X0128275Y0077107D01*
X0127785Y0077597D01*
X0127225Y0078004D01*
X0126608Y0078319D01*
X0125949Y0078533D01*
X0125715Y0080241D02*
X0127185Y0080850D01*
X0128310Y0081975D01*
X0128919Y0083445D01*
X0128919Y0085037D01*
X0128310Y0086507D01*
X0127185Y0087632D01*
X0125715Y0088241D01*
X0118923Y0088241D01*
X0117453Y0087632D01*
X0116328Y0086507D01*
X0115719Y0085037D01*
X0115719Y0083445D01*
X0116328Y0081975D01*
X0117453Y0080850D01*
X0118923Y0080241D01*
X0125715Y0080241D01*
X0128060Y0081726D02*
X0132209Y0081726D01*
X0131763Y0082172D02*
X0132888Y0081047D01*
X0134358Y0080438D01*
X0135949Y0080438D01*
X0137419Y0081047D01*
X0138545Y0082172D01*
X0139154Y0083642D01*
X0139154Y0085233D01*
X0138545Y0086704D01*
X0137419Y0087829D01*
X0135949Y0088438D01*
X0134358Y0088438D01*
X0132888Y0087829D01*
X0131763Y0086704D01*
X0131154Y0085233D01*
X0131154Y0083642D01*
X0131763Y0082172D01*
X0131285Y0083324D02*
X0128869Y0083324D01*
X0128919Y0084923D02*
X0131154Y0084923D01*
X0131687Y0086521D02*
X0128296Y0086521D01*
X0126007Y0088120D02*
X0133590Y0088120D01*
X0136717Y0088120D02*
X0152613Y0088120D01*
X0151014Y0086521D02*
X0138620Y0086521D01*
X0139154Y0084923D02*
X0150754Y0084923D01*
X0150754Y0083324D02*
X0139022Y0083324D01*
X0138098Y0081726D02*
X0151643Y0081726D01*
X0153242Y0080127D02*
X0082891Y0080127D01*
X0084489Y0078529D02*
X0118676Y0078529D01*
X0118689Y0078533D02*
X0118030Y0078319D01*
X0117413Y0078004D01*
X0116852Y0077597D01*
X0116363Y0077107D01*
X0115956Y0076547D01*
X0115641Y0075930D01*
X0115427Y0075271D01*
X0115319Y0074587D01*
X0115319Y0074241D01*
X0122319Y0074241D01*
X0122319Y0074241D01*
X0122319Y0074241D01*
X0129319Y0074241D01*
X0129319Y0073895D01*
X0129211Y0073211D01*
X0128997Y0072552D01*
X0128682Y0071935D01*
X0128275Y0071375D01*
X0127785Y0070885D01*
X0127225Y0070478D01*
X0126608Y0070163D01*
X0125949Y0069949D01*
X0125265Y0069841D01*
X0122319Y0069841D01*
X0122319Y0074241D01*
X0122319Y0074241D01*
X0122319Y0078641D01*
X0119373Y0078641D01*
X0118689Y0078533D01*
X0122319Y0078529D02*
X0122319Y0078529D01*
X0122319Y0076930D02*
X0122319Y0076930D01*
X0122319Y0075332D02*
X0122319Y0075332D01*
X0122319Y0074241D02*
X0122319Y0074241D01*
X0122319Y0069841D01*
X0119373Y0069841D01*
X0118689Y0069949D01*
X0118030Y0070163D01*
X0117413Y0070478D01*
X0116852Y0070885D01*
X0116363Y0071375D01*
X0115956Y0071935D01*
X0115641Y0072552D01*
X0115427Y0073211D01*
X0115319Y0073895D01*
X0115319Y0074241D01*
X0122319Y0074241D01*
X0122319Y0073733D02*
X0122319Y0073733D01*
X0122319Y0072134D02*
X0122319Y0072134D01*
X0122319Y0070536D02*
X0122319Y0070536D01*
X0117333Y0070536D02*
X0096427Y0070536D01*
X0098376Y0072134D02*
X0115854Y0072134D01*
X0115344Y0073733D02*
X0098919Y0073733D01*
X0098797Y0075332D02*
X0115447Y0075332D01*
X0116234Y0076930D02*
X0097887Y0076930D01*
X0098060Y0081726D02*
X0116577Y0081726D01*
X0115769Y0083324D02*
X0098869Y0083324D01*
X0098919Y0084923D02*
X0115719Y0084923D01*
X0116342Y0086521D02*
X0098296Y0086521D01*
X0096007Y0088120D02*
X0118630Y0088120D01*
X0118923Y0090241D02*
X0117453Y0090850D01*
X0116328Y0091975D01*
X0116301Y0092041D01*
X0104124Y0092041D01*
X0103058Y0093107D01*
X0102355Y0093107D01*
X0101186Y0093591D01*
X0100291Y0094486D01*
X0099807Y0095655D01*
X0099807Y0096921D01*
X0100291Y0098090D01*
X0101186Y0098985D01*
X0102355Y0099469D01*
X0103621Y0099469D01*
X0104790Y0098985D01*
X0105685Y0098090D01*
X0106169Y0096921D01*
X0106169Y0096441D01*
X0116301Y0096441D01*
X0116328Y0096507D01*
X0117453Y0097632D01*
X0118923Y0098241D01*
X0125715Y0098241D01*
X0127185Y0097632D01*
X0128310Y0096507D01*
X0128919Y0095037D01*
X0128919Y0093445D01*
X0128310Y0091975D01*
X0127185Y0090850D01*
X0125715Y0090241D01*
X0118923Y0090241D01*
X0116986Y0091317D02*
X0098217Y0091317D01*
X0099115Y0092915D02*
X0103250Y0092915D01*
X0105035Y0094241D02*
X0102988Y0096288D01*
X0105035Y0094241D02*
X0122319Y0094241D01*
X0117643Y0097711D02*
X0105842Y0097711D01*
X0104007Y0099309D02*
X0165890Y0099309D01*
X0164292Y0097711D02*
X0126995Y0097711D01*
X0128473Y0096112D02*
X0163780Y0096112D01*
X0163780Y0094514D02*
X0128919Y0094514D01*
X0128699Y0092915D02*
X0163780Y0092915D01*
X0163780Y0091317D02*
X0127651Y0091317D01*
X0127243Y0100908D02*
X0167489Y0100908D01*
X0169087Y0102506D02*
X0128530Y0102506D01*
X0128919Y0104105D02*
X0170686Y0104105D01*
X0173146Y0103454D02*
X0165980Y0096288D01*
X0165980Y0068729D01*
X0162043Y0064792D01*
X0122870Y0064792D01*
X0122319Y0064241D01*
X0117358Y0060945D02*
X0097280Y0060945D01*
X0098545Y0062543D02*
X0116092Y0062543D01*
X0115719Y0064142D02*
X0098919Y0064142D01*
X0098627Y0065740D02*
X0116010Y0065740D01*
X0117160Y0067339D02*
X0097478Y0067339D01*
X0092319Y0064241D02*
X0087791Y0064241D01*
X0071492Y0080540D01*
X0048776Y0080540D01*
X0013500Y0096800D01*
X0017981Y0099309D02*
X0051186Y0099309D01*
X0048812Y0097711D02*
X0018600Y0097711D01*
X0020248Y0096112D02*
X0047925Y0096112D01*
X0047652Y0094514D02*
X0023716Y0094514D01*
X0027184Y0092915D02*
X0047862Y0092915D01*
X0048661Y0091317D02*
X0030652Y0091317D01*
X0034120Y0089718D02*
X0050591Y0089718D01*
X0050591Y0088120D02*
X0037588Y0088120D01*
X0041055Y0086521D02*
X0051573Y0086521D01*
X0052791Y0088414D02*
X0055744Y0085461D01*
X0074445Y0085461D01*
X0085665Y0074241D01*
X0092319Y0074241D01*
X0088211Y0070536D02*
X0084608Y0070536D01*
X0084661Y0072134D02*
X0083009Y0072134D01*
X0083062Y0073733D02*
X0081411Y0073733D01*
X0081463Y0075332D02*
X0079812Y0075332D01*
X0079865Y0076930D02*
X0078214Y0076930D01*
X0078266Y0078529D02*
X0076615Y0078529D01*
X0076668Y0080127D02*
X0075016Y0080127D01*
X0075069Y0081726D02*
X0073418Y0081726D01*
X0078095Y0084923D02*
X0079156Y0084923D01*
X0079693Y0083324D02*
X0080754Y0083324D01*
X0081292Y0081726D02*
X0086577Y0081726D01*
X0082949Y0084241D02*
X0092319Y0084241D01*
X0088630Y0088120D02*
X0082181Y0088120D01*
X0083780Y0086521D02*
X0086342Y0086521D01*
X0082949Y0084241D02*
X0072752Y0094438D01*
X0074318Y0099309D02*
X0101969Y0099309D01*
X0100134Y0097711D02*
X0097629Y0097711D01*
X0098904Y0096112D02*
X0099807Y0096112D01*
X0100280Y0094514D02*
X0099319Y0094514D01*
X0097243Y0100908D02*
X0117395Y0100908D01*
X0116108Y0102506D02*
X0098530Y0102506D01*
X0098919Y0104105D02*
X0115719Y0104105D01*
X0115995Y0105703D02*
X0098643Y0105703D01*
X0097515Y0107302D02*
X0117123Y0107302D01*
X0118301Y0110499D02*
X0096337Y0110499D01*
X0098361Y0112097D02*
X0104334Y0112097D01*
X0103744Y0113696D02*
X0098919Y0113696D01*
X0098812Y0115294D02*
X0104016Y0115294D01*
X0105585Y0116893D02*
X0097924Y0116893D01*
X0095715Y0120241D02*
X0097185Y0120850D01*
X0098310Y0121975D01*
X0098919Y0123445D01*
X0098919Y0125037D01*
X0098310Y0126507D01*
X0097185Y0127632D01*
X0095715Y0128241D01*
X0088923Y0128241D01*
X0087453Y0127632D01*
X0086328Y0126507D01*
X0086138Y0126047D01*
X0049583Y0126047D01*
X0050735Y0126524D01*
X0051377Y0127167D01*
X0089866Y0129521D01*
X0090710Y0129521D01*
X0090765Y0129576D01*
X0090843Y0129581D01*
X0091402Y0130213D01*
X0091430Y0130241D01*
X0095715Y0130241D01*
X0097185Y0130850D01*
X0098310Y0131975D01*
X0098919Y0133445D01*
X0098919Y0135037D01*
X0098310Y0136507D01*
X0097185Y0137632D01*
X0095715Y0138241D01*
X0088923Y0138241D01*
X0087453Y0137632D01*
X0086328Y0136507D01*
X0085719Y0135037D01*
X0085719Y0133676D01*
X0051095Y0131558D01*
X0050735Y0131918D01*
X0049566Y0132402D01*
X0048300Y0132402D01*
X0047131Y0131918D01*
X0046236Y0131023D01*
X0045752Y0129854D01*
X0045752Y0128588D01*
X0046236Y0127419D01*
X0047131Y0126524D01*
X0048283Y0126047D01*
X0044640Y0126047D01*
X0044474Y0126166D01*
X0043753Y0126047D01*
X0043022Y0126047D01*
X0042877Y0125903D01*
X0033006Y0124273D01*
X0032861Y0124418D01*
X0031692Y0124902D01*
X0030426Y0124902D01*
X0029257Y0124418D01*
X0028362Y0123523D01*
X0027878Y0122354D01*
X0027878Y0121088D01*
X0028362Y0119919D01*
X0029257Y0119024D01*
X0030426Y0118540D01*
X0031692Y0118540D01*
X0032861Y0119024D01*
X0033756Y0119919D01*
X0033764Y0119938D01*
X0044114Y0121647D01*
X0086656Y0121647D01*
X0087453Y0120850D01*
X0088923Y0120241D01*
X0095715Y0120241D01*
X0098023Y0121688D02*
X0116615Y0121688D01*
X0115785Y0123287D02*
X0098853Y0123287D01*
X0098919Y0124885D02*
X0115719Y0124885D01*
X0116318Y0126484D02*
X0098319Y0126484D01*
X0096097Y0128082D02*
X0118541Y0128082D01*
X0117024Y0131279D02*
X0097614Y0131279D01*
X0098684Y0132878D02*
X0115954Y0132878D01*
X0115719Y0134476D02*
X0098919Y0134476D01*
X0098489Y0136075D02*
X0116149Y0136075D01*
X0117553Y0137673D02*
X0097085Y0137673D01*
X0097205Y0140870D02*
X0117432Y0140870D01*
X0116123Y0142469D02*
X0098514Y0142469D01*
X0098919Y0144068D02*
X0115719Y0144068D01*
X0115980Y0145666D02*
X0098658Y0145666D01*
X0097552Y0147265D02*
X0117086Y0147265D01*
X0118030Y0150163D02*
X0118689Y0149949D01*
X0119373Y0149841D01*
X0122319Y0149841D01*
X0125265Y0149841D01*
X0125949Y0149949D01*
X0126608Y0150163D01*
X0127225Y0150478D01*
X0127785Y0150885D01*
X0128275Y0151375D01*
X0128682Y0151935D01*
X0128997Y0152552D01*
X0129211Y0153211D01*
X0129319Y0153895D01*
X0129319Y0154241D01*
X0129319Y0154587D01*
X0129211Y0155271D01*
X0128997Y0155930D01*
X0128682Y0156547D01*
X0128275Y0157107D01*
X0127785Y0157597D01*
X0127225Y0158004D01*
X0126608Y0158319D01*
X0125949Y0158533D01*
X0125265Y0158641D01*
X0122319Y0158641D01*
X0122319Y0154241D01*
X0129319Y0154241D01*
X0122319Y0154241D01*
X0122319Y0154241D01*
X0122319Y0154241D01*
X0122319Y0149841D01*
X0122319Y0154241D01*
X0122319Y0154241D01*
X0122319Y0158641D01*
X0119373Y0158641D01*
X0118689Y0158533D01*
X0118030Y0158319D01*
X0117413Y0158004D01*
X0116852Y0157597D01*
X0116363Y0157107D01*
X0115956Y0156547D01*
X0115641Y0155930D01*
X0115427Y0155271D01*
X0115319Y0154587D01*
X0115319Y0154241D01*
X0122319Y0154241D01*
X0122319Y0154241D01*
X0115319Y0154241D01*
X0115319Y0153895D01*
X0115427Y0153211D01*
X0115641Y0152552D01*
X0115956Y0151935D01*
X0116363Y0151375D01*
X0116852Y0150885D01*
X0117413Y0150478D01*
X0118030Y0150163D01*
X0117445Y0150462D02*
X0096247Y0150462D01*
X0098345Y0152060D02*
X0115892Y0152060D01*
X0115356Y0153659D02*
X0098919Y0153659D01*
X0098828Y0155257D02*
X0115425Y0155257D01*
X0116180Y0156856D02*
X0105062Y0156856D01*
X0106089Y0158454D02*
X0118447Y0158454D01*
X0122319Y0158454D02*
X0122319Y0158454D01*
X0122319Y0156856D02*
X0122319Y0156856D01*
X0122319Y0155257D02*
X0122319Y0155257D01*
X0122319Y0153659D02*
X0122319Y0153659D01*
X0122319Y0152060D02*
X0122319Y0152060D01*
X0122319Y0150462D02*
X0122319Y0150462D01*
X0127193Y0150462D02*
X0146766Y0150462D01*
X0145872Y0151355D02*
X0145872Y0153178D01*
X0150272Y0153178D01*
X0154672Y0153178D01*
X0154672Y0155000D01*
X0152094Y0157578D01*
X0150272Y0157578D01*
X0150272Y0153178D01*
X0150272Y0153178D01*
X0154672Y0153178D01*
X0154672Y0151355D01*
X0152094Y0148778D01*
X0150272Y0148778D01*
X0150272Y0153178D01*
X0150272Y0153178D01*
X0150272Y0153178D01*
X0150272Y0157578D01*
X0148449Y0157578D01*
X0145872Y0155000D01*
X0145872Y0153178D01*
X0150272Y0153178D01*
X0150272Y0148778D01*
X0148449Y0148778D01*
X0145872Y0151355D01*
X0145872Y0152060D02*
X0139220Y0152060D01*
X0140819Y0153659D02*
X0145872Y0153659D01*
X0146128Y0155257D02*
X0141122Y0155257D01*
X0141122Y0156856D02*
X0147727Y0156856D01*
X0150272Y0156856D02*
X0150272Y0156856D01*
X0150272Y0155257D02*
X0150272Y0155257D01*
X0150272Y0153659D02*
X0150272Y0153659D01*
X0150272Y0153178D02*
X0150272Y0153178D01*
X0150272Y0152060D02*
X0150272Y0152060D01*
X0150272Y0150462D02*
X0150272Y0150462D01*
X0150272Y0148863D02*
X0150272Y0148863D01*
X0152179Y0148863D02*
X0203550Y0148863D01*
X0203550Y0147265D02*
X0141522Y0147265D01*
X0141522Y0145666D02*
X0203550Y0145666D01*
X0203550Y0144068D02*
X0141522Y0144068D01*
X0141522Y0143796D02*
X0141522Y0145619D01*
X0137122Y0145619D01*
X0137122Y0145619D01*
X0137122Y0141219D01*
X0138945Y0141219D01*
X0141522Y0143796D01*
X0140195Y0142469D02*
X0203550Y0142469D01*
X0197358Y0140870D02*
X0136320Y0140870D01*
X0137122Y0142469D02*
X0137122Y0142469D01*
X0137122Y0144068D02*
X0137122Y0144068D01*
X0137122Y0145666D02*
X0137122Y0145666D01*
X0137122Y0147265D02*
X0137122Y0147265D01*
X0137122Y0148863D02*
X0137122Y0148863D01*
X0134144Y0148863D02*
X0083871Y0148863D01*
X0082273Y0147265D02*
X0087086Y0147265D01*
X0085980Y0145666D02*
X0080674Y0145666D01*
X0079366Y0147469D02*
X0086138Y0154241D01*
X0092319Y0154241D01*
X0088391Y0150462D02*
X0085470Y0150462D01*
X0082444Y0153659D02*
X0075512Y0153659D01*
X0077110Y0155257D02*
X0084043Y0155257D01*
X0086677Y0156856D02*
X0078709Y0156856D01*
X0078022Y0159280D02*
X0071840Y0153098D01*
X0035826Y0153098D01*
X0031651Y0157272D01*
X0031256Y0157272D01*
X0029594Y0153659D02*
X0027425Y0153659D01*
X0024957Y0153659D02*
X0024957Y0153659D01*
X0024957Y0152898D02*
X0024957Y0157272D01*
X0024957Y0157272D01*
X0024957Y0152898D01*
X0024957Y0155257D02*
X0024957Y0155257D01*
X0024957Y0156856D02*
X0024957Y0156856D01*
X0024957Y0157272D02*
X0020582Y0157272D01*
X0024957Y0157272D01*
X0024957Y0157272D01*
X0021569Y0160053D02*
X0010300Y0160053D01*
X0010300Y0161651D02*
X0024131Y0161651D01*
X0024323Y0163250D02*
X0010300Y0163250D01*
X0010300Y0164848D02*
X0025336Y0164848D01*
X0030876Y0164848D02*
X0031636Y0164848D01*
X0037175Y0164848D02*
X0042020Y0164848D01*
X0043500Y0163217D02*
X0051807Y0163217D01*
X0070075Y0181485D01*
X0070075Y0183493D01*
X0073036Y0180833D02*
X0074987Y0180833D01*
X0074086Y0182432D02*
X0073938Y0182432D01*
X0073492Y0185629D02*
X0074531Y0185629D01*
X0076578Y0187227D02*
X0071446Y0187227D01*
X0068704Y0187227D02*
X0063572Y0187227D01*
X0065618Y0185629D02*
X0066657Y0185629D01*
X0066212Y0182432D02*
X0066064Y0182432D01*
X0066312Y0180833D02*
X0065162Y0180833D01*
X0064713Y0179235D02*
X0055462Y0179235D01*
X0053191Y0179235D02*
X0052434Y0179235D01*
X0052636Y0177636D02*
X0063115Y0177636D01*
X0061516Y0176038D02*
X0052636Y0176038D01*
X0052008Y0174439D02*
X0059918Y0174439D01*
X0058319Y0172841D02*
X0051029Y0172841D01*
X0049196Y0171242D02*
X0056721Y0171242D01*
X0055122Y0169644D02*
X0010300Y0169644D01*
X0010300Y0171242D02*
X0013316Y0171242D01*
X0011482Y0172841D02*
X0010300Y0172841D01*
X0010300Y0174439D02*
X0010504Y0174439D01*
X0010300Y0168045D02*
X0053524Y0168045D01*
X0051925Y0166447D02*
X0010300Y0166447D01*
X0010300Y0158454D02*
X0020741Y0158454D01*
X0020593Y0156856D02*
X0010300Y0156856D01*
X0010300Y0155257D02*
X0021074Y0155257D01*
X0022488Y0153659D02*
X0010300Y0153659D01*
X0010300Y0152060D02*
X0033752Y0152060D01*
X0037555Y0157272D02*
X0043500Y0163217D01*
X0040421Y0163250D02*
X0038189Y0163250D01*
X0038380Y0161651D02*
X0038823Y0161651D01*
X0041848Y0158454D02*
X0050742Y0158454D01*
X0050319Y0156856D02*
X0041530Y0156856D01*
X0043447Y0160053D02*
X0053641Y0160053D01*
X0053352Y0161651D02*
X0055240Y0161651D01*
X0054951Y0163250D02*
X0056838Y0163250D01*
X0056549Y0164848D02*
X0058437Y0164848D01*
X0058148Y0166447D02*
X0060035Y0166447D01*
X0059746Y0168045D02*
X0061634Y0168045D01*
X0061345Y0169644D02*
X0063232Y0169644D01*
X0062943Y0171242D02*
X0064831Y0171242D01*
X0064542Y0172841D02*
X0066429Y0172841D01*
X0066140Y0174439D02*
X0111640Y0174439D01*
X0113500Y0171800D02*
X0068500Y0171800D01*
X0053500Y0156800D01*
X0056681Y0156856D02*
X0072486Y0156856D01*
X0074085Y0158454D02*
X0058265Y0158454D01*
X0059864Y0160053D02*
X0075683Y0160053D01*
X0078022Y0159280D02*
X0102988Y0159280D01*
X0100860Y0161651D02*
X0097986Y0161651D01*
X0098838Y0163250D02*
X0103744Y0163250D01*
X0104158Y0164848D02*
X0098919Y0164848D01*
X0098335Y0166447D02*
X0116303Y0166447D01*
X0118451Y0168045D02*
X0096187Y0168045D01*
X0088451Y0168045D02*
X0067856Y0168045D01*
X0066258Y0166447D02*
X0086303Y0166447D01*
X0085719Y0164848D02*
X0064659Y0164848D01*
X0063061Y0163250D02*
X0085800Y0163250D01*
X0086652Y0161651D02*
X0061462Y0161651D01*
X0073913Y0152060D02*
X0080846Y0152060D01*
X0079247Y0150462D02*
X0010300Y0150462D01*
X0010300Y0148863D02*
X0020129Y0148863D01*
X0018893Y0147265D02*
X0010300Y0147265D01*
X0010300Y0145666D02*
X0017643Y0145666D01*
X0016392Y0144068D02*
X0010300Y0144068D01*
X0010300Y0142469D02*
X0015142Y0142469D01*
X0018227Y0139272D02*
X0079869Y0139272D01*
X0081467Y0140870D02*
X0019477Y0140870D01*
X0020728Y0142469D02*
X0083066Y0142469D01*
X0084664Y0144068D02*
X0021978Y0144068D01*
X0021846Y0147469D02*
X0079366Y0147469D01*
X0087949Y0144241D02*
X0092319Y0144241D01*
X0087949Y0144241D02*
X0079366Y0135658D01*
X0023657Y0135658D01*
X0013500Y0126800D01*
X0018227Y0124885D02*
X0030385Y0124885D01*
X0031733Y0124885D02*
X0036717Y0124885D01*
X0034682Y0120090D02*
X0131193Y0120090D01*
X0132792Y0118491D02*
X0018320Y0118491D01*
X0017423Y0120090D02*
X0028292Y0120090D01*
X0027878Y0121688D02*
X0015025Y0121688D01*
X0017199Y0123287D02*
X0028264Y0123287D01*
X0031059Y0121721D02*
X0043933Y0123847D01*
X0091925Y0123847D01*
X0092319Y0124241D01*
X0088541Y0128082D02*
X0066346Y0128082D01*
X0072678Y0132878D02*
X0023817Y0132878D01*
X0021984Y0131279D02*
X0046492Y0131279D01*
X0045752Y0129681D02*
X0020151Y0129681D01*
X0018489Y0128082D02*
X0045962Y0128082D01*
X0047229Y0126484D02*
X0018600Y0126484D01*
X0017122Y0132878D02*
X0016790Y0132878D01*
X0018058Y0134476D02*
X0018955Y0134476D01*
X0018600Y0136075D02*
X0020788Y0136075D01*
X0022561Y0137673D02*
X0018600Y0137673D01*
X0013500Y0136800D02*
X0021846Y0147469D01*
X0010358Y0140870D02*
X0010300Y0140870D01*
X0013500Y0116800D02*
X0035075Y0114241D01*
X0092319Y0114241D01*
X0086714Y0116893D02*
X0031395Y0116893D01*
X0034107Y0112097D02*
X0015474Y0112097D01*
X0017608Y0113696D02*
X0020993Y0113696D01*
X0013500Y0106800D02*
X0035075Y0104241D01*
X0092319Y0104241D01*
X0092319Y0097711D02*
X0092319Y0097711D01*
X0092319Y0096112D02*
X0092319Y0096112D01*
X0092319Y0094514D02*
X0092319Y0094514D01*
X0092319Y0092915D02*
X0092319Y0092915D01*
X0092319Y0091317D02*
X0092319Y0091317D01*
X0086751Y0076930D02*
X0086088Y0076930D01*
X0086206Y0068937D02*
X0163077Y0068937D01*
X0163780Y0070536D02*
X0127305Y0070536D01*
X0128784Y0072134D02*
X0163780Y0072134D01*
X0163780Y0073733D02*
X0129293Y0073733D01*
X0129191Y0075332D02*
X0163780Y0075332D01*
X0163780Y0076930D02*
X0128404Y0076930D01*
X0127478Y0067339D02*
X0161479Y0067339D01*
X0162043Y0056918D02*
X0173854Y0068729D01*
X0173854Y0088414D01*
X0178894Y0093454D01*
X0179868Y0091317D02*
X0198077Y0091317D01*
X0196206Y0089718D02*
X0178270Y0089718D01*
X0176671Y0088120D02*
X0195526Y0088120D01*
X0191366Y0086521D02*
X0176054Y0086521D01*
X0176054Y0084923D02*
X0186881Y0084923D01*
X0185338Y0083324D02*
X0176054Y0083324D01*
X0176054Y0081726D02*
X0183740Y0081726D01*
X0182141Y0080127D02*
X0176054Y0080127D01*
X0176054Y0078529D02*
X0180542Y0078529D01*
X0179528Y0076930D02*
X0176054Y0076930D01*
X0176054Y0075332D02*
X0179528Y0075332D01*
X0179528Y0073733D02*
X0176054Y0073733D01*
X0176054Y0072134D02*
X0179528Y0072134D01*
X0179528Y0070536D02*
X0176054Y0070536D01*
X0176054Y0068937D02*
X0178825Y0068937D01*
X0190563Y0081726D02*
X0199064Y0081726D01*
X0181686Y0096112D02*
X0168916Y0096112D01*
X0163780Y0086521D02*
X0159293Y0086521D01*
X0159554Y0084923D02*
X0163780Y0084923D01*
X0163780Y0083324D02*
X0159554Y0083324D01*
X0158664Y0081726D02*
X0163780Y0081726D01*
X0173418Y0105703D02*
X0128643Y0105703D01*
X0128361Y0112097D02*
X0139157Y0112097D01*
X0137587Y0113696D02*
X0128919Y0113696D01*
X0128812Y0115294D02*
X0135989Y0115294D01*
X0134390Y0116893D02*
X0127924Y0116893D01*
X0122319Y0114241D02*
X0107161Y0114241D01*
X0106925Y0114005D01*
X0108265Y0116893D02*
X0116714Y0116893D01*
X0122713Y0123847D02*
X0122319Y0124241D01*
X0122713Y0123847D02*
X0130547Y0123847D01*
X0140941Y0113454D01*
X0200500Y0116800D01*
X0198526Y0112097D02*
X0156019Y0112097D01*
X0162936Y0116893D02*
X0140613Y0116893D01*
X0139014Y0118491D02*
X0191385Y0118491D01*
X0196577Y0120090D02*
X0137416Y0120090D01*
X0135817Y0121688D02*
X0141406Y0121688D01*
X0142752Y0123454D02*
X0200500Y0126800D01*
X0196801Y0123287D02*
X0177903Y0123287D01*
X0184602Y0128082D02*
X0141234Y0128082D01*
X0142833Y0126484D02*
X0157017Y0126484D01*
X0150319Y0121688D02*
X0198975Y0121688D01*
X0196392Y0113696D02*
X0184469Y0113696D01*
X0196173Y0129681D02*
X0139636Y0129681D01*
X0139689Y0131279D02*
X0138037Y0131279D01*
X0138090Y0132878D02*
X0136439Y0132878D01*
X0136492Y0134476D02*
X0134840Y0134476D01*
X0134893Y0136075D02*
X0133242Y0136075D01*
X0133295Y0137673D02*
X0131643Y0137673D01*
X0131696Y0139272D02*
X0086091Y0139272D01*
X0087553Y0137673D02*
X0084493Y0137673D01*
X0082894Y0136075D02*
X0086149Y0136075D01*
X0085719Y0134476D02*
X0081296Y0134476D01*
X0089799Y0131721D02*
X0048933Y0129221D01*
X0050637Y0126484D02*
X0086318Y0126484D01*
X0090931Y0129681D02*
X0133413Y0129681D01*
X0131815Y0131279D02*
X0127614Y0131279D01*
X0128684Y0132878D02*
X0130216Y0132878D01*
X0130547Y0135658D02*
X0142752Y0123454D01*
X0139807Y0123287D02*
X0134219Y0123287D01*
X0132620Y0124885D02*
X0138209Y0124885D01*
X0136610Y0126484D02*
X0128319Y0126484D01*
X0126097Y0128082D02*
X0135012Y0128082D01*
X0141563Y0131279D02*
X0197987Y0131279D01*
X0197210Y0132878D02*
X0169750Y0132878D01*
X0176705Y0137673D02*
X0139517Y0137673D01*
X0141116Y0136075D02*
X0148104Y0136075D01*
X0140626Y0133454D02*
X0200500Y0136800D01*
X0196004Y0139272D02*
X0137919Y0139272D01*
X0140626Y0133454D02*
X0130547Y0143532D01*
X0123028Y0143532D01*
X0122319Y0144241D01*
X0127205Y0140870D02*
X0130098Y0140870D01*
X0131525Y0145666D02*
X0132722Y0145666D01*
X0132722Y0147265D02*
X0127552Y0147265D01*
X0128746Y0152060D02*
X0135024Y0152060D01*
X0133426Y0153659D02*
X0129281Y0153659D01*
X0129213Y0155257D02*
X0133122Y0155257D01*
X0133122Y0156856D02*
X0128458Y0156856D01*
X0126191Y0158454D02*
X0132284Y0158454D01*
X0132284Y0160053D02*
X0107598Y0160053D01*
X0106253Y0160053D02*
X0106111Y0160053D01*
X0106925Y0163217D02*
X0121295Y0163217D01*
X0122319Y0164241D01*
X0123343Y0163217D01*
X0134484Y0163217D01*
X0134484Y0159280D01*
X0138421Y0155343D01*
X0139944Y0158454D02*
X0203550Y0158454D01*
X0203550Y0156856D02*
X0192251Y0156856D01*
X0191928Y0157178D02*
X0188615Y0157178D01*
X0186272Y0154835D01*
X0186272Y0151521D01*
X0188615Y0149178D01*
X0191928Y0149178D01*
X0194272Y0151521D01*
X0194272Y0154835D01*
X0191928Y0157178D01*
X0193849Y0155257D02*
X0203550Y0155257D01*
X0203550Y0153659D02*
X0194272Y0153659D01*
X0194272Y0152060D02*
X0203550Y0152060D01*
X0203550Y0150462D02*
X0193212Y0150462D01*
X0187331Y0150462D02*
X0153778Y0150462D01*
X0154672Y0152060D02*
X0186272Y0152060D01*
X0186272Y0153659D02*
X0154672Y0153659D01*
X0154415Y0155257D02*
X0186694Y0155257D01*
X0188292Y0156856D02*
X0152817Y0156856D01*
X0148364Y0148863D02*
X0140100Y0148863D01*
X0136823Y0160053D02*
X0203550Y0160053D01*
X0203550Y0161651D02*
X0167525Y0161651D01*
X0165980Y0163217D02*
X0168972Y0166209D01*
X0168972Y0167036D01*
X0170283Y0163250D02*
X0203550Y0163250D01*
X0203550Y0164848D02*
X0172396Y0164848D01*
X0172972Y0166447D02*
X0203550Y0166447D01*
X0203550Y0168045D02*
X0172884Y0168045D01*
X0172022Y0169644D02*
X0203550Y0169644D01*
X0203550Y0171242D02*
X0156876Y0171242D01*
X0156876Y0171761D02*
X0156876Y0169938D01*
X0154299Y0167361D01*
X0152476Y0167361D01*
X0152476Y0171760D01*
X0152476Y0171760D01*
X0152476Y0171761D02*
X0148076Y0171761D01*
X0152476Y0171761D01*
X0152476Y0171761D01*
X0152476Y0176161D01*
X0150654Y0176161D01*
X0148076Y0173583D01*
X0148076Y0171761D01*
X0148076Y0169938D01*
X0150654Y0167361D01*
X0152476Y0167361D01*
X0152476Y0171760D01*
X0152477Y0171761D02*
X0152477Y0171761D01*
X0156876Y0171761D01*
X0156876Y0173583D01*
X0154299Y0176161D01*
X0152476Y0176161D01*
X0152476Y0171761D01*
X0152476Y0171761D01*
X0152477Y0171761D02*
X0156876Y0171761D01*
X0156876Y0172841D02*
X0203550Y0172841D01*
X0203550Y0174439D02*
X0156020Y0174439D01*
X0154422Y0176038D02*
X0187227Y0176038D01*
X0186193Y0177072D02*
X0188536Y0174729D01*
X0191850Y0174729D01*
X0194193Y0177072D01*
X0194193Y0180386D01*
X0191850Y0182729D01*
X0188536Y0182729D01*
X0186193Y0180386D01*
X0186193Y0177072D01*
X0186193Y0177636D02*
X0104889Y0177636D01*
X0104653Y0177400D02*
X0107231Y0179977D01*
X0107231Y0181800D01*
X0107231Y0183623D01*
X0104653Y0186200D01*
X0102831Y0186200D01*
X0102831Y0181800D01*
X0107231Y0181800D01*
X0102831Y0181800D01*
X0102831Y0181800D01*
X0102831Y0177400D01*
X0104653Y0177400D01*
X0102831Y0177400D02*
X0102831Y0181800D01*
X0102831Y0181800D01*
X0102831Y0181800D01*
X0102831Y0186200D01*
X0101008Y0186200D01*
X0098431Y0183623D01*
X0098431Y0181800D01*
X0098431Y0179977D01*
X0101008Y0177400D01*
X0102831Y0177400D01*
X0102831Y0177636D02*
X0102831Y0177636D01*
X0102831Y0179235D02*
X0102831Y0179235D01*
X0102831Y0180833D02*
X0102831Y0180833D01*
X0102831Y0181800D02*
X0098431Y0181800D01*
X0102831Y0181800D01*
X0102831Y0181800D01*
X0102831Y0182432D02*
X0102831Y0182432D01*
X0102831Y0184030D02*
X0102831Y0184030D01*
X0102831Y0185629D02*
X0102831Y0185629D01*
X0105224Y0185629D02*
X0105845Y0185629D01*
X0106823Y0184030D02*
X0109404Y0184030D01*
X0108831Y0183457D02*
X0108831Y0180143D01*
X0111174Y0177800D01*
X0114488Y0177800D01*
X0116288Y0179600D01*
X0139451Y0179600D01*
X0140739Y0180889D01*
X0141391Y0181540D01*
X0143936Y0181540D01*
X0146280Y0183883D01*
X0146280Y0187197D01*
X0143936Y0189540D01*
X0140623Y0189540D01*
X0138280Y0187197D01*
X0138280Y0184651D01*
X0137628Y0184000D01*
X0116288Y0184000D01*
X0114488Y0185800D01*
X0111174Y0185800D01*
X0108831Y0183457D01*
X0108831Y0182432D02*
X0107231Y0182432D01*
X0107231Y0180833D02*
X0108831Y0180833D01*
X0109739Y0179235D02*
X0106488Y0179235D01*
X0100772Y0177636D02*
X0069337Y0177636D01*
X0067739Y0176038D02*
X0150531Y0176038D01*
X0152476Y0176038D02*
X0152476Y0176038D01*
X0152476Y0174439D02*
X0152476Y0174439D01*
X0152476Y0172841D02*
X0152476Y0172841D01*
X0152476Y0171242D02*
X0152476Y0171242D01*
X0152476Y0169644D02*
X0152476Y0169644D01*
X0152476Y0168045D02*
X0152476Y0168045D01*
X0154983Y0168045D02*
X0165061Y0168045D01*
X0164972Y0166447D02*
X0128335Y0166447D01*
X0126187Y0168045D02*
X0140535Y0168045D01*
X0140820Y0167761D02*
X0144133Y0167761D01*
X0146476Y0170104D01*
X0146476Y0173417D01*
X0144133Y0175761D01*
X0140820Y0175761D01*
X0138476Y0173417D01*
X0138476Y0170104D01*
X0140820Y0167761D01*
X0138936Y0169644D02*
X0115842Y0169644D01*
X0116681Y0171242D02*
X0138476Y0171242D01*
X0138476Y0172841D02*
X0116512Y0172841D01*
X0115360Y0174439D02*
X0139498Y0174439D01*
X0145455Y0174439D02*
X0148932Y0174439D01*
X0148076Y0172841D02*
X0146476Y0172841D01*
X0146476Y0171242D02*
X0148076Y0171242D01*
X0148371Y0169644D02*
X0146016Y0169644D01*
X0144418Y0168045D02*
X0149969Y0168045D01*
X0156582Y0169644D02*
X0165923Y0169644D01*
X0165980Y0163217D02*
X0134484Y0163217D01*
X0140684Y0180833D02*
X0186640Y0180833D01*
X0186193Y0179235D02*
X0115922Y0179235D01*
X0112831Y0181800D02*
X0138539Y0181800D01*
X0142280Y0185540D01*
X0144828Y0182432D02*
X0149165Y0182432D01*
X0147880Y0183718D02*
X0147880Y0185540D01*
X0152279Y0185540D01*
X0152279Y0185540D01*
X0147880Y0185540D01*
X0147880Y0187363D01*
X0150457Y0189940D01*
X0152279Y0189940D01*
X0152279Y0185540D01*
X0152280Y0185540D01*
X0152280Y0185540D01*
X0156680Y0185540D01*
X0156680Y0183718D01*
X0154102Y0181140D01*
X0152280Y0181140D01*
X0152280Y0185540D01*
X0156680Y0185540D01*
X0156680Y0187363D01*
X0154102Y0189940D01*
X0152280Y0189940D01*
X0152280Y0185540D01*
X0152279Y0185540D01*
X0152279Y0181140D01*
X0150457Y0181140D01*
X0147880Y0183718D01*
X0147880Y0184030D02*
X0146280Y0184030D01*
X0146280Y0185629D02*
X0147880Y0185629D01*
X0147880Y0187227D02*
X0146249Y0187227D01*
X0144651Y0188826D02*
X0149343Y0188826D01*
X0152279Y0188826D02*
X0152280Y0188826D01*
X0152279Y0187227D02*
X0152280Y0187227D01*
X0152279Y0185629D02*
X0152280Y0185629D01*
X0152279Y0184030D02*
X0152280Y0184030D01*
X0152279Y0182432D02*
X0152280Y0182432D01*
X0155394Y0182432D02*
X0188239Y0182432D01*
X0188536Y0184729D02*
X0191850Y0184729D01*
X0194193Y0187072D01*
X0194193Y0190386D01*
X0191850Y0192729D01*
X0188536Y0192729D01*
X0186193Y0190386D01*
X0186193Y0187072D01*
X0188536Y0184729D01*
X0187636Y0185629D02*
X0173372Y0185629D01*
X0173372Y0185214D02*
X0173372Y0187036D01*
X0168973Y0187036D01*
X0168973Y0187036D01*
X0173372Y0187036D01*
X0173372Y0188859D01*
X0170795Y0191436D01*
X0168972Y0191436D01*
X0167150Y0191436D01*
X0164572Y0188859D01*
X0164572Y0187036D01*
X0164572Y0185214D01*
X0167150Y0182636D01*
X0168972Y0182636D01*
X0168972Y0187036D01*
X0164572Y0187036D01*
X0168972Y0187036D01*
X0168972Y0187036D01*
X0168972Y0187036D01*
X0168972Y0182636D01*
X0170795Y0182636D01*
X0173372Y0185214D01*
X0172189Y0184030D02*
X0203550Y0184030D01*
X0203550Y0182432D02*
X0192147Y0182432D01*
X0193746Y0180833D02*
X0203550Y0180833D01*
X0203550Y0179235D02*
X0194193Y0179235D01*
X0194193Y0177636D02*
X0203550Y0177636D01*
X0203550Y0176038D02*
X0193158Y0176038D01*
X0192749Y0185629D02*
X0203550Y0185629D01*
X0203550Y0187227D02*
X0194193Y0187227D01*
X0194193Y0188826D02*
X0203550Y0188826D01*
X0203550Y0190424D02*
X0194155Y0190424D01*
X0192556Y0192023D02*
X0203550Y0192023D01*
X0203550Y0193621D02*
X0010300Y0193621D01*
X0010300Y0192023D02*
X0104897Y0192023D01*
X0107831Y0189300D02*
X0083756Y0189300D01*
X0077949Y0183493D01*
X0080910Y0180833D02*
X0082304Y0180833D01*
X0084687Y0179235D02*
X0070936Y0179235D01*
X0080170Y0188826D02*
X0010300Y0188826D01*
X0010300Y0190424D02*
X0081769Y0190424D01*
X0089667Y0185629D02*
X0100437Y0185629D01*
X0098838Y0184030D02*
X0090191Y0184030D01*
X0090112Y0182432D02*
X0098431Y0182432D01*
X0098431Y0180833D02*
X0089341Y0180833D01*
X0086958Y0179235D02*
X0099173Y0179235D01*
X0109816Y0185629D02*
X0111003Y0185629D01*
X0111415Y0187227D02*
X0138310Y0187227D01*
X0138280Y0185629D02*
X0114659Y0185629D01*
X0116257Y0184030D02*
X0137658Y0184030D01*
X0139908Y0188826D02*
X0111831Y0188826D01*
X0111831Y0190424D02*
X0166138Y0190424D01*
X0164572Y0188826D02*
X0155216Y0188826D01*
X0156680Y0187227D02*
X0164572Y0187227D01*
X0164572Y0185629D02*
X0156680Y0185629D01*
X0156680Y0184030D02*
X0165756Y0184030D01*
X0168972Y0184030D02*
X0168972Y0184030D01*
X0168972Y0185629D02*
X0168972Y0185629D01*
X0168972Y0187036D02*
X0168972Y0191436D01*
X0168972Y0187036D01*
X0168972Y0187036D01*
X0168972Y0187227D02*
X0168972Y0187227D01*
X0168972Y0188826D02*
X0168972Y0188826D01*
X0168972Y0190424D02*
X0168972Y0190424D01*
X0171807Y0190424D02*
X0186231Y0190424D01*
X0186193Y0188826D02*
X0173372Y0188826D01*
X0173372Y0187227D02*
X0186193Y0187227D01*
X0187830Y0192023D02*
X0110765Y0192023D01*
X0100914Y0156856D02*
X0097961Y0156856D01*
X0092319Y0134241D02*
X0089799Y0131721D01*
X0122319Y0134241D02*
X0123736Y0135658D01*
X0130547Y0135658D01*
X0077557Y0086521D02*
X0076496Y0086521D01*
X0075959Y0088120D02*
X0056197Y0088120D01*
X0054991Y0089718D02*
X0059900Y0089718D01*
X0058221Y0091317D02*
X0056843Y0091317D01*
X0052791Y0088414D02*
X0052791Y0094398D01*
X0052752Y0094438D01*
X0054318Y0099309D02*
X0060198Y0099309D01*
X0062552Y0099309D02*
X0062952Y0099309D01*
X0062952Y0097711D02*
X0062552Y0097711D01*
X0062552Y0096112D02*
X0062952Y0096112D01*
X0062952Y0092915D02*
X0062552Y0092915D01*
X0062552Y0091317D02*
X0062952Y0091317D01*
X0062952Y0089718D02*
X0062552Y0089718D01*
X0065604Y0089718D02*
X0070819Y0089718D01*
X0068661Y0091317D02*
X0067283Y0091317D01*
X0067172Y0097711D02*
X0068812Y0097711D01*
X0071186Y0099309D02*
X0065306Y0099309D01*
X0058331Y0097711D02*
X0056692Y0097711D01*
X0053172Y0084923D02*
X0044523Y0084923D01*
X0047991Y0083324D02*
X0054770Y0083324D01*
X0047676Y0078529D02*
X0040938Y0078529D01*
X0044187Y0076930D02*
X0071991Y0076930D01*
X0073589Y0075332D02*
X0047436Y0075332D01*
X0049914Y0073733D02*
X0052611Y0073733D01*
X0051547Y0072134D02*
X0050070Y0072134D01*
X0047870Y0068729D02*
X0043264Y0068729D01*
X0040783Y0071209D01*
X0047870Y0068729D02*
X0047870Y0052981D01*
X0056610Y0044241D01*
X0074169Y0044241D01*
X0092319Y0044241D01*
X0097689Y0051354D02*
X0100788Y0051354D01*
X0102988Y0052981D02*
X0101728Y0054241D01*
X0092319Y0054241D01*
X0096905Y0057748D02*
X0117733Y0057748D01*
X0116180Y0056149D02*
X0102931Y0056149D01*
X0104530Y0054551D02*
X0115719Y0054551D01*
X0115923Y0052952D02*
X0105188Y0052952D01*
X0105188Y0051354D02*
X0116949Y0051354D01*
X0122319Y0054241D02*
X0124996Y0056918D01*
X0162043Y0056918D01*
X0158106Y0045107D02*
X0123185Y0045107D01*
X0122319Y0044241D01*
X0102988Y0039202D02*
X0102988Y0052981D01*
X0084779Y0064142D02*
X0078603Y0064142D01*
X0078480Y0065740D02*
X0083181Y0065740D01*
X0081582Y0067339D02*
X0077381Y0067339D01*
X0051182Y0046558D02*
X0035751Y0046558D01*
X0036970Y0045339D02*
X0036970Y0045339D01*
X0037349Y0044960D02*
X0052486Y0044960D01*
X0050887Y0043361D02*
X0038367Y0043361D01*
X0039240Y0041763D02*
X0049289Y0041763D01*
X0047690Y0040164D02*
X0039086Y0040164D01*
X0037953Y0038566D02*
X0046091Y0038566D01*
X0045670Y0033770D02*
X0043880Y0033770D01*
X0044783Y0032172D02*
X0045670Y0032172D01*
X0045670Y0030573D02*
X0044783Y0030573D01*
X0044374Y0028975D02*
X0044206Y0028975D01*
X0044522Y0020982D02*
X0056305Y0020982D01*
X0055453Y0019384D02*
X0045458Y0019384D01*
X0036059Y0041170D02*
X0036059Y0043139D01*
X0024248Y0054950D01*
X0027758Y0054551D02*
X0045670Y0054551D01*
X0045670Y0056149D02*
X0042685Y0056149D01*
X0043952Y0057748D02*
X0045670Y0057748D01*
X0045670Y0059346D02*
X0044161Y0059346D01*
X0043421Y0060945D02*
X0045670Y0060945D01*
X0045670Y0062543D02*
X0035868Y0062543D01*
X0040626Y0059241D02*
X0040980Y0058887D01*
X0045670Y0052952D02*
X0029357Y0052952D01*
X0030955Y0051354D02*
X0046386Y0051354D01*
X0047985Y0049755D02*
X0032554Y0049755D01*
X0034152Y0048157D02*
X0049583Y0048157D01*
X0044416Y0080127D02*
X0037689Y0080127D01*
X0037480Y0083324D02*
X0031191Y0083324D01*
X0028185Y0082351D02*
X0023618Y0082351D01*
X0013500Y0076800D01*
X0014936Y0081726D02*
X0017904Y0081726D01*
X0017237Y0083324D02*
X0020818Y0083324D01*
X0018243Y0084923D02*
X0034012Y0084923D01*
X0034440Y0081726D02*
X0040948Y0081726D01*
X0030544Y0086521D02*
X0018600Y0086521D01*
X0018474Y0088120D02*
X0027077Y0088120D01*
X0023609Y0089718D02*
X0017794Y0089718D01*
X0015923Y0091317D02*
X0020141Y0091317D01*
X0020456Y0171242D02*
X0042056Y0171242D01*
X0040222Y0172841D02*
X0022289Y0172841D01*
X0023267Y0174439D02*
X0039244Y0174439D01*
X0038616Y0176038D02*
X0023896Y0176038D01*
X0023896Y0177636D02*
X0038616Y0177636D01*
X0038818Y0179235D02*
X0023693Y0179235D01*
X0023031Y0180833D02*
X0039480Y0180833D01*
X0040793Y0182432D02*
X0021719Y0182432D01*
X0019080Y0184030D02*
X0043432Y0184030D01*
X0047820Y0184030D02*
X0049958Y0184030D01*
X0050483Y0185629D02*
X0010300Y0185629D01*
X0010300Y0187227D02*
X0051927Y0187227D01*
X0056727Y0187227D02*
X0060830Y0187227D01*
X0058783Y0185629D02*
X0058170Y0185629D01*
X0057845Y0180833D02*
X0059239Y0180833D01*
X0014692Y0184030D02*
X0010300Y0184030D01*
X0010300Y0182432D02*
X0012052Y0182432D01*
X0010740Y0180833D02*
X0010300Y0180833D01*
X0010300Y0195220D02*
X0203550Y0195220D01*
X0203550Y0196818D02*
X0010300Y0196818D01*
X0102988Y0017784D02*
X0104602Y0016170D01*
D19*
X0075429Y0033296D03*
X0067555Y0037233D03*
X0075429Y0052981D03*
X0075429Y0064792D03*
X0102988Y0096288D03*
X0106925Y0114005D03*
X0102988Y0159280D03*
X0106925Y0163217D03*
X0113500Y0171800D03*
X0053500Y0156800D03*
X0048933Y0129221D03*
X0031059Y0121721D03*
X0040980Y0058887D03*
X0024248Y0054950D03*
X0036059Y0041170D03*
X0028185Y0025422D03*
M02*
