G75*
%MOIN*%
%OFA0B0*%
%FSLAX25Y25*%
%IPPOS*%
%LPD*%
%AMOC8*
5,1,8,0,0,1.08239X$1,22.5*
%
%ADD10C,0.00000*%
%ADD11C,0.00600*%
%ADD12C,0.01000*%
%ADD13C,0.00500*%
%ADD14R,0.02000X0.10000*%
%ADD15R,0.10000X0.02000*%
%ADD16C,0.00400*%
%ADD17R,0.03400X0.02400*%
%ADD18R,0.02400X0.03400*%
%ADD19C,0.00700*%
%ADD20C,0.01600*%
%ADD21C,0.00800*%
D10*
X0008500Y0001800D02*
X0008500Y0198650D01*
X0205350Y0198650D01*
X0205350Y0001800D01*
X0008500Y0001800D01*
D11*
X0037283Y0038709D02*
X0044283Y0038709D01*
X0044343Y0038711D01*
X0044404Y0038716D01*
X0044463Y0038725D01*
X0044522Y0038738D01*
X0044581Y0038754D01*
X0044638Y0038774D01*
X0044693Y0038797D01*
X0044748Y0038824D01*
X0044800Y0038853D01*
X0044851Y0038886D01*
X0044900Y0038922D01*
X0044946Y0038960D01*
X0044990Y0039002D01*
X0045032Y0039046D01*
X0045070Y0039092D01*
X0045106Y0039141D01*
X0045139Y0039192D01*
X0045168Y0039244D01*
X0045195Y0039299D01*
X0045218Y0039354D01*
X0045238Y0039411D01*
X0045254Y0039470D01*
X0045267Y0039529D01*
X0045276Y0039588D01*
X0045281Y0039649D01*
X0045283Y0039709D01*
X0045283Y0041209D01*
X0044783Y0041709D01*
X0044783Y0060709D01*
X0045283Y0061209D01*
X0045283Y0062709D01*
X0045281Y0062769D01*
X0045276Y0062830D01*
X0045267Y0062889D01*
X0045254Y0062948D01*
X0045238Y0063007D01*
X0045218Y0063064D01*
X0045195Y0063119D01*
X0045168Y0063174D01*
X0045139Y0063226D01*
X0045106Y0063277D01*
X0045070Y0063326D01*
X0045032Y0063372D01*
X0044990Y0063416D01*
X0044946Y0063458D01*
X0044900Y0063496D01*
X0044851Y0063532D01*
X0044800Y0063565D01*
X0044748Y0063594D01*
X0044693Y0063621D01*
X0044638Y0063644D01*
X0044581Y0063664D01*
X0044522Y0063680D01*
X0044463Y0063693D01*
X0044404Y0063702D01*
X0044343Y0063707D01*
X0044283Y0063709D01*
X0037283Y0063709D01*
X0037223Y0063707D01*
X0037162Y0063702D01*
X0037103Y0063693D01*
X0037044Y0063680D01*
X0036985Y0063664D01*
X0036928Y0063644D01*
X0036873Y0063621D01*
X0036818Y0063594D01*
X0036766Y0063565D01*
X0036715Y0063532D01*
X0036666Y0063496D01*
X0036620Y0063458D01*
X0036576Y0063416D01*
X0036534Y0063372D01*
X0036496Y0063326D01*
X0036460Y0063277D01*
X0036427Y0063226D01*
X0036398Y0063174D01*
X0036371Y0063119D01*
X0036348Y0063064D01*
X0036328Y0063007D01*
X0036312Y0062948D01*
X0036299Y0062889D01*
X0036290Y0062830D01*
X0036285Y0062769D01*
X0036283Y0062709D01*
X0036283Y0061209D01*
X0036783Y0060709D01*
X0036783Y0041709D01*
X0036283Y0041209D01*
X0036283Y0039709D01*
X0036285Y0039649D01*
X0036290Y0039588D01*
X0036299Y0039529D01*
X0036312Y0039470D01*
X0036328Y0039411D01*
X0036348Y0039354D01*
X0036371Y0039299D01*
X0036398Y0039244D01*
X0036427Y0039192D01*
X0036460Y0039141D01*
X0036496Y0039092D01*
X0036534Y0039046D01*
X0036576Y0039002D01*
X0036620Y0038960D01*
X0036666Y0038922D01*
X0036715Y0038886D01*
X0036766Y0038853D01*
X0036818Y0038824D01*
X0036873Y0038797D01*
X0036928Y0038774D01*
X0036985Y0038754D01*
X0037044Y0038738D01*
X0037103Y0038725D01*
X0037162Y0038716D01*
X0037223Y0038711D01*
X0037283Y0038709D01*
X0051047Y0039513D02*
X0051047Y0041013D01*
X0051547Y0041513D01*
X0051547Y0060513D01*
X0051047Y0061013D01*
X0051047Y0062513D01*
X0051049Y0062573D01*
X0051054Y0062634D01*
X0051063Y0062693D01*
X0051076Y0062752D01*
X0051092Y0062811D01*
X0051112Y0062868D01*
X0051135Y0062923D01*
X0051162Y0062978D01*
X0051191Y0063030D01*
X0051224Y0063081D01*
X0051260Y0063130D01*
X0051298Y0063176D01*
X0051340Y0063220D01*
X0051384Y0063262D01*
X0051430Y0063300D01*
X0051479Y0063336D01*
X0051530Y0063369D01*
X0051582Y0063398D01*
X0051637Y0063425D01*
X0051692Y0063448D01*
X0051749Y0063468D01*
X0051808Y0063484D01*
X0051867Y0063497D01*
X0051926Y0063506D01*
X0051987Y0063511D01*
X0052047Y0063513D01*
X0059047Y0063513D01*
X0059107Y0063511D01*
X0059168Y0063506D01*
X0059227Y0063497D01*
X0059286Y0063484D01*
X0059345Y0063468D01*
X0059402Y0063448D01*
X0059457Y0063425D01*
X0059512Y0063398D01*
X0059564Y0063369D01*
X0059615Y0063336D01*
X0059664Y0063300D01*
X0059710Y0063262D01*
X0059754Y0063220D01*
X0059796Y0063176D01*
X0059834Y0063130D01*
X0059870Y0063081D01*
X0059903Y0063030D01*
X0059932Y0062978D01*
X0059959Y0062923D01*
X0059982Y0062868D01*
X0060002Y0062811D01*
X0060018Y0062752D01*
X0060031Y0062693D01*
X0060040Y0062634D01*
X0060045Y0062573D01*
X0060047Y0062513D01*
X0060047Y0061013D01*
X0059547Y0060513D01*
X0059547Y0041513D01*
X0060047Y0041013D01*
X0060047Y0039513D01*
X0060045Y0039453D01*
X0060040Y0039392D01*
X0060031Y0039333D01*
X0060018Y0039274D01*
X0060002Y0039215D01*
X0059982Y0039158D01*
X0059959Y0039103D01*
X0059932Y0039048D01*
X0059903Y0038996D01*
X0059870Y0038945D01*
X0059834Y0038896D01*
X0059796Y0038850D01*
X0059754Y0038806D01*
X0059710Y0038764D01*
X0059664Y0038726D01*
X0059615Y0038690D01*
X0059564Y0038657D01*
X0059512Y0038628D01*
X0059457Y0038601D01*
X0059402Y0038578D01*
X0059345Y0038558D01*
X0059286Y0038542D01*
X0059227Y0038529D01*
X0059168Y0038520D01*
X0059107Y0038515D01*
X0059047Y0038513D01*
X0052047Y0038513D01*
X0051987Y0038515D01*
X0051926Y0038520D01*
X0051867Y0038529D01*
X0051808Y0038542D01*
X0051749Y0038558D01*
X0051692Y0038578D01*
X0051637Y0038601D01*
X0051582Y0038628D01*
X0051530Y0038657D01*
X0051479Y0038690D01*
X0051430Y0038726D01*
X0051384Y0038764D01*
X0051340Y0038806D01*
X0051298Y0038850D01*
X0051260Y0038896D01*
X0051224Y0038945D01*
X0051191Y0038996D01*
X0051162Y0039048D01*
X0051135Y0039103D01*
X0051112Y0039158D01*
X0051092Y0039215D01*
X0051076Y0039274D01*
X0051063Y0039333D01*
X0051054Y0039392D01*
X0051049Y0039453D01*
X0051047Y0039513D01*
X0061886Y0050524D02*
X0061886Y0067524D01*
X0061888Y0067584D01*
X0061893Y0067645D01*
X0061902Y0067704D01*
X0061915Y0067763D01*
X0061931Y0067822D01*
X0061951Y0067879D01*
X0061974Y0067934D01*
X0062001Y0067989D01*
X0062030Y0068041D01*
X0062063Y0068092D01*
X0062099Y0068141D01*
X0062137Y0068187D01*
X0062179Y0068231D01*
X0062223Y0068273D01*
X0062269Y0068311D01*
X0062318Y0068347D01*
X0062369Y0068380D01*
X0062421Y0068409D01*
X0062476Y0068436D01*
X0062531Y0068459D01*
X0062588Y0068479D01*
X0062647Y0068495D01*
X0062706Y0068508D01*
X0062765Y0068517D01*
X0062826Y0068522D01*
X0062886Y0068524D01*
X0070886Y0068524D01*
X0070946Y0068522D01*
X0071007Y0068517D01*
X0071066Y0068508D01*
X0071125Y0068495D01*
X0071184Y0068479D01*
X0071241Y0068459D01*
X0071296Y0068436D01*
X0071351Y0068409D01*
X0071403Y0068380D01*
X0071454Y0068347D01*
X0071503Y0068311D01*
X0071549Y0068273D01*
X0071593Y0068231D01*
X0071635Y0068187D01*
X0071673Y0068141D01*
X0071709Y0068092D01*
X0071742Y0068041D01*
X0071771Y0067989D01*
X0071798Y0067934D01*
X0071821Y0067879D01*
X0071841Y0067822D01*
X0071857Y0067763D01*
X0071870Y0067704D01*
X0071879Y0067645D01*
X0071884Y0067584D01*
X0071886Y0067524D01*
X0071886Y0050524D01*
X0071884Y0050464D01*
X0071879Y0050403D01*
X0071870Y0050344D01*
X0071857Y0050285D01*
X0071841Y0050226D01*
X0071821Y0050169D01*
X0071798Y0050114D01*
X0071771Y0050059D01*
X0071742Y0050007D01*
X0071709Y0049956D01*
X0071673Y0049907D01*
X0071635Y0049861D01*
X0071593Y0049817D01*
X0071549Y0049775D01*
X0071503Y0049737D01*
X0071454Y0049701D01*
X0071403Y0049668D01*
X0071351Y0049639D01*
X0071296Y0049612D01*
X0071241Y0049589D01*
X0071184Y0049569D01*
X0071125Y0049553D01*
X0071066Y0049540D01*
X0071007Y0049531D01*
X0070946Y0049526D01*
X0070886Y0049524D01*
X0062886Y0049524D01*
X0062826Y0049526D01*
X0062765Y0049531D01*
X0062706Y0049540D01*
X0062647Y0049553D01*
X0062588Y0049569D01*
X0062531Y0049589D01*
X0062476Y0049612D01*
X0062421Y0049639D01*
X0062369Y0049668D01*
X0062318Y0049701D01*
X0062269Y0049737D01*
X0062223Y0049775D01*
X0062179Y0049817D01*
X0062137Y0049861D01*
X0062099Y0049907D01*
X0062063Y0049956D01*
X0062030Y0050007D01*
X0062001Y0050059D01*
X0061974Y0050114D01*
X0061951Y0050169D01*
X0061931Y0050226D01*
X0061915Y0050285D01*
X0061902Y0050344D01*
X0061893Y0050403D01*
X0061888Y0050464D01*
X0061886Y0050524D01*
X0066886Y0057524D02*
X0066886Y0058024D01*
X0066886Y0060024D02*
X0066886Y0060524D01*
X0097319Y0029241D02*
X0097319Y0168741D01*
X0097319Y0169241D02*
X0102319Y0169241D01*
X0102321Y0169101D01*
X0102327Y0168961D01*
X0102337Y0168821D01*
X0102350Y0168681D01*
X0102368Y0168542D01*
X0102390Y0168403D01*
X0102415Y0168266D01*
X0102444Y0168128D01*
X0102477Y0167992D01*
X0102514Y0167857D01*
X0102555Y0167723D01*
X0102600Y0167590D01*
X0102648Y0167458D01*
X0102700Y0167328D01*
X0102755Y0167199D01*
X0102814Y0167072D01*
X0102877Y0166946D01*
X0102943Y0166822D01*
X0103012Y0166701D01*
X0103085Y0166581D01*
X0103162Y0166463D01*
X0103241Y0166348D01*
X0103324Y0166234D01*
X0103410Y0166124D01*
X0103499Y0166015D01*
X0103591Y0165909D01*
X0103686Y0165806D01*
X0103783Y0165705D01*
X0103884Y0165608D01*
X0103987Y0165513D01*
X0104093Y0165421D01*
X0104202Y0165332D01*
X0104312Y0165246D01*
X0104426Y0165163D01*
X0104541Y0165084D01*
X0104659Y0165007D01*
X0104779Y0164934D01*
X0104900Y0164865D01*
X0105024Y0164799D01*
X0105150Y0164736D01*
X0105277Y0164677D01*
X0105406Y0164622D01*
X0105536Y0164570D01*
X0105668Y0164522D01*
X0105801Y0164477D01*
X0105935Y0164436D01*
X0106070Y0164399D01*
X0106206Y0164366D01*
X0106344Y0164337D01*
X0106481Y0164312D01*
X0106620Y0164290D01*
X0106759Y0164272D01*
X0106899Y0164259D01*
X0107039Y0164249D01*
X0107179Y0164243D01*
X0107319Y0164241D01*
X0107459Y0164243D01*
X0107599Y0164249D01*
X0107739Y0164259D01*
X0107879Y0164272D01*
X0108018Y0164290D01*
X0108157Y0164312D01*
X0108294Y0164337D01*
X0108432Y0164366D01*
X0108568Y0164399D01*
X0108703Y0164436D01*
X0108837Y0164477D01*
X0108970Y0164522D01*
X0109102Y0164570D01*
X0109232Y0164622D01*
X0109361Y0164677D01*
X0109488Y0164736D01*
X0109614Y0164799D01*
X0109738Y0164865D01*
X0109859Y0164934D01*
X0109979Y0165007D01*
X0110097Y0165084D01*
X0110212Y0165163D01*
X0110326Y0165246D01*
X0110436Y0165332D01*
X0110545Y0165421D01*
X0110651Y0165513D01*
X0110754Y0165608D01*
X0110855Y0165705D01*
X0110952Y0165806D01*
X0111047Y0165909D01*
X0111139Y0166015D01*
X0111228Y0166124D01*
X0111314Y0166234D01*
X0111397Y0166348D01*
X0111476Y0166463D01*
X0111553Y0166581D01*
X0111626Y0166701D01*
X0111695Y0166822D01*
X0111761Y0166946D01*
X0111824Y0167072D01*
X0111883Y0167199D01*
X0111938Y0167328D01*
X0111990Y0167458D01*
X0112038Y0167590D01*
X0112083Y0167723D01*
X0112124Y0167857D01*
X0112161Y0167992D01*
X0112194Y0168128D01*
X0112223Y0168266D01*
X0112248Y0168403D01*
X0112270Y0168542D01*
X0112288Y0168681D01*
X0112301Y0168821D01*
X0112311Y0168961D01*
X0112317Y0169101D01*
X0112319Y0169241D01*
X0117319Y0169241D01*
X0117319Y0029241D01*
X0097319Y0029241D01*
X0109602Y0022170D02*
X0109756Y0022168D01*
X0109910Y0022162D01*
X0110064Y0022152D01*
X0110218Y0022138D01*
X0110371Y0022121D01*
X0110523Y0022099D01*
X0110675Y0022073D01*
X0110827Y0022044D01*
X0110977Y0022010D01*
X0111127Y0021973D01*
X0111275Y0021932D01*
X0111423Y0021887D01*
X0111569Y0021838D01*
X0111714Y0021786D01*
X0111857Y0021730D01*
X0112000Y0021670D01*
X0112140Y0021607D01*
X0112279Y0021540D01*
X0112416Y0021469D01*
X0112551Y0021395D01*
X0112684Y0021318D01*
X0112816Y0021237D01*
X0112945Y0021153D01*
X0113072Y0021065D01*
X0113196Y0020974D01*
X0113318Y0020881D01*
X0113438Y0020783D01*
X0113555Y0020683D01*
X0113670Y0020580D01*
X0113782Y0020474D01*
X0113891Y0020366D01*
X0113997Y0020254D01*
X0114101Y0020140D01*
X0114201Y0020023D01*
X0114299Y0019904D01*
X0114393Y0019782D01*
X0114484Y0019657D01*
X0109602Y0010170D02*
X0109450Y0010172D01*
X0109299Y0010178D01*
X0109148Y0010187D01*
X0108996Y0010201D01*
X0108846Y0010218D01*
X0108696Y0010239D01*
X0108546Y0010264D01*
X0108397Y0010292D01*
X0108249Y0010325D01*
X0108102Y0010361D01*
X0107955Y0010400D01*
X0107810Y0010444D01*
X0107666Y0010491D01*
X0107523Y0010542D01*
X0107382Y0010596D01*
X0107241Y0010654D01*
X0107103Y0010715D01*
X0106966Y0010780D01*
X0106830Y0010849D01*
X0106697Y0010920D01*
X0106565Y0010995D01*
X0106435Y0011074D01*
X0106308Y0011155D01*
X0106182Y0011240D01*
X0106058Y0011328D01*
X0105937Y0011419D01*
X0105818Y0011513D01*
X0105702Y0011611D01*
X0105588Y0011711D01*
X0105476Y0011813D01*
X0105368Y0011919D01*
X0105262Y0012027D01*
X0105158Y0012138D01*
X0105058Y0012252D01*
X0104960Y0012368D01*
X0104866Y0012487D01*
X0109602Y0010170D02*
X0109754Y0010172D01*
X0109905Y0010178D01*
X0110056Y0010187D01*
X0110208Y0010201D01*
X0110358Y0010218D01*
X0110508Y0010239D01*
X0110658Y0010264D01*
X0110807Y0010292D01*
X0110955Y0010325D01*
X0111102Y0010361D01*
X0111249Y0010400D01*
X0111394Y0010444D01*
X0111538Y0010491D01*
X0111681Y0010542D01*
X0111822Y0010596D01*
X0111963Y0010654D01*
X0112101Y0010715D01*
X0112238Y0010780D01*
X0112374Y0010849D01*
X0112507Y0010920D01*
X0112639Y0010995D01*
X0112769Y0011074D01*
X0112896Y0011155D01*
X0113022Y0011240D01*
X0113146Y0011328D01*
X0113267Y0011419D01*
X0113386Y0011513D01*
X0113502Y0011611D01*
X0113616Y0011711D01*
X0113728Y0011813D01*
X0113836Y0011919D01*
X0113942Y0012027D01*
X0114046Y0012138D01*
X0114146Y0012252D01*
X0114244Y0012368D01*
X0114338Y0012487D01*
X0109602Y0022170D02*
X0109452Y0022168D01*
X0109301Y0022162D01*
X0109151Y0022153D01*
X0109002Y0022140D01*
X0108852Y0022123D01*
X0108703Y0022102D01*
X0108555Y0022078D01*
X0108407Y0022050D01*
X0108260Y0022018D01*
X0108114Y0021983D01*
X0107969Y0021943D01*
X0107825Y0021901D01*
X0107682Y0021854D01*
X0107540Y0021804D01*
X0107399Y0021751D01*
X0107260Y0021694D01*
X0107122Y0021634D01*
X0106986Y0021570D01*
X0106852Y0021503D01*
X0106719Y0021432D01*
X0106588Y0021358D01*
X0106459Y0021281D01*
X0106332Y0021200D01*
X0106207Y0021117D01*
X0106084Y0021030D01*
X0105963Y0020941D01*
X0105845Y0020848D01*
X0105729Y0020752D01*
X0105615Y0020654D01*
X0105504Y0020553D01*
X0105395Y0020448D01*
X0105290Y0020342D01*
X0105186Y0020232D01*
X0105086Y0020120D01*
X0104988Y0020006D01*
X0104894Y0019889D01*
X0104802Y0019770D01*
X0135961Y0019867D02*
X0135961Y0012867D01*
X0135963Y0012807D01*
X0135968Y0012746D01*
X0135977Y0012687D01*
X0135990Y0012628D01*
X0136006Y0012569D01*
X0136026Y0012512D01*
X0136049Y0012457D01*
X0136076Y0012402D01*
X0136105Y0012350D01*
X0136138Y0012299D01*
X0136174Y0012250D01*
X0136212Y0012204D01*
X0136254Y0012160D01*
X0136298Y0012118D01*
X0136344Y0012080D01*
X0136393Y0012044D01*
X0136444Y0012011D01*
X0136496Y0011982D01*
X0136551Y0011955D01*
X0136606Y0011932D01*
X0136663Y0011912D01*
X0136722Y0011896D01*
X0136781Y0011883D01*
X0136840Y0011874D01*
X0136901Y0011869D01*
X0136961Y0011867D01*
X0138461Y0011867D01*
X0138961Y0012367D01*
X0157961Y0012367D01*
X0158461Y0011867D01*
X0159961Y0011867D01*
X0160021Y0011869D01*
X0160082Y0011874D01*
X0160141Y0011883D01*
X0160200Y0011896D01*
X0160259Y0011912D01*
X0160316Y0011932D01*
X0160371Y0011955D01*
X0160426Y0011982D01*
X0160478Y0012011D01*
X0160529Y0012044D01*
X0160578Y0012080D01*
X0160624Y0012118D01*
X0160668Y0012160D01*
X0160710Y0012204D01*
X0160748Y0012250D01*
X0160784Y0012299D01*
X0160817Y0012350D01*
X0160846Y0012402D01*
X0160873Y0012457D01*
X0160896Y0012512D01*
X0160916Y0012569D01*
X0160932Y0012628D01*
X0160945Y0012687D01*
X0160954Y0012746D01*
X0160959Y0012807D01*
X0160961Y0012867D01*
X0160961Y0019867D01*
X0160959Y0019927D01*
X0160954Y0019988D01*
X0160945Y0020047D01*
X0160932Y0020106D01*
X0160916Y0020165D01*
X0160896Y0020222D01*
X0160873Y0020277D01*
X0160846Y0020332D01*
X0160817Y0020384D01*
X0160784Y0020435D01*
X0160748Y0020484D01*
X0160710Y0020530D01*
X0160668Y0020574D01*
X0160624Y0020616D01*
X0160578Y0020654D01*
X0160529Y0020690D01*
X0160478Y0020723D01*
X0160426Y0020752D01*
X0160371Y0020779D01*
X0160316Y0020802D01*
X0160259Y0020822D01*
X0160200Y0020838D01*
X0160141Y0020851D01*
X0160082Y0020860D01*
X0160021Y0020865D01*
X0159961Y0020867D01*
X0158461Y0020867D01*
X0157961Y0020367D01*
X0138961Y0020367D01*
X0138461Y0020867D01*
X0136961Y0020867D01*
X0136901Y0020865D01*
X0136840Y0020860D01*
X0136781Y0020851D01*
X0136722Y0020838D01*
X0136663Y0020822D01*
X0136606Y0020802D01*
X0136551Y0020779D01*
X0136496Y0020752D01*
X0136444Y0020723D01*
X0136393Y0020690D01*
X0136344Y0020654D01*
X0136298Y0020616D01*
X0136254Y0020574D01*
X0136212Y0020530D01*
X0136174Y0020484D01*
X0136138Y0020435D01*
X0136105Y0020384D01*
X0136076Y0020332D01*
X0136049Y0020277D01*
X0136026Y0020222D01*
X0136006Y0020165D01*
X0135990Y0020106D01*
X0135977Y0020047D01*
X0135968Y0019988D01*
X0135963Y0019927D01*
X0135961Y0019867D01*
X0133654Y0074938D02*
X0130654Y0077938D01*
X0130654Y0090938D01*
X0133654Y0093938D01*
X0158154Y0093938D01*
X0158230Y0093936D01*
X0158306Y0093930D01*
X0158381Y0093921D01*
X0158456Y0093907D01*
X0158530Y0093890D01*
X0158603Y0093869D01*
X0158675Y0093845D01*
X0158746Y0093816D01*
X0158815Y0093785D01*
X0158882Y0093750D01*
X0158947Y0093711D01*
X0159011Y0093669D01*
X0159072Y0093624D01*
X0159131Y0093576D01*
X0159187Y0093525D01*
X0159241Y0093471D01*
X0159292Y0093415D01*
X0159340Y0093356D01*
X0159385Y0093295D01*
X0159427Y0093231D01*
X0159466Y0093166D01*
X0159501Y0093099D01*
X0159532Y0093030D01*
X0159561Y0092959D01*
X0159585Y0092887D01*
X0159606Y0092814D01*
X0159623Y0092740D01*
X0159637Y0092665D01*
X0159646Y0092590D01*
X0159652Y0092514D01*
X0159654Y0092438D01*
X0159654Y0076438D01*
X0159652Y0076362D01*
X0159646Y0076286D01*
X0159637Y0076211D01*
X0159623Y0076136D01*
X0159606Y0076062D01*
X0159585Y0075989D01*
X0159561Y0075917D01*
X0159532Y0075846D01*
X0159501Y0075777D01*
X0159466Y0075710D01*
X0159427Y0075645D01*
X0159385Y0075581D01*
X0159340Y0075520D01*
X0159292Y0075461D01*
X0159241Y0075405D01*
X0159187Y0075351D01*
X0159131Y0075300D01*
X0159072Y0075252D01*
X0159011Y0075207D01*
X0158947Y0075165D01*
X0158882Y0075126D01*
X0158815Y0075091D01*
X0158746Y0075060D01*
X0158675Y0075031D01*
X0158603Y0075007D01*
X0158530Y0074986D01*
X0158456Y0074969D01*
X0158381Y0074955D01*
X0158306Y0074946D01*
X0158230Y0074940D01*
X0158154Y0074938D01*
X0133654Y0074938D01*
X0142654Y0079638D02*
X0144654Y0079638D01*
X0144654Y0089238D01*
X0142654Y0089238D01*
X0142654Y0084438D01*
X0142654Y0079638D01*
X0142654Y0084438D02*
X0139154Y0084438D01*
X0138154Y0088538D02*
X0138154Y0091038D01*
X0139454Y0089838D02*
X0136854Y0089838D01*
X0147654Y0084438D02*
X0151154Y0084438D01*
X0141122Y0141119D02*
X0133122Y0141119D01*
X0133062Y0141121D01*
X0133001Y0141126D01*
X0132942Y0141135D01*
X0132883Y0141148D01*
X0132824Y0141164D01*
X0132767Y0141184D01*
X0132712Y0141207D01*
X0132657Y0141234D01*
X0132605Y0141263D01*
X0132554Y0141296D01*
X0132505Y0141332D01*
X0132459Y0141370D01*
X0132415Y0141412D01*
X0132373Y0141456D01*
X0132335Y0141502D01*
X0132299Y0141551D01*
X0132266Y0141602D01*
X0132237Y0141654D01*
X0132210Y0141709D01*
X0132187Y0141764D01*
X0132167Y0141821D01*
X0132151Y0141880D01*
X0132138Y0141939D01*
X0132129Y0141998D01*
X0132124Y0142059D01*
X0132122Y0142119D01*
X0132122Y0159119D01*
X0132124Y0159179D01*
X0132129Y0159240D01*
X0132138Y0159299D01*
X0132151Y0159358D01*
X0132167Y0159417D01*
X0132187Y0159474D01*
X0132210Y0159529D01*
X0132237Y0159584D01*
X0132266Y0159636D01*
X0132299Y0159687D01*
X0132335Y0159736D01*
X0132373Y0159782D01*
X0132415Y0159826D01*
X0132459Y0159868D01*
X0132505Y0159906D01*
X0132554Y0159942D01*
X0132605Y0159975D01*
X0132657Y0160004D01*
X0132712Y0160031D01*
X0132767Y0160054D01*
X0132824Y0160074D01*
X0132883Y0160090D01*
X0132942Y0160103D01*
X0133001Y0160112D01*
X0133062Y0160117D01*
X0133122Y0160119D01*
X0141122Y0160119D01*
X0141182Y0160117D01*
X0141243Y0160112D01*
X0141302Y0160103D01*
X0141361Y0160090D01*
X0141420Y0160074D01*
X0141477Y0160054D01*
X0141532Y0160031D01*
X0141587Y0160004D01*
X0141639Y0159975D01*
X0141690Y0159942D01*
X0141739Y0159906D01*
X0141785Y0159868D01*
X0141829Y0159826D01*
X0141871Y0159782D01*
X0141909Y0159736D01*
X0141945Y0159687D01*
X0141978Y0159636D01*
X0142007Y0159584D01*
X0142034Y0159529D01*
X0142057Y0159474D01*
X0142077Y0159417D01*
X0142093Y0159358D01*
X0142106Y0159299D01*
X0142115Y0159240D01*
X0142120Y0159179D01*
X0142122Y0159119D01*
X0142122Y0142119D01*
X0142120Y0142059D01*
X0142115Y0141998D01*
X0142106Y0141939D01*
X0142093Y0141880D01*
X0142077Y0141821D01*
X0142057Y0141764D01*
X0142034Y0141709D01*
X0142007Y0141654D01*
X0141978Y0141602D01*
X0141945Y0141551D01*
X0141909Y0141502D01*
X0141871Y0141456D01*
X0141829Y0141412D01*
X0141785Y0141370D01*
X0141739Y0141332D01*
X0141690Y0141296D01*
X0141639Y0141263D01*
X0141587Y0141234D01*
X0141532Y0141207D01*
X0141477Y0141184D01*
X0141420Y0141164D01*
X0141361Y0141148D01*
X0141302Y0141135D01*
X0141243Y0141126D01*
X0141182Y0141121D01*
X0141122Y0141119D01*
X0137122Y0149119D02*
X0137122Y0149619D01*
X0137122Y0151619D02*
X0137122Y0152119D01*
X0138976Y0166761D02*
X0155976Y0166761D01*
X0156036Y0166763D01*
X0156097Y0166768D01*
X0156156Y0166777D01*
X0156215Y0166790D01*
X0156274Y0166806D01*
X0156331Y0166826D01*
X0156386Y0166849D01*
X0156441Y0166876D01*
X0156493Y0166905D01*
X0156544Y0166938D01*
X0156593Y0166974D01*
X0156639Y0167012D01*
X0156683Y0167054D01*
X0156725Y0167098D01*
X0156763Y0167144D01*
X0156799Y0167193D01*
X0156832Y0167244D01*
X0156861Y0167296D01*
X0156888Y0167351D01*
X0156911Y0167406D01*
X0156931Y0167463D01*
X0156947Y0167522D01*
X0156960Y0167581D01*
X0156969Y0167640D01*
X0156974Y0167701D01*
X0156976Y0167761D01*
X0156976Y0175761D01*
X0156974Y0175821D01*
X0156969Y0175882D01*
X0156960Y0175941D01*
X0156947Y0176000D01*
X0156931Y0176059D01*
X0156911Y0176116D01*
X0156888Y0176171D01*
X0156861Y0176226D01*
X0156832Y0176278D01*
X0156799Y0176329D01*
X0156763Y0176378D01*
X0156725Y0176424D01*
X0156683Y0176468D01*
X0156639Y0176510D01*
X0156593Y0176548D01*
X0156544Y0176584D01*
X0156493Y0176617D01*
X0156441Y0176646D01*
X0156386Y0176673D01*
X0156331Y0176696D01*
X0156274Y0176716D01*
X0156215Y0176732D01*
X0156156Y0176745D01*
X0156097Y0176754D01*
X0156036Y0176759D01*
X0155976Y0176761D01*
X0138976Y0176761D01*
X0138916Y0176759D01*
X0138855Y0176754D01*
X0138796Y0176745D01*
X0138737Y0176732D01*
X0138678Y0176716D01*
X0138621Y0176696D01*
X0138566Y0176673D01*
X0138511Y0176646D01*
X0138459Y0176617D01*
X0138408Y0176584D01*
X0138359Y0176548D01*
X0138313Y0176510D01*
X0138269Y0176468D01*
X0138227Y0176424D01*
X0138189Y0176378D01*
X0138153Y0176329D01*
X0138120Y0176278D01*
X0138091Y0176226D01*
X0138064Y0176171D01*
X0138041Y0176116D01*
X0138021Y0176059D01*
X0138005Y0176000D01*
X0137992Y0175941D01*
X0137983Y0175882D01*
X0137978Y0175821D01*
X0137976Y0175761D01*
X0137976Y0167761D01*
X0137978Y0167701D01*
X0137983Y0167640D01*
X0137992Y0167581D01*
X0138005Y0167522D01*
X0138021Y0167463D01*
X0138041Y0167406D01*
X0138064Y0167351D01*
X0138091Y0167296D01*
X0138120Y0167244D01*
X0138153Y0167193D01*
X0138189Y0167144D01*
X0138227Y0167098D01*
X0138269Y0167054D01*
X0138313Y0167012D01*
X0138359Y0166974D01*
X0138408Y0166938D01*
X0138459Y0166905D01*
X0138511Y0166876D01*
X0138566Y0166849D01*
X0138621Y0166826D01*
X0138678Y0166806D01*
X0138737Y0166790D01*
X0138796Y0166777D01*
X0138855Y0166768D01*
X0138916Y0166763D01*
X0138976Y0166761D01*
X0145976Y0171761D02*
X0146476Y0171761D01*
X0148476Y0171761D02*
X0148976Y0171761D01*
X0155780Y0180540D02*
X0138780Y0180540D01*
X0138720Y0180542D01*
X0138659Y0180547D01*
X0138600Y0180556D01*
X0138541Y0180569D01*
X0138482Y0180585D01*
X0138425Y0180605D01*
X0138370Y0180628D01*
X0138315Y0180655D01*
X0138263Y0180684D01*
X0138212Y0180717D01*
X0138163Y0180753D01*
X0138117Y0180791D01*
X0138073Y0180833D01*
X0138031Y0180877D01*
X0137993Y0180923D01*
X0137957Y0180972D01*
X0137924Y0181023D01*
X0137895Y0181075D01*
X0137868Y0181130D01*
X0137845Y0181185D01*
X0137825Y0181242D01*
X0137809Y0181301D01*
X0137796Y0181360D01*
X0137787Y0181419D01*
X0137782Y0181480D01*
X0137780Y0181540D01*
X0137780Y0189540D01*
X0137782Y0189600D01*
X0137787Y0189661D01*
X0137796Y0189720D01*
X0137809Y0189779D01*
X0137825Y0189838D01*
X0137845Y0189895D01*
X0137868Y0189950D01*
X0137895Y0190005D01*
X0137924Y0190057D01*
X0137957Y0190108D01*
X0137993Y0190157D01*
X0138031Y0190203D01*
X0138073Y0190247D01*
X0138117Y0190289D01*
X0138163Y0190327D01*
X0138212Y0190363D01*
X0138263Y0190396D01*
X0138315Y0190425D01*
X0138370Y0190452D01*
X0138425Y0190475D01*
X0138482Y0190495D01*
X0138541Y0190511D01*
X0138600Y0190524D01*
X0138659Y0190533D01*
X0138720Y0190538D01*
X0138780Y0190540D01*
X0155780Y0190540D01*
X0155840Y0190538D01*
X0155901Y0190533D01*
X0155960Y0190524D01*
X0156019Y0190511D01*
X0156078Y0190495D01*
X0156135Y0190475D01*
X0156190Y0190452D01*
X0156245Y0190425D01*
X0156297Y0190396D01*
X0156348Y0190363D01*
X0156397Y0190327D01*
X0156443Y0190289D01*
X0156487Y0190247D01*
X0156529Y0190203D01*
X0156567Y0190157D01*
X0156603Y0190108D01*
X0156636Y0190057D01*
X0156665Y0190005D01*
X0156692Y0189950D01*
X0156715Y0189895D01*
X0156735Y0189838D01*
X0156751Y0189779D01*
X0156764Y0189720D01*
X0156773Y0189661D01*
X0156778Y0189600D01*
X0156780Y0189540D01*
X0156780Y0181540D01*
X0156778Y0181480D01*
X0156773Y0181419D01*
X0156764Y0181360D01*
X0156751Y0181301D01*
X0156735Y0181242D01*
X0156715Y0181185D01*
X0156692Y0181130D01*
X0156665Y0181075D01*
X0156636Y0181023D01*
X0156603Y0180972D01*
X0156567Y0180923D01*
X0156529Y0180877D01*
X0156487Y0180833D01*
X0156443Y0180791D01*
X0156397Y0180753D01*
X0156348Y0180717D01*
X0156297Y0180684D01*
X0156245Y0180655D01*
X0156190Y0180628D01*
X0156135Y0180605D01*
X0156078Y0180585D01*
X0156019Y0180569D01*
X0155960Y0180556D01*
X0155901Y0180547D01*
X0155840Y0180542D01*
X0155780Y0180540D01*
X0148780Y0185540D02*
X0148280Y0185540D01*
X0146280Y0185540D02*
X0145780Y0185540D01*
X0159472Y0190036D02*
X0159472Y0165536D01*
X0162472Y0162536D01*
X0175472Y0162536D01*
X0178472Y0165536D01*
X0178472Y0190036D01*
X0178470Y0190112D01*
X0178464Y0190188D01*
X0178455Y0190263D01*
X0178441Y0190338D01*
X0178424Y0190412D01*
X0178403Y0190485D01*
X0178379Y0190557D01*
X0178350Y0190628D01*
X0178319Y0190697D01*
X0178284Y0190764D01*
X0178245Y0190829D01*
X0178203Y0190893D01*
X0178158Y0190954D01*
X0178110Y0191013D01*
X0178059Y0191069D01*
X0178005Y0191123D01*
X0177949Y0191174D01*
X0177890Y0191222D01*
X0177829Y0191267D01*
X0177765Y0191309D01*
X0177700Y0191348D01*
X0177633Y0191383D01*
X0177564Y0191414D01*
X0177493Y0191443D01*
X0177421Y0191467D01*
X0177348Y0191488D01*
X0177274Y0191505D01*
X0177199Y0191519D01*
X0177124Y0191528D01*
X0177048Y0191534D01*
X0176972Y0191536D01*
X0160972Y0191536D01*
X0160896Y0191534D01*
X0160820Y0191528D01*
X0160745Y0191519D01*
X0160670Y0191505D01*
X0160596Y0191488D01*
X0160523Y0191467D01*
X0160451Y0191443D01*
X0160380Y0191414D01*
X0160311Y0191383D01*
X0160244Y0191348D01*
X0160179Y0191309D01*
X0160115Y0191267D01*
X0160054Y0191222D01*
X0159995Y0191174D01*
X0159939Y0191123D01*
X0159885Y0191069D01*
X0159834Y0191013D01*
X0159786Y0190954D01*
X0159741Y0190893D01*
X0159699Y0190829D01*
X0159660Y0190764D01*
X0159625Y0190697D01*
X0159594Y0190628D01*
X0159565Y0190557D01*
X0159541Y0190485D01*
X0159520Y0190412D01*
X0159503Y0190338D01*
X0159489Y0190263D01*
X0159480Y0190188D01*
X0159474Y0190112D01*
X0159472Y0190036D01*
X0168972Y0183036D02*
X0168972Y0179536D01*
X0168972Y0174536D02*
X0164172Y0174536D01*
X0164172Y0176536D01*
X0173772Y0176536D01*
X0173772Y0174536D01*
X0168972Y0174536D01*
X0168972Y0171036D01*
X0164872Y0170036D02*
X0162372Y0170036D01*
X0163572Y0171336D02*
X0163572Y0168736D01*
X0160272Y0157678D02*
X0160772Y0157178D01*
X0179772Y0157178D01*
X0180272Y0157678D01*
X0181772Y0157678D01*
X0181832Y0157676D01*
X0181893Y0157671D01*
X0181952Y0157662D01*
X0182011Y0157649D01*
X0182070Y0157633D01*
X0182127Y0157613D01*
X0182182Y0157590D01*
X0182237Y0157563D01*
X0182289Y0157534D01*
X0182340Y0157501D01*
X0182389Y0157465D01*
X0182435Y0157427D01*
X0182479Y0157385D01*
X0182521Y0157341D01*
X0182559Y0157295D01*
X0182595Y0157246D01*
X0182628Y0157195D01*
X0182657Y0157143D01*
X0182684Y0157088D01*
X0182707Y0157033D01*
X0182727Y0156976D01*
X0182743Y0156917D01*
X0182756Y0156858D01*
X0182765Y0156799D01*
X0182770Y0156738D01*
X0182772Y0156678D01*
X0182772Y0149678D01*
X0182770Y0149618D01*
X0182765Y0149557D01*
X0182756Y0149498D01*
X0182743Y0149439D01*
X0182727Y0149380D01*
X0182707Y0149323D01*
X0182684Y0149268D01*
X0182657Y0149213D01*
X0182628Y0149161D01*
X0182595Y0149110D01*
X0182559Y0149061D01*
X0182521Y0149015D01*
X0182479Y0148971D01*
X0182435Y0148929D01*
X0182389Y0148891D01*
X0182340Y0148855D01*
X0182289Y0148822D01*
X0182237Y0148793D01*
X0182182Y0148766D01*
X0182127Y0148743D01*
X0182070Y0148723D01*
X0182011Y0148707D01*
X0181952Y0148694D01*
X0181893Y0148685D01*
X0181832Y0148680D01*
X0181772Y0148678D01*
X0180272Y0148678D01*
X0179772Y0149178D01*
X0160772Y0149178D01*
X0160272Y0148678D01*
X0158772Y0148678D01*
X0158712Y0148680D01*
X0158651Y0148685D01*
X0158592Y0148694D01*
X0158533Y0148707D01*
X0158474Y0148723D01*
X0158417Y0148743D01*
X0158362Y0148766D01*
X0158307Y0148793D01*
X0158255Y0148822D01*
X0158204Y0148855D01*
X0158155Y0148891D01*
X0158109Y0148929D01*
X0158065Y0148971D01*
X0158023Y0149015D01*
X0157985Y0149061D01*
X0157949Y0149110D01*
X0157916Y0149161D01*
X0157887Y0149213D01*
X0157860Y0149268D01*
X0157837Y0149323D01*
X0157817Y0149380D01*
X0157801Y0149439D01*
X0157788Y0149498D01*
X0157779Y0149557D01*
X0157774Y0149618D01*
X0157772Y0149678D01*
X0157772Y0156678D01*
X0157774Y0156738D01*
X0157779Y0156799D01*
X0157788Y0156858D01*
X0157801Y0156917D01*
X0157817Y0156976D01*
X0157837Y0157033D01*
X0157860Y0157088D01*
X0157887Y0157143D01*
X0157916Y0157195D01*
X0157949Y0157246D01*
X0157985Y0157295D01*
X0158023Y0157341D01*
X0158065Y0157385D01*
X0158109Y0157427D01*
X0158155Y0157465D01*
X0158204Y0157501D01*
X0158255Y0157534D01*
X0158307Y0157563D01*
X0158362Y0157590D01*
X0158417Y0157613D01*
X0158474Y0157633D01*
X0158533Y0157649D01*
X0158592Y0157662D01*
X0158651Y0157671D01*
X0158712Y0157676D01*
X0158772Y0157678D01*
X0160272Y0157678D01*
X0184193Y0183729D02*
X0184195Y0183881D01*
X0184201Y0184032D01*
X0184210Y0184183D01*
X0184224Y0184335D01*
X0184241Y0184485D01*
X0184262Y0184635D01*
X0184287Y0184785D01*
X0184315Y0184934D01*
X0184348Y0185082D01*
X0184384Y0185229D01*
X0184423Y0185376D01*
X0184467Y0185521D01*
X0184514Y0185665D01*
X0184565Y0185808D01*
X0184619Y0185949D01*
X0184677Y0186090D01*
X0184738Y0186228D01*
X0184803Y0186365D01*
X0184872Y0186501D01*
X0184943Y0186634D01*
X0185018Y0186766D01*
X0185097Y0186896D01*
X0185178Y0187023D01*
X0185263Y0187149D01*
X0185351Y0187273D01*
X0185442Y0187394D01*
X0185536Y0187513D01*
X0185634Y0187629D01*
X0185734Y0187743D01*
X0185836Y0187855D01*
X0185942Y0187963D01*
X0186050Y0188069D01*
X0186161Y0188173D01*
X0186275Y0188273D01*
X0186391Y0188371D01*
X0186510Y0188465D01*
X0196193Y0183729D02*
X0196191Y0183575D01*
X0196185Y0183421D01*
X0196175Y0183267D01*
X0196161Y0183113D01*
X0196144Y0182960D01*
X0196122Y0182808D01*
X0196096Y0182656D01*
X0196067Y0182504D01*
X0196033Y0182354D01*
X0195996Y0182204D01*
X0195955Y0182056D01*
X0195910Y0181908D01*
X0195861Y0181762D01*
X0195809Y0181617D01*
X0195753Y0181474D01*
X0195693Y0181331D01*
X0195630Y0181191D01*
X0195563Y0181052D01*
X0195492Y0180915D01*
X0195418Y0180780D01*
X0195341Y0180647D01*
X0195260Y0180515D01*
X0195176Y0180386D01*
X0195088Y0180259D01*
X0194997Y0180135D01*
X0194904Y0180013D01*
X0194806Y0179893D01*
X0194706Y0179776D01*
X0194603Y0179661D01*
X0194497Y0179549D01*
X0194389Y0179440D01*
X0194277Y0179334D01*
X0194163Y0179230D01*
X0194046Y0179130D01*
X0193927Y0179032D01*
X0193805Y0178938D01*
X0193680Y0178847D01*
X0196193Y0183729D02*
X0196191Y0183879D01*
X0196185Y0184030D01*
X0196176Y0184180D01*
X0196163Y0184329D01*
X0196146Y0184479D01*
X0196125Y0184628D01*
X0196101Y0184776D01*
X0196073Y0184924D01*
X0196041Y0185071D01*
X0196006Y0185217D01*
X0195966Y0185362D01*
X0195924Y0185506D01*
X0195877Y0185649D01*
X0195827Y0185791D01*
X0195774Y0185932D01*
X0195717Y0186071D01*
X0195657Y0186209D01*
X0195593Y0186345D01*
X0195526Y0186479D01*
X0195455Y0186612D01*
X0195381Y0186743D01*
X0195304Y0186872D01*
X0195223Y0186999D01*
X0195140Y0187124D01*
X0195053Y0187247D01*
X0194964Y0187368D01*
X0194871Y0187486D01*
X0194775Y0187602D01*
X0194677Y0187716D01*
X0194576Y0187827D01*
X0194471Y0187936D01*
X0194365Y0188041D01*
X0194255Y0188145D01*
X0194143Y0188245D01*
X0194029Y0188343D01*
X0193912Y0188437D01*
X0193793Y0188529D01*
X0184193Y0183729D02*
X0184195Y0183577D01*
X0184201Y0183426D01*
X0184210Y0183275D01*
X0184224Y0183123D01*
X0184241Y0182973D01*
X0184262Y0182823D01*
X0184287Y0182673D01*
X0184315Y0182524D01*
X0184348Y0182376D01*
X0184384Y0182229D01*
X0184423Y0182082D01*
X0184467Y0181937D01*
X0184514Y0181793D01*
X0184565Y0181650D01*
X0184619Y0181509D01*
X0184677Y0181368D01*
X0184738Y0181230D01*
X0184803Y0181093D01*
X0184872Y0180957D01*
X0184943Y0180824D01*
X0185018Y0180692D01*
X0185097Y0180562D01*
X0185178Y0180435D01*
X0185263Y0180309D01*
X0185351Y0180185D01*
X0185442Y0180064D01*
X0185536Y0179945D01*
X0185634Y0179829D01*
X0185734Y0179715D01*
X0185836Y0179603D01*
X0185942Y0179495D01*
X0186050Y0179389D01*
X0186161Y0179285D01*
X0186275Y0179185D01*
X0186391Y0179087D01*
X0186510Y0178993D01*
X0194868Y0013505D02*
X0197003Y0013505D01*
X0198070Y0012438D01*
X0198070Y0011370D01*
X0195935Y0009235D01*
X0195935Y0008168D02*
X0195935Y0007100D01*
X0193800Y0012438D02*
X0194868Y0013505D01*
D12*
X0109603Y0024170D02*
X0109411Y0024168D01*
X0109219Y0024161D01*
X0109027Y0024149D01*
X0108835Y0024133D01*
X0108644Y0024112D01*
X0108454Y0024087D01*
X0108264Y0024057D01*
X0108075Y0024023D01*
X0107887Y0023984D01*
X0107700Y0023940D01*
X0107514Y0023892D01*
X0107329Y0023840D01*
X0107145Y0023783D01*
X0106963Y0023722D01*
X0106783Y0023656D01*
X0106604Y0023586D01*
X0106426Y0023512D01*
X0106251Y0023434D01*
X0106077Y0023351D01*
X0105906Y0023264D01*
X0105737Y0023174D01*
X0105570Y0023079D01*
X0105405Y0022980D01*
X0105242Y0022877D01*
X0105083Y0022770D01*
X0104925Y0022660D01*
X0104771Y0022546D01*
X0104619Y0022428D01*
X0104470Y0022306D01*
X0104324Y0022181D01*
X0104182Y0022053D01*
X0104042Y0021921D01*
X0103905Y0021786D01*
X0103772Y0021647D01*
X0103642Y0021506D01*
X0103516Y0021361D01*
X0103393Y0021213D01*
X0103274Y0021063D01*
X0103158Y0020909D01*
X0103046Y0020753D01*
X0102938Y0020594D01*
X0102833Y0020433D01*
X0102733Y0020269D01*
X0102637Y0020103D01*
X0102544Y0019935D01*
X0102656Y0012201D02*
X0102755Y0012032D01*
X0102859Y0011866D01*
X0102966Y0011702D01*
X0103077Y0011541D01*
X0103192Y0011383D01*
X0103311Y0011228D01*
X0103434Y0011075D01*
X0103560Y0010926D01*
X0103690Y0010780D01*
X0103824Y0010637D01*
X0103961Y0010497D01*
X0104101Y0010361D01*
X0104245Y0010228D01*
X0104392Y0010099D01*
X0104542Y0009973D01*
X0104695Y0009852D01*
X0104851Y0009733D01*
X0105010Y0009619D01*
X0105171Y0009509D01*
X0105336Y0009403D01*
X0105502Y0009300D01*
X0105672Y0009202D01*
X0105843Y0009108D01*
X0106017Y0009018D01*
X0106193Y0008933D01*
X0106371Y0008851D01*
X0106551Y0008775D01*
X0106733Y0008702D01*
X0106916Y0008634D01*
X0107101Y0008571D01*
X0107288Y0008512D01*
X0107476Y0008458D01*
X0107665Y0008408D01*
X0107855Y0008363D01*
X0108047Y0008323D01*
X0108239Y0008287D01*
X0108432Y0008256D01*
X0108626Y0008230D01*
X0108821Y0008208D01*
X0109016Y0008192D01*
X0109211Y0008180D01*
X0109407Y0008172D01*
X0109602Y0008170D01*
X0109795Y0008172D01*
X0109988Y0008179D01*
X0110180Y0008191D01*
X0110373Y0008207D01*
X0110565Y0008228D01*
X0110756Y0008254D01*
X0110946Y0008284D01*
X0111136Y0008319D01*
X0111325Y0008358D01*
X0111513Y0008402D01*
X0111700Y0008450D01*
X0111886Y0008503D01*
X0112070Y0008560D01*
X0112253Y0008622D01*
X0112434Y0008688D01*
X0112614Y0008759D01*
X0112792Y0008833D01*
X0112968Y0008912D01*
X0113142Y0008996D01*
X0113314Y0009083D01*
X0113484Y0009175D01*
X0113651Y0009271D01*
X0113817Y0009370D01*
X0113980Y0009474D01*
X0114140Y0009581D01*
X0114297Y0009693D01*
X0114452Y0009808D01*
X0114604Y0009927D01*
X0114753Y0010049D01*
X0114900Y0010175D01*
X0115043Y0010305D01*
X0115183Y0010438D01*
X0115319Y0010574D01*
X0115453Y0010714D01*
X0115582Y0010856D01*
X0115709Y0011002D01*
X0115748Y0021292D02*
X0115621Y0021440D01*
X0115491Y0021585D01*
X0115358Y0021726D01*
X0115221Y0021865D01*
X0115081Y0022000D01*
X0114937Y0022131D01*
X0114790Y0022259D01*
X0114641Y0022384D01*
X0114488Y0022505D01*
X0114333Y0022622D01*
X0114174Y0022735D01*
X0114013Y0022844D01*
X0113849Y0022949D01*
X0113683Y0023051D01*
X0113514Y0023148D01*
X0113344Y0023241D01*
X0113170Y0023330D01*
X0112995Y0023415D01*
X0112818Y0023495D01*
X0112639Y0023571D01*
X0112458Y0023643D01*
X0112275Y0023710D01*
X0112091Y0023773D01*
X0111905Y0023831D01*
X0111718Y0023885D01*
X0111530Y0023934D01*
X0111340Y0023979D01*
X0111150Y0024019D01*
X0110958Y0024054D01*
X0110766Y0024085D01*
X0110573Y0024111D01*
X0110379Y0024132D01*
X0110185Y0024149D01*
X0109991Y0024161D01*
X0109797Y0024168D01*
X0109602Y0024170D01*
X0069886Y0058024D02*
X0066886Y0058024D01*
X0063886Y0058024D01*
X0063886Y0060024D02*
X0066886Y0060024D01*
X0069886Y0060024D01*
X0134122Y0149619D02*
X0137122Y0149619D01*
X0140122Y0149619D01*
X0140122Y0151619D02*
X0137122Y0151619D01*
X0134122Y0151619D01*
X0146476Y0168761D02*
X0146476Y0171761D01*
X0146476Y0174761D01*
X0148476Y0174761D02*
X0148476Y0171761D01*
X0148476Y0168761D01*
X0148280Y0182540D02*
X0148280Y0185540D01*
X0148280Y0188540D01*
X0146280Y0188540D02*
X0146280Y0185540D01*
X0146280Y0182540D01*
X0193958Y0190788D02*
X0194126Y0190695D01*
X0194292Y0190599D01*
X0194456Y0190499D01*
X0194617Y0190394D01*
X0194776Y0190286D01*
X0194932Y0190174D01*
X0195086Y0190058D01*
X0195236Y0189939D01*
X0195384Y0189816D01*
X0195529Y0189690D01*
X0195670Y0189560D01*
X0195809Y0189427D01*
X0195944Y0189290D01*
X0196076Y0189150D01*
X0196204Y0189008D01*
X0196329Y0188862D01*
X0196451Y0188713D01*
X0196569Y0188561D01*
X0196683Y0188407D01*
X0196793Y0188249D01*
X0196900Y0188090D01*
X0197003Y0187927D01*
X0197102Y0187762D01*
X0197197Y0187595D01*
X0197287Y0187426D01*
X0197374Y0187255D01*
X0197457Y0187081D01*
X0197535Y0186906D01*
X0197609Y0186728D01*
X0197679Y0186549D01*
X0197745Y0186369D01*
X0197806Y0186187D01*
X0197863Y0186003D01*
X0197915Y0185818D01*
X0197963Y0185632D01*
X0198007Y0185445D01*
X0198046Y0185257D01*
X0198080Y0185068D01*
X0198110Y0184878D01*
X0198135Y0184688D01*
X0198156Y0184497D01*
X0198172Y0184305D01*
X0198184Y0184113D01*
X0198191Y0183921D01*
X0198193Y0183729D01*
X0186224Y0190675D02*
X0186055Y0190576D01*
X0185889Y0190472D01*
X0185725Y0190365D01*
X0185564Y0190254D01*
X0185406Y0190139D01*
X0185251Y0190020D01*
X0185098Y0189897D01*
X0184949Y0189771D01*
X0184803Y0189641D01*
X0184660Y0189507D01*
X0184520Y0189370D01*
X0184384Y0189230D01*
X0184251Y0189086D01*
X0184122Y0188939D01*
X0183996Y0188789D01*
X0183875Y0188636D01*
X0183756Y0188480D01*
X0183642Y0188321D01*
X0183532Y0188160D01*
X0183426Y0187995D01*
X0183323Y0187829D01*
X0183225Y0187659D01*
X0183131Y0187488D01*
X0183041Y0187314D01*
X0182956Y0187138D01*
X0182874Y0186960D01*
X0182798Y0186780D01*
X0182725Y0186598D01*
X0182657Y0186415D01*
X0182594Y0186230D01*
X0182535Y0186043D01*
X0182481Y0185855D01*
X0182431Y0185666D01*
X0182386Y0185476D01*
X0182346Y0185284D01*
X0182310Y0185092D01*
X0182279Y0184899D01*
X0182253Y0184705D01*
X0182231Y0184510D01*
X0182215Y0184315D01*
X0182203Y0184120D01*
X0182195Y0183924D01*
X0182193Y0183729D01*
X0182195Y0183536D01*
X0182202Y0183343D01*
X0182214Y0183151D01*
X0182230Y0182958D01*
X0182251Y0182766D01*
X0182277Y0182575D01*
X0182307Y0182385D01*
X0182342Y0182195D01*
X0182381Y0182006D01*
X0182425Y0181818D01*
X0182473Y0181631D01*
X0182526Y0181445D01*
X0182583Y0181261D01*
X0182645Y0181078D01*
X0182711Y0180897D01*
X0182782Y0180717D01*
X0182856Y0180539D01*
X0182935Y0180363D01*
X0183019Y0180189D01*
X0183106Y0180017D01*
X0183198Y0179847D01*
X0183294Y0179680D01*
X0183393Y0179514D01*
X0183497Y0179351D01*
X0183604Y0179191D01*
X0183716Y0179034D01*
X0183831Y0178879D01*
X0183950Y0178727D01*
X0184072Y0178578D01*
X0184198Y0178431D01*
X0184328Y0178288D01*
X0184461Y0178148D01*
X0184597Y0178012D01*
X0184737Y0177878D01*
X0184879Y0177749D01*
X0185025Y0177622D01*
X0195315Y0177583D02*
X0195463Y0177710D01*
X0195608Y0177840D01*
X0195749Y0177973D01*
X0195888Y0178110D01*
X0196023Y0178250D01*
X0196154Y0178394D01*
X0196282Y0178541D01*
X0196407Y0178690D01*
X0196528Y0178843D01*
X0196645Y0178998D01*
X0196758Y0179157D01*
X0196867Y0179318D01*
X0196972Y0179482D01*
X0197074Y0179648D01*
X0197171Y0179817D01*
X0197264Y0179987D01*
X0197353Y0180161D01*
X0197438Y0180336D01*
X0197518Y0180513D01*
X0197594Y0180692D01*
X0197666Y0180873D01*
X0197733Y0181056D01*
X0197796Y0181240D01*
X0197854Y0181426D01*
X0197908Y0181613D01*
X0197957Y0181801D01*
X0198002Y0181991D01*
X0198042Y0182181D01*
X0198077Y0182373D01*
X0198108Y0182565D01*
X0198134Y0182758D01*
X0198155Y0182952D01*
X0198172Y0183146D01*
X0198184Y0183340D01*
X0198191Y0183534D01*
X0198193Y0183729D01*
D13*
X0196443Y0174878D02*
X0196443Y0171875D01*
X0196443Y0173376D02*
X0191939Y0173376D01*
X0193440Y0171875D01*
X0192690Y0170274D02*
X0191939Y0169523D01*
X0191939Y0167271D01*
X0196443Y0167271D01*
X0196443Y0169523D01*
X0195692Y0170274D01*
X0192690Y0170274D01*
X0188443Y0169523D02*
X0188443Y0168022D01*
X0187692Y0167271D01*
X0186191Y0167271D01*
X0185440Y0168022D01*
X0185440Y0169523D01*
X0186191Y0170274D01*
X0186942Y0170274D01*
X0186942Y0167271D01*
X0186191Y0165670D02*
X0186942Y0164919D01*
X0186942Y0162667D01*
X0188443Y0162667D02*
X0183939Y0162667D01*
X0183939Y0164919D01*
X0184690Y0165670D01*
X0186191Y0165670D01*
X0186942Y0164169D02*
X0188443Y0165670D01*
X0191939Y0165670D02*
X0191939Y0162667D01*
X0196443Y0162667D01*
X0196443Y0165670D01*
X0194191Y0164169D02*
X0194191Y0162667D01*
X0196443Y0161066D02*
X0196443Y0158063D01*
X0191939Y0158063D01*
X0187692Y0171875D02*
X0186191Y0171875D01*
X0185440Y0172626D01*
X0185440Y0174878D01*
X0183939Y0174878D02*
X0188443Y0174878D01*
X0188443Y0172626D01*
X0187692Y0171875D01*
X0173081Y0155432D02*
X0173832Y0154681D01*
X0170830Y0151679D01*
X0171580Y0150928D01*
X0173081Y0150928D01*
X0173832Y0151679D01*
X0173832Y0154681D01*
X0173081Y0155432D02*
X0171580Y0155432D01*
X0170830Y0154681D01*
X0170830Y0151679D01*
X0169228Y0151679D02*
X0168477Y0150928D01*
X0166976Y0150928D01*
X0166226Y0151679D01*
X0164624Y0151679D02*
X0164624Y0152429D01*
X0163874Y0153180D01*
X0163123Y0153180D01*
X0163874Y0153180D02*
X0164624Y0153931D01*
X0164624Y0154681D01*
X0163874Y0155432D01*
X0162372Y0155432D01*
X0161622Y0154681D01*
X0161622Y0151679D02*
X0162372Y0150928D01*
X0163874Y0150928D01*
X0164624Y0151679D01*
X0166226Y0154681D02*
X0166976Y0155432D01*
X0168477Y0155432D01*
X0169228Y0154681D01*
X0169228Y0153931D01*
X0168477Y0153180D01*
X0169228Y0152429D01*
X0169228Y0151679D01*
X0168477Y0153180D02*
X0167727Y0153180D01*
X0166128Y0159428D02*
X0163126Y0159428D01*
X0164627Y0159428D02*
X0164627Y0163932D01*
X0163126Y0162431D01*
X0161524Y0163181D02*
X0161524Y0161680D01*
X0160774Y0160929D01*
X0158522Y0160929D01*
X0160023Y0160929D02*
X0161524Y0159428D01*
X0158522Y0159428D02*
X0158522Y0163932D01*
X0160774Y0163932D01*
X0161524Y0163181D01*
X0157843Y0165514D02*
X0154840Y0165514D01*
X0154840Y0161011D01*
X0153239Y0161011D02*
X0153239Y0164013D01*
X0154840Y0163263D02*
X0156341Y0163263D01*
X0156972Y0165786D02*
X0153969Y0165786D01*
X0153219Y0166537D01*
X0153219Y0168038D01*
X0153969Y0168789D01*
X0155471Y0170390D02*
X0155471Y0172642D01*
X0156221Y0173393D01*
X0156972Y0173393D01*
X0157722Y0172642D01*
X0157722Y0171141D01*
X0156972Y0170390D01*
X0155471Y0170390D01*
X0153969Y0171891D01*
X0153219Y0173393D01*
X0153042Y0174790D02*
X0150790Y0174790D01*
X0150039Y0175541D01*
X0150039Y0177793D01*
X0151207Y0177050D02*
X0148204Y0177050D01*
X0151207Y0180053D01*
X0151207Y0180803D01*
X0150456Y0181554D01*
X0148955Y0181554D01*
X0148204Y0180803D01*
X0146603Y0180803D02*
X0143600Y0177801D01*
X0144351Y0177050D01*
X0145852Y0177050D01*
X0146603Y0177801D01*
X0146603Y0180803D01*
X0145852Y0181554D01*
X0144351Y0181554D01*
X0143600Y0180803D01*
X0143600Y0177801D01*
X0144081Y0178011D02*
X0143330Y0178761D01*
X0144081Y0178011D02*
X0145582Y0178011D01*
X0146333Y0178761D01*
X0146333Y0179512D01*
X0145582Y0180263D01*
X0144832Y0180263D01*
X0145582Y0180263D02*
X0146333Y0181013D01*
X0146333Y0181764D01*
X0145582Y0182514D01*
X0144081Y0182514D01*
X0143330Y0181764D01*
X0141999Y0181554D02*
X0141999Y0180803D01*
X0138996Y0177801D01*
X0138996Y0177050D01*
X0139477Y0178011D02*
X0140978Y0178011D01*
X0141729Y0178761D01*
X0141532Y0178543D02*
X0138530Y0175541D01*
X0139280Y0174790D01*
X0140781Y0174790D01*
X0141532Y0175541D01*
X0141532Y0178543D01*
X0140781Y0179294D01*
X0139280Y0179294D01*
X0138530Y0178543D01*
X0138530Y0175541D01*
X0137395Y0177050D02*
X0134392Y0177050D01*
X0135894Y0177050D02*
X0135894Y0181554D01*
X0134392Y0180053D01*
X0132791Y0180803D02*
X0132791Y0179302D01*
X0132040Y0178551D01*
X0129789Y0178551D01*
X0129789Y0177050D02*
X0129789Y0181554D01*
X0132040Y0181554D01*
X0132791Y0180803D01*
X0132040Y0184550D02*
X0130539Y0184550D01*
X0129789Y0185301D01*
X0128187Y0185301D02*
X0127437Y0184550D01*
X0125935Y0184550D01*
X0125185Y0185301D01*
X0123583Y0185301D02*
X0122833Y0184550D01*
X0121331Y0184550D01*
X0120581Y0185301D01*
X0120581Y0189054D01*
X0123583Y0189054D02*
X0123583Y0185301D01*
X0125185Y0187553D02*
X0125185Y0188303D01*
X0125935Y0189054D01*
X0127437Y0189054D01*
X0128187Y0188303D01*
X0129789Y0188303D02*
X0130539Y0189054D01*
X0132040Y0189054D01*
X0132791Y0188303D01*
X0132791Y0187553D01*
X0132040Y0186802D01*
X0132791Y0186051D01*
X0132791Y0185301D01*
X0132040Y0184550D01*
X0132040Y0186802D02*
X0131290Y0186802D01*
X0128187Y0186051D02*
X0127437Y0186802D01*
X0125935Y0186802D01*
X0125185Y0187553D01*
X0126686Y0189804D02*
X0126686Y0183799D01*
X0128187Y0185301D02*
X0128187Y0186051D01*
X0127437Y0181554D02*
X0125935Y0181554D01*
X0125185Y0180803D01*
X0125185Y0177801D01*
X0125935Y0177050D01*
X0127437Y0177050D01*
X0128187Y0177801D01*
X0128187Y0180803D02*
X0127437Y0181554D01*
X0123583Y0181554D02*
X0123583Y0177050D01*
X0120581Y0177050D02*
X0120581Y0181554D01*
X0122082Y0180053D01*
X0123583Y0181554D01*
X0118283Y0180800D02*
X0116704Y0180800D01*
X0116077Y0175300D02*
X0099585Y0175300D01*
X0098958Y0180800D02*
X0097378Y0180800D01*
X0106704Y0180800D02*
X0108958Y0180800D01*
X0099585Y0175300D02*
X0099432Y0175499D01*
X0099284Y0175701D01*
X0099141Y0175906D01*
X0099003Y0176115D01*
X0098870Y0176327D01*
X0098742Y0176542D01*
X0098620Y0176760D01*
X0098502Y0176981D01*
X0098390Y0177205D01*
X0098283Y0177431D01*
X0098182Y0177660D01*
X0098086Y0177891D01*
X0097995Y0178125D01*
X0097910Y0178360D01*
X0097831Y0178598D01*
X0097758Y0178837D01*
X0097690Y0179078D01*
X0097628Y0179320D01*
X0097572Y0179564D01*
X0097521Y0179810D01*
X0097477Y0180056D01*
X0097438Y0180303D01*
X0097406Y0180551D01*
X0097379Y0180800D01*
X0110927Y0191833D02*
X0111169Y0191755D01*
X0111409Y0191671D01*
X0111647Y0191582D01*
X0111883Y0191486D01*
X0112117Y0191385D01*
X0112348Y0191279D01*
X0112576Y0191166D01*
X0112802Y0191049D01*
X0113025Y0190926D01*
X0113244Y0190797D01*
X0113461Y0190663D01*
X0113674Y0190524D01*
X0113884Y0190380D01*
X0114090Y0190231D01*
X0114292Y0190077D01*
X0114491Y0189918D01*
X0114686Y0189754D01*
X0114877Y0189585D01*
X0115063Y0189412D01*
X0115246Y0189235D01*
X0115424Y0189053D01*
X0115597Y0188867D01*
X0115766Y0188676D01*
X0115930Y0188482D01*
X0116090Y0188284D01*
X0116245Y0188082D01*
X0116394Y0187876D01*
X0116539Y0187667D01*
X0116679Y0187454D01*
X0116813Y0187238D01*
X0116942Y0187018D01*
X0117066Y0186796D01*
X0117185Y0186571D01*
X0117297Y0186343D01*
X0117405Y0186112D01*
X0117506Y0185879D01*
X0117602Y0185643D01*
X0117693Y0185405D01*
X0117777Y0185165D01*
X0117856Y0184923D01*
X0117929Y0184679D01*
X0117995Y0184433D01*
X0118056Y0184186D01*
X0118111Y0183938D01*
X0118160Y0183688D01*
X0118203Y0183437D01*
X0118239Y0183185D01*
X0118270Y0182933D01*
X0118294Y0182679D01*
X0118312Y0182426D01*
X0118324Y0182171D01*
X0118330Y0181917D01*
X0118330Y0181662D01*
X0118324Y0181408D01*
X0118311Y0181154D01*
X0118292Y0180900D01*
X0118267Y0180647D01*
X0118236Y0180394D01*
X0118199Y0180142D01*
X0118156Y0179892D01*
X0118107Y0179642D01*
X0118052Y0179393D01*
X0117990Y0179146D01*
X0117923Y0178901D01*
X0117850Y0178657D01*
X0117771Y0178415D01*
X0117686Y0178176D01*
X0117595Y0177938D01*
X0117498Y0177702D01*
X0117396Y0177469D01*
X0117288Y0177239D01*
X0117175Y0177011D01*
X0117056Y0176786D01*
X0116932Y0176564D01*
X0116803Y0176345D01*
X0116668Y0176129D01*
X0116528Y0175916D01*
X0116382Y0175707D01*
X0116232Y0175502D01*
X0116077Y0175300D01*
X0097379Y0180800D02*
X0097357Y0181055D01*
X0097342Y0181311D01*
X0097334Y0181567D01*
X0097331Y0181824D01*
X0097335Y0182080D01*
X0097345Y0182336D01*
X0097361Y0182592D01*
X0097383Y0182847D01*
X0097412Y0183102D01*
X0097447Y0183356D01*
X0097488Y0183609D01*
X0097535Y0183861D01*
X0097589Y0184111D01*
X0097648Y0184360D01*
X0097714Y0184608D01*
X0097785Y0184854D01*
X0097863Y0185099D01*
X0097946Y0185341D01*
X0098035Y0185581D01*
X0098131Y0185819D01*
X0098232Y0186055D01*
X0098338Y0186288D01*
X0098451Y0186518D01*
X0098569Y0186746D01*
X0098692Y0186970D01*
X0098821Y0187192D01*
X0098955Y0187410D01*
X0099095Y0187625D01*
X0099240Y0187836D01*
X0099390Y0188044D01*
X0099544Y0188248D01*
X0099704Y0188449D01*
X0099869Y0188645D01*
X0100038Y0188837D01*
X0100213Y0189026D01*
X0100391Y0189209D01*
X0100574Y0189389D01*
X0100762Y0189564D01*
X0100953Y0189734D01*
X0101149Y0189899D01*
X0101349Y0190060D01*
X0101552Y0190216D01*
X0101759Y0190366D01*
X0101970Y0190512D01*
X0102185Y0190653D01*
X0102402Y0190788D01*
X0102623Y0190918D01*
X0102847Y0191042D01*
X0103074Y0191161D01*
X0103304Y0191274D01*
X0103537Y0191382D01*
X0103772Y0191484D01*
X0104010Y0191580D01*
X0104249Y0191670D01*
X0104491Y0191755D01*
X0104735Y0191833D01*
X0138530Y0192541D02*
X0139280Y0191790D01*
X0140781Y0191790D01*
X0141532Y0192541D01*
X0143133Y0191790D02*
X0146136Y0191790D01*
X0144635Y0191790D02*
X0144635Y0196294D01*
X0143133Y0194793D01*
X0141532Y0195543D02*
X0140781Y0196294D01*
X0139280Y0196294D01*
X0138530Y0195543D01*
X0138530Y0192541D01*
X0139477Y0182514D02*
X0138726Y0181764D01*
X0138726Y0178761D01*
X0139477Y0178011D01*
X0138996Y0181554D02*
X0141999Y0181554D01*
X0141729Y0181764D02*
X0140978Y0182514D01*
X0139477Y0182514D01*
X0145435Y0177793D02*
X0146937Y0179294D01*
X0146937Y0174790D01*
X0148438Y0174790D02*
X0145435Y0174790D01*
X0143884Y0174790D02*
X0143133Y0174790D01*
X0143133Y0175541D01*
X0143884Y0175541D01*
X0143884Y0174790D01*
X0153042Y0174790D02*
X0153042Y0177793D01*
X0154643Y0177042D02*
X0156145Y0177042D01*
X0154643Y0179294D02*
X0157646Y0179294D01*
X0154643Y0179294D02*
X0154643Y0174790D01*
X0156972Y0168789D02*
X0157722Y0168038D01*
X0157722Y0166537D01*
X0156972Y0165786D01*
X0153239Y0161011D02*
X0150987Y0161011D01*
X0150236Y0161761D01*
X0150236Y0164013D01*
X0148635Y0161011D02*
X0145632Y0161011D01*
X0147134Y0161011D02*
X0147134Y0165514D01*
X0145632Y0164013D01*
X0144081Y0161761D02*
X0143330Y0161761D01*
X0143330Y0161011D01*
X0144081Y0161011D01*
X0144081Y0161761D01*
X0141729Y0161761D02*
X0141729Y0164764D01*
X0138726Y0161761D01*
X0139477Y0161011D01*
X0140978Y0161011D01*
X0141729Y0161761D01*
X0141729Y0164764D02*
X0140978Y0165514D01*
X0139477Y0165514D01*
X0138726Y0164764D01*
X0138726Y0161761D01*
X0143368Y0157517D02*
X0145620Y0155265D01*
X0145620Y0158268D01*
X0147872Y0157517D02*
X0143368Y0157517D01*
X0144119Y0153664D02*
X0143368Y0152913D01*
X0143368Y0151412D01*
X0144119Y0150661D01*
X0147121Y0150661D01*
X0147872Y0151412D01*
X0147872Y0152913D01*
X0147121Y0153664D01*
X0130872Y0153664D02*
X0130872Y0151412D01*
X0130121Y0150661D01*
X0127869Y0150661D01*
X0127869Y0153664D02*
X0130872Y0153664D01*
X0130872Y0155265D02*
X0126368Y0155265D01*
X0126368Y0158267D01*
X0128620Y0156766D02*
X0128620Y0155265D01*
X0130872Y0149060D02*
X0130872Y0146057D01*
X0130872Y0147558D02*
X0126368Y0147558D01*
X0127869Y0146057D01*
X0130121Y0144506D02*
X0130872Y0144506D01*
X0130872Y0143755D01*
X0130121Y0143755D01*
X0130121Y0144506D01*
X0130121Y0142154D02*
X0127119Y0142154D01*
X0130121Y0139151D01*
X0130872Y0139902D01*
X0130872Y0141403D01*
X0130121Y0142154D01*
X0127119Y0142154D02*
X0126368Y0141403D01*
X0126368Y0139902D01*
X0127119Y0139151D01*
X0130121Y0139151D01*
X0134654Y0100192D02*
X0133904Y0099441D01*
X0133904Y0096438D01*
X0134654Y0095688D01*
X0136155Y0095688D01*
X0136906Y0096438D01*
X0138507Y0096438D02*
X0139258Y0095688D01*
X0140759Y0095688D01*
X0141510Y0096438D01*
X0141510Y0097940D01*
X0140759Y0098690D01*
X0140009Y0098690D01*
X0138507Y0097940D01*
X0138507Y0100192D01*
X0141510Y0100192D01*
X0136906Y0099441D02*
X0136155Y0100192D01*
X0134654Y0100192D01*
X0161904Y0081190D02*
X0163405Y0082692D01*
X0163405Y0078188D01*
X0161904Y0078188D02*
X0164906Y0078188D01*
X0166507Y0078938D02*
X0169510Y0081941D01*
X0169510Y0078938D01*
X0168759Y0078188D01*
X0167258Y0078188D01*
X0166507Y0078938D01*
X0166507Y0081941D01*
X0167258Y0082692D01*
X0168759Y0082692D01*
X0169510Y0081941D01*
X0171111Y0081190D02*
X0171111Y0078938D01*
X0171862Y0078188D01*
X0174114Y0078188D01*
X0174114Y0081190D01*
X0175715Y0080440D02*
X0177217Y0080440D01*
X0175715Y0082692D02*
X0178718Y0082692D01*
X0175715Y0082692D02*
X0175715Y0078188D01*
X0192848Y0067738D02*
X0192848Y0066470D01*
X0193165Y0065528D02*
X0192848Y0065211D01*
X0192848Y0064577D01*
X0193165Y0064260D01*
X0193482Y0064260D01*
X0193799Y0064577D01*
X0193799Y0065211D01*
X0194116Y0065528D01*
X0194433Y0065528D01*
X0194750Y0065211D01*
X0194750Y0064577D01*
X0194433Y0064260D01*
X0195067Y0064894D02*
X0192531Y0064894D01*
X0192848Y0063318D02*
X0194433Y0063318D01*
X0194750Y0063001D01*
X0194750Y0062367D01*
X0194433Y0062050D01*
X0192848Y0062050D01*
X0194433Y0066470D02*
X0194750Y0066470D01*
X0194433Y0066470D02*
X0193165Y0067738D01*
X0192848Y0067738D01*
X0206348Y0067738D02*
X0208250Y0067738D01*
X0206348Y0066470D01*
X0208250Y0066470D01*
X0207933Y0065528D02*
X0206665Y0065528D01*
X0206348Y0065211D01*
X0206348Y0064577D01*
X0206665Y0064260D01*
X0207933Y0064260D01*
X0208250Y0064577D01*
X0208250Y0065211D01*
X0207933Y0065528D01*
X0207933Y0063318D02*
X0208250Y0063001D01*
X0208250Y0062367D01*
X0207933Y0062050D01*
X0206665Y0062050D01*
X0206348Y0062367D01*
X0206348Y0063001D01*
X0206665Y0063318D01*
X0206348Y0068680D02*
X0208250Y0069947D01*
X0206348Y0069947D01*
X0206348Y0068680D02*
X0208250Y0068680D01*
X0208567Y0070890D02*
X0208567Y0072157D01*
X0207933Y0073099D02*
X0206665Y0074367D01*
X0207933Y0074367D01*
X0208250Y0074050D01*
X0208250Y0073416D01*
X0207933Y0073099D01*
X0206665Y0073099D01*
X0206348Y0073416D01*
X0206348Y0074050D01*
X0206665Y0074367D01*
X0206665Y0075309D02*
X0206982Y0075309D01*
X0207299Y0075626D01*
X0207299Y0076260D01*
X0207616Y0076577D01*
X0207933Y0076577D01*
X0208250Y0076260D01*
X0208250Y0075626D01*
X0207933Y0075309D01*
X0207616Y0075309D01*
X0207299Y0075626D01*
X0207299Y0076260D02*
X0206982Y0076577D01*
X0206665Y0076577D01*
X0206348Y0076260D01*
X0206348Y0075626D01*
X0206665Y0075309D01*
X0155259Y0018621D02*
X0153757Y0018621D01*
X0153007Y0017870D01*
X0153007Y0014868D01*
X0156009Y0017870D01*
X0156009Y0014868D01*
X0155259Y0014117D01*
X0153757Y0014117D01*
X0153007Y0014868D01*
X0151405Y0014868D02*
X0151405Y0015618D01*
X0150655Y0016369D01*
X0149904Y0016369D01*
X0150655Y0016369D02*
X0151405Y0017119D01*
X0151405Y0017870D01*
X0150655Y0018621D01*
X0149153Y0018621D01*
X0148403Y0017870D01*
X0146801Y0017870D02*
X0146801Y0017119D01*
X0146051Y0016369D01*
X0146801Y0015618D01*
X0146801Y0014868D01*
X0146051Y0014117D01*
X0144549Y0014117D01*
X0143799Y0014868D01*
X0145300Y0016369D02*
X0146051Y0016369D01*
X0146801Y0017870D02*
X0146051Y0018621D01*
X0144549Y0018621D01*
X0143799Y0017870D01*
X0148403Y0014868D02*
X0149153Y0014117D01*
X0150655Y0014117D01*
X0151405Y0014868D01*
X0151503Y0010121D02*
X0153755Y0010121D01*
X0154505Y0009370D01*
X0154505Y0007869D01*
X0153755Y0007118D01*
X0151503Y0007118D01*
X0153004Y0007118D02*
X0154505Y0005617D01*
X0156107Y0005617D02*
X0159109Y0008619D01*
X0159109Y0009370D01*
X0158359Y0010121D01*
X0156857Y0010121D01*
X0156107Y0009370D01*
X0156107Y0005617D02*
X0159109Y0005617D01*
X0151503Y0005617D02*
X0151503Y0010121D01*
X0156009Y0017870D02*
X0155259Y0018621D01*
X0138003Y0012172D02*
X0138003Y0009920D01*
X0138003Y0012172D02*
X0137253Y0012923D01*
X0135001Y0012923D01*
X0135001Y0009920D01*
X0133399Y0011421D02*
X0130397Y0011421D01*
X0130397Y0010671D02*
X0130397Y0012172D01*
X0131147Y0012923D01*
X0132649Y0012923D01*
X0133399Y0012172D01*
X0133399Y0011421D01*
X0132649Y0009920D02*
X0131147Y0009920D01*
X0130397Y0010671D01*
X0128795Y0011421D02*
X0125793Y0011421D01*
X0125793Y0010671D02*
X0125793Y0012172D01*
X0126544Y0012923D01*
X0128045Y0012923D01*
X0128795Y0012172D01*
X0128795Y0011421D01*
X0128045Y0009920D02*
X0126544Y0009920D01*
X0125793Y0010671D01*
X0124208Y0012923D02*
X0123458Y0012923D01*
X0121956Y0011421D01*
X0121956Y0009920D02*
X0121956Y0012923D01*
X0120355Y0013673D02*
X0119604Y0014424D01*
X0118103Y0014424D01*
X0117352Y0013673D01*
X0117352Y0010671D01*
X0118103Y0009920D01*
X0119604Y0009920D01*
X0120355Y0010671D01*
X0120355Y0012172D01*
X0118854Y0012172D01*
X0120355Y0017920D02*
X0117352Y0017920D01*
X0117352Y0022424D01*
X0121956Y0022424D02*
X0121956Y0017920D01*
X0124959Y0017920D01*
X0126560Y0017920D02*
X0128812Y0017920D01*
X0129563Y0018671D01*
X0129563Y0021673D01*
X0128812Y0022424D01*
X0126560Y0022424D01*
X0126560Y0017920D01*
X0123458Y0020172D02*
X0121956Y0020172D01*
X0121956Y0022424D02*
X0124959Y0022424D01*
X0131164Y0021673D02*
X0131915Y0022424D01*
X0133416Y0022424D01*
X0134167Y0021673D01*
X0134167Y0020923D01*
X0131164Y0017920D01*
X0134167Y0017920D01*
X0108084Y0018328D02*
X0107767Y0018011D01*
X0106817Y0018011D01*
X0107451Y0018011D02*
X0108084Y0017377D01*
X0108084Y0018328D02*
X0108084Y0018961D01*
X0107767Y0019278D01*
X0106817Y0019278D01*
X0106817Y0017377D01*
X0105875Y0017377D02*
X0104607Y0017377D01*
X0104607Y0019278D01*
X0105875Y0019278D01*
X0105241Y0018328D02*
X0104607Y0018328D01*
X0103665Y0018011D02*
X0103665Y0017694D01*
X0103348Y0017377D01*
X0102714Y0017377D01*
X0102397Y0017694D01*
X0102714Y0018328D02*
X0103348Y0018328D01*
X0103665Y0018011D01*
X0103665Y0018961D02*
X0103348Y0019278D01*
X0102714Y0019278D01*
X0102397Y0018961D01*
X0102397Y0018645D01*
X0102714Y0018328D01*
X0101455Y0017694D02*
X0101455Y0019278D01*
X0100187Y0019278D02*
X0100187Y0017694D01*
X0100504Y0017377D01*
X0101138Y0017377D01*
X0101455Y0017694D01*
X0101138Y0020877D02*
X0101455Y0021194D01*
X0101455Y0022778D01*
X0102397Y0022461D02*
X0102714Y0022778D01*
X0103348Y0022778D01*
X0103665Y0022461D01*
X0103348Y0021828D02*
X0103665Y0021511D01*
X0103665Y0021194D01*
X0103348Y0020877D01*
X0102714Y0020877D01*
X0102397Y0021194D01*
X0102714Y0021828D02*
X0102397Y0022145D01*
X0102397Y0022461D01*
X0102714Y0021828D02*
X0103348Y0021828D01*
X0104607Y0021828D02*
X0105241Y0022145D01*
X0105558Y0022145D01*
X0105875Y0021828D01*
X0105875Y0021194D01*
X0105558Y0020877D01*
X0104924Y0020877D01*
X0104607Y0021194D01*
X0104607Y0021828D02*
X0104607Y0022778D01*
X0105875Y0022778D01*
X0103031Y0023095D02*
X0103031Y0020560D01*
X0101138Y0020877D02*
X0100504Y0020877D01*
X0100187Y0021194D01*
X0100187Y0022778D01*
X0087437Y0017627D02*
X0084937Y0017627D01*
X0079937Y0020127D01*
X0078523Y0019278D02*
X0077255Y0019278D01*
X0077889Y0019278D02*
X0077889Y0017377D01*
X0077437Y0017627D02*
X0079937Y0017627D01*
X0076313Y0017377D02*
X0075045Y0017377D01*
X0075045Y0019278D01*
X0076313Y0019278D01*
X0075679Y0018328D02*
X0075045Y0018328D01*
X0074103Y0018011D02*
X0074103Y0017694D01*
X0073786Y0017377D01*
X0073152Y0017377D01*
X0072835Y0017694D01*
X0073152Y0018328D02*
X0073786Y0018328D01*
X0074103Y0018011D01*
X0074103Y0018961D02*
X0073786Y0019278D01*
X0073152Y0019278D01*
X0072835Y0018961D01*
X0072835Y0018645D01*
X0073152Y0018328D01*
X0071893Y0019278D02*
X0070625Y0019278D01*
X0070625Y0017377D01*
X0071893Y0017377D01*
X0071259Y0018328D02*
X0070625Y0018328D01*
X0069683Y0018328D02*
X0069366Y0018011D01*
X0068415Y0018011D01*
X0069049Y0018011D02*
X0069683Y0017377D01*
X0069683Y0018328D02*
X0069683Y0018961D01*
X0069366Y0019278D01*
X0068415Y0019278D01*
X0068415Y0017377D01*
X0068732Y0020877D02*
X0069366Y0020877D01*
X0069683Y0021194D01*
X0069683Y0022778D01*
X0070625Y0022461D02*
X0070942Y0022778D01*
X0071576Y0022778D01*
X0071893Y0022461D01*
X0071576Y0021828D02*
X0070942Y0021828D01*
X0070625Y0022145D01*
X0070625Y0022461D01*
X0071259Y0023095D02*
X0071259Y0020560D01*
X0070942Y0020877D02*
X0071576Y0020877D01*
X0071893Y0021194D01*
X0071893Y0021511D01*
X0071576Y0021828D01*
X0070625Y0021194D02*
X0070942Y0020877D01*
X0072835Y0021828D02*
X0074103Y0021828D01*
X0073786Y0022778D02*
X0073786Y0020877D01*
X0072835Y0021828D02*
X0073786Y0022778D01*
X0068415Y0022778D02*
X0068415Y0021194D01*
X0068732Y0020877D01*
X0055665Y0017627D02*
X0053165Y0017627D01*
X0048165Y0020127D01*
X0048165Y0017627D02*
X0045665Y0017627D01*
X0044793Y0039263D02*
X0044793Y0041515D01*
X0045544Y0042265D01*
X0047045Y0042265D01*
X0047796Y0041515D01*
X0047796Y0039263D01*
X0047796Y0040764D02*
X0049297Y0042265D01*
X0048547Y0043867D02*
X0049297Y0044617D01*
X0049297Y0046118D01*
X0048547Y0046869D01*
X0047796Y0046869D01*
X0047045Y0046118D01*
X0047045Y0045368D01*
X0047045Y0046118D02*
X0046295Y0046869D01*
X0045544Y0046869D01*
X0044793Y0046118D01*
X0044793Y0044617D01*
X0045544Y0043867D01*
X0043033Y0044061D02*
X0038530Y0044061D01*
X0040031Y0042559D01*
X0043033Y0042559D02*
X0043033Y0045562D01*
X0042283Y0047163D02*
X0043033Y0047914D01*
X0043033Y0049415D01*
X0042283Y0050166D01*
X0039280Y0050166D01*
X0042283Y0047163D01*
X0039280Y0047163D01*
X0038530Y0047914D01*
X0038530Y0049415D01*
X0039280Y0050166D01*
X0038530Y0051767D02*
X0043033Y0051767D01*
X0041532Y0051767D02*
X0043033Y0054019D01*
X0041532Y0051767D02*
X0040031Y0054019D01*
X0034533Y0046315D02*
X0030030Y0046315D01*
X0032282Y0044063D01*
X0032282Y0047066D01*
X0032282Y0042462D02*
X0030780Y0042462D01*
X0030030Y0041711D01*
X0030030Y0039459D01*
X0034533Y0039459D01*
X0033032Y0039459D02*
X0033032Y0041711D01*
X0032282Y0042462D01*
X0033032Y0040961D02*
X0034533Y0042462D01*
X0044793Y0039263D02*
X0049297Y0039263D01*
X0053293Y0043864D02*
X0057797Y0043864D01*
X0057797Y0042363D02*
X0057797Y0045365D01*
X0057047Y0046967D02*
X0057797Y0047717D01*
X0057797Y0049218D01*
X0057047Y0049969D01*
X0054044Y0049969D01*
X0057047Y0046967D01*
X0054044Y0046967D01*
X0053293Y0047717D01*
X0053293Y0049218D01*
X0054044Y0049969D01*
X0053293Y0051570D02*
X0057797Y0051570D01*
X0056296Y0051570D02*
X0057797Y0053822D01*
X0056883Y0053277D02*
X0056132Y0052526D01*
X0056132Y0051025D01*
X0056883Y0050274D01*
X0059885Y0050274D01*
X0060636Y0051025D01*
X0060636Y0052526D01*
X0059885Y0053277D01*
X0060636Y0054878D02*
X0057633Y0057881D01*
X0056883Y0057881D01*
X0056132Y0057130D01*
X0056132Y0055629D01*
X0056883Y0054878D01*
X0054795Y0053822D02*
X0056296Y0051570D01*
X0060636Y0054878D02*
X0060636Y0057881D01*
X0073132Y0058682D02*
X0077636Y0058682D01*
X0077636Y0060183D02*
X0077636Y0057180D01*
X0077636Y0055629D02*
X0077636Y0054878D01*
X0076885Y0054878D01*
X0076885Y0055629D01*
X0077636Y0055629D01*
X0076885Y0053277D02*
X0077636Y0052526D01*
X0077636Y0051025D01*
X0076885Y0050274D01*
X0073883Y0053277D01*
X0076885Y0053277D01*
X0076885Y0050274D02*
X0073883Y0050274D01*
X0073132Y0051025D01*
X0073132Y0052526D01*
X0073883Y0053277D01*
X0074633Y0057180D02*
X0073132Y0058682D01*
X0074633Y0061784D02*
X0076885Y0061784D01*
X0077636Y0062535D01*
X0077636Y0064787D01*
X0074633Y0064787D01*
X0075384Y0066388D02*
X0075384Y0067889D01*
X0077636Y0066388D02*
X0073132Y0066388D01*
X0073132Y0069391D01*
X0074216Y0086471D02*
X0074216Y0089006D01*
X0073899Y0088689D02*
X0074533Y0088689D01*
X0074850Y0088372D01*
X0074533Y0087739D02*
X0073899Y0087739D01*
X0073582Y0088056D01*
X0073582Y0088372D01*
X0073899Y0088689D01*
X0074533Y0087739D02*
X0074850Y0087422D01*
X0074850Y0087105D01*
X0074533Y0086788D01*
X0073899Y0086788D01*
X0073582Y0087105D01*
X0072640Y0087105D02*
X0072640Y0088689D01*
X0071372Y0088689D02*
X0071372Y0087105D01*
X0071689Y0086788D01*
X0072323Y0086788D01*
X0072640Y0087105D01*
X0075792Y0087105D02*
X0076109Y0086788D01*
X0076743Y0086788D01*
X0077060Y0087105D01*
X0077060Y0088372D01*
X0076743Y0088689D01*
X0076109Y0088689D01*
X0075792Y0088372D01*
X0075792Y0088056D01*
X0076109Y0087739D01*
X0077060Y0087739D01*
X0077060Y0100288D02*
X0075792Y0100288D01*
X0077060Y0101556D01*
X0075792Y0101556D01*
X0074850Y0101239D02*
X0073582Y0101239D01*
X0073582Y0102189D02*
X0073582Y0100288D01*
X0072640Y0100288D02*
X0072640Y0102189D01*
X0072006Y0101556D01*
X0071372Y0102189D01*
X0071372Y0100288D01*
X0070430Y0100605D02*
X0070113Y0100288D01*
X0069479Y0100288D01*
X0069162Y0100605D01*
X0069162Y0100922D01*
X0069479Y0101239D01*
X0070113Y0101239D01*
X0070430Y0100922D01*
X0070430Y0100605D01*
X0070113Y0101239D02*
X0070430Y0101556D01*
X0070430Y0101872D01*
X0070113Y0102189D01*
X0069479Y0102189D01*
X0069162Y0101872D01*
X0069162Y0101556D01*
X0069479Y0101239D01*
X0074850Y0102189D02*
X0074850Y0100288D01*
X0023500Y0061800D02*
X0023500Y0051800D01*
X0018500Y0056800D01*
X0023500Y0061800D01*
X0023500Y0061621D02*
X0023321Y0061621D01*
X0023500Y0061123D02*
X0022823Y0061123D01*
X0022324Y0060624D02*
X0023500Y0060624D01*
X0023500Y0060126D02*
X0021826Y0060126D01*
X0021327Y0059627D02*
X0023500Y0059627D01*
X0023500Y0059129D02*
X0020829Y0059129D01*
X0020330Y0058630D02*
X0023500Y0058630D01*
X0023500Y0058132D02*
X0019832Y0058132D01*
X0019333Y0057633D02*
X0023500Y0057633D01*
X0023500Y0057135D02*
X0018835Y0057135D01*
X0018664Y0056636D02*
X0023500Y0056636D01*
X0023500Y0056138D02*
X0019162Y0056138D01*
X0019661Y0055639D02*
X0023500Y0055639D01*
X0023500Y0055141D02*
X0020159Y0055141D01*
X0020658Y0054642D02*
X0023500Y0054642D01*
X0023500Y0054144D02*
X0021156Y0054144D01*
X0021655Y0053645D02*
X0023500Y0053645D01*
X0023500Y0053147D02*
X0022153Y0053147D01*
X0022652Y0052648D02*
X0023500Y0052648D01*
X0023500Y0052150D02*
X0023150Y0052150D01*
X0020933Y0062050D02*
X0021250Y0062367D01*
X0021250Y0063001D01*
X0020933Y0063318D01*
X0020933Y0064260D02*
X0021250Y0064577D01*
X0021250Y0065211D01*
X0020933Y0065528D01*
X0019665Y0065528D01*
X0019348Y0065211D01*
X0019348Y0064577D01*
X0019665Y0064260D01*
X0020933Y0064260D01*
X0019665Y0063318D02*
X0019348Y0063001D01*
X0019348Y0062367D01*
X0019665Y0062050D01*
X0020933Y0062050D01*
X0021250Y0066470D02*
X0019348Y0066470D01*
X0021250Y0067738D01*
X0019348Y0067738D01*
X0019348Y0068680D02*
X0021250Y0069947D01*
X0019348Y0069947D01*
X0019348Y0068680D02*
X0021250Y0068680D01*
X0021567Y0070890D02*
X0021567Y0072157D01*
X0020933Y0073099D02*
X0019665Y0074367D01*
X0020933Y0074367D01*
X0021250Y0074050D01*
X0021250Y0073416D01*
X0020933Y0073099D01*
X0019665Y0073099D01*
X0019348Y0073416D01*
X0019348Y0074050D01*
X0019665Y0074367D01*
X0019665Y0075309D02*
X0019982Y0075309D01*
X0020299Y0075626D01*
X0020299Y0076260D01*
X0020616Y0076577D01*
X0020933Y0076577D01*
X0021250Y0076260D01*
X0021250Y0075626D01*
X0020933Y0075309D01*
X0020616Y0075309D01*
X0020299Y0075626D01*
X0020299Y0076260D02*
X0019982Y0076577D01*
X0019665Y0076577D01*
X0019348Y0076260D01*
X0019348Y0075626D01*
X0019665Y0075309D01*
X0007750Y0067421D02*
X0007433Y0067738D01*
X0007116Y0067738D01*
X0006799Y0067421D01*
X0006799Y0066470D01*
X0007433Y0066470D01*
X0007750Y0066787D01*
X0007750Y0067421D01*
X0006799Y0066470D02*
X0006165Y0067104D01*
X0005848Y0067738D01*
X0006165Y0065528D02*
X0005848Y0065211D01*
X0005848Y0064577D01*
X0006165Y0064260D01*
X0006482Y0064260D01*
X0006799Y0064577D01*
X0006799Y0065211D01*
X0007116Y0065528D01*
X0007433Y0065528D01*
X0007750Y0065211D01*
X0007750Y0064577D01*
X0007433Y0064260D01*
X0008067Y0064894D02*
X0005531Y0064894D01*
X0005848Y0063318D02*
X0007433Y0063318D01*
X0007750Y0063001D01*
X0007750Y0062367D01*
X0007433Y0062050D01*
X0005848Y0062050D01*
X0005833Y0061108D02*
X0006150Y0060791D01*
X0006150Y0060157D01*
X0005833Y0059840D01*
X0005516Y0059840D01*
X0005199Y0060157D01*
X0005199Y0060791D01*
X0005516Y0061108D01*
X0005833Y0061108D01*
X0005199Y0060791D02*
X0004882Y0061108D01*
X0004565Y0061108D01*
X0004248Y0060791D01*
X0004248Y0060157D01*
X0004565Y0059840D01*
X0004882Y0059840D01*
X0005199Y0060157D01*
X0005516Y0058898D02*
X0005199Y0058581D01*
X0005199Y0057947D01*
X0004882Y0057630D01*
X0004565Y0057630D01*
X0004248Y0057947D01*
X0004248Y0058581D01*
X0004565Y0058898D01*
X0003931Y0058264D02*
X0006467Y0058264D01*
X0006150Y0057947D02*
X0005833Y0057630D01*
X0006150Y0057947D02*
X0006150Y0058581D01*
X0005833Y0058898D01*
X0005516Y0058898D01*
X0005833Y0056688D02*
X0004248Y0056688D01*
X0004248Y0055420D02*
X0005833Y0055420D01*
X0006150Y0055737D01*
X0006150Y0056371D01*
X0005833Y0056688D01*
X0004833Y0026108D02*
X0005150Y0025791D01*
X0005150Y0025157D01*
X0004833Y0024840D01*
X0004199Y0025474D02*
X0004199Y0025791D01*
X0004516Y0026108D01*
X0004833Y0026108D01*
X0004199Y0025791D02*
X0003882Y0026108D01*
X0003565Y0026108D01*
X0003248Y0025791D01*
X0003248Y0025157D01*
X0003565Y0024840D01*
X0003248Y0023898D02*
X0003248Y0022630D01*
X0003248Y0023264D02*
X0005150Y0023264D01*
X0005150Y0021791D02*
X0005150Y0021157D01*
X0005150Y0021474D02*
X0003248Y0021474D01*
X0003248Y0021157D02*
X0003248Y0021791D01*
X0003248Y0020215D02*
X0004516Y0018947D01*
X0004199Y0019264D02*
X0005150Y0020215D01*
X0005150Y0018947D02*
X0003248Y0018947D01*
X0003565Y0018005D02*
X0003248Y0017688D01*
X0003248Y0017054D01*
X0003565Y0016737D01*
X0004833Y0016737D01*
X0005150Y0017054D01*
X0005150Y0017688D01*
X0004833Y0018005D01*
X0005150Y0015898D02*
X0005150Y0015264D01*
X0005150Y0015581D02*
X0003248Y0015581D01*
X0003248Y0015264D02*
X0003248Y0015898D01*
X0003565Y0014322D02*
X0004199Y0014322D01*
X0004516Y0014005D01*
X0004516Y0013054D01*
X0005150Y0013054D02*
X0003248Y0013054D01*
X0003248Y0014005D01*
X0003565Y0014322D01*
X0053293Y0043864D02*
X0054795Y0042363D01*
X0172220Y0193786D02*
X0170719Y0195287D01*
X0175222Y0195287D01*
X0175222Y0193786D02*
X0175222Y0196789D01*
X0174472Y0198390D02*
X0171469Y0198390D01*
X0170719Y0199141D01*
X0170719Y0200642D01*
X0171469Y0201393D01*
X0174472Y0198390D01*
X0175222Y0199141D01*
X0175222Y0200642D01*
X0174472Y0201393D01*
X0171469Y0201393D01*
X0172220Y0202994D02*
X0174472Y0202994D01*
X0175222Y0203745D01*
X0175222Y0205997D01*
X0172220Y0205997D01*
X0172971Y0207598D02*
X0172971Y0209099D01*
X0175222Y0207598D02*
X0170719Y0207598D01*
X0170719Y0210601D01*
D14*
X0147154Y0084438D03*
D15*
X0168972Y0179036D03*
D16*
X0110225Y0183693D02*
X0107156Y0183693D01*
X0107156Y0188297D01*
X0110225Y0188297D01*
X0108690Y0185995D02*
X0107156Y0185995D01*
X0105621Y0184460D02*
X0105621Y0187530D01*
X0104854Y0188297D01*
X0102552Y0188297D01*
X0102552Y0183693D01*
X0104854Y0183693D01*
X0105621Y0184460D01*
X0101017Y0183693D02*
X0099483Y0183693D01*
X0100250Y0183693D02*
X0100250Y0188297D01*
X0099483Y0188297D02*
X0101017Y0188297D01*
X0097948Y0183693D02*
X0094879Y0183693D01*
X0094879Y0188297D01*
X0093344Y0187530D02*
X0092577Y0188297D01*
X0091042Y0188297D01*
X0090275Y0187530D01*
X0090275Y0186762D01*
X0091042Y0185995D01*
X0092577Y0185995D01*
X0093344Y0185228D01*
X0093344Y0184460D01*
X0092577Y0183693D01*
X0091042Y0183693D01*
X0090275Y0184460D01*
X0096413Y0192926D02*
X0096413Y0199064D01*
X0095646Y0198297D02*
X0097181Y0198297D01*
X0097948Y0197530D01*
X0099483Y0197530D02*
X0100250Y0198297D01*
X0101785Y0198297D01*
X0102552Y0197530D01*
X0102552Y0196762D01*
X0099483Y0193693D01*
X0102552Y0193693D01*
X0097948Y0194460D02*
X0097948Y0195228D01*
X0097181Y0195995D01*
X0095646Y0195995D01*
X0094879Y0196762D01*
X0094879Y0197530D01*
X0095646Y0198297D01*
X0093344Y0198297D02*
X0093344Y0194460D01*
X0092577Y0193693D01*
X0091042Y0193693D01*
X0090275Y0194460D01*
X0090275Y0198297D01*
X0094879Y0194460D02*
X0095646Y0193693D01*
X0097181Y0193693D01*
X0097948Y0194460D01*
X0045035Y0149008D02*
X0041965Y0149008D01*
X0043500Y0149008D02*
X0043500Y0153612D01*
X0041965Y0152077D01*
X0040431Y0153612D02*
X0038896Y0153612D01*
X0039663Y0153612D02*
X0039663Y0149775D01*
X0038896Y0149008D01*
X0038129Y0149008D01*
X0037361Y0149775D01*
D17*
X0156072Y0153178D03*
X0184472Y0153178D03*
X0162661Y0016367D03*
X0134261Y0016367D03*
D18*
X0055547Y0036813D03*
X0040783Y0037009D03*
X0040783Y0065409D03*
X0055547Y0065213D03*
D19*
X0103964Y0067057D02*
X0103964Y0070210D01*
X0105014Y0071260D01*
X0107116Y0071260D01*
X0108167Y0070210D01*
X0108167Y0067057D01*
X0110269Y0067057D02*
X0103964Y0067057D01*
X0103964Y0073502D02*
X0103964Y0075604D01*
X0103964Y0074553D02*
X0110269Y0074553D01*
X0110269Y0073502D02*
X0110269Y0075604D01*
X0109218Y0077799D02*
X0110269Y0078850D01*
X0110269Y0080952D01*
X0109218Y0082003D01*
X0109218Y0084245D02*
X0110269Y0085296D01*
X0110269Y0087398D01*
X0109218Y0088448D01*
X0108167Y0088448D01*
X0107116Y0087398D01*
X0107116Y0086347D01*
X0107116Y0087398D02*
X0106065Y0088448D01*
X0105014Y0088448D01*
X0103964Y0087398D01*
X0103964Y0085296D01*
X0105014Y0084245D01*
X0105014Y0082003D02*
X0103964Y0080952D01*
X0103964Y0078850D01*
X0105014Y0077799D01*
X0109218Y0077799D01*
X0110269Y0090690D02*
X0106065Y0094894D01*
X0105014Y0094894D01*
X0103964Y0093843D01*
X0103964Y0091741D01*
X0105014Y0090690D01*
X0110269Y0090690D02*
X0110269Y0094894D01*
X0110269Y0097136D02*
X0103964Y0097136D01*
X0106065Y0099238D01*
X0103964Y0101339D01*
X0110269Y0101339D01*
X0110269Y0103581D02*
X0103964Y0107785D01*
X0105014Y0110027D02*
X0103964Y0111078D01*
X0103964Y0113179D01*
X0105014Y0114230D01*
X0106065Y0114230D01*
X0110269Y0110027D01*
X0110269Y0114230D01*
X0109218Y0116472D02*
X0110269Y0117523D01*
X0110269Y0119625D01*
X0109218Y0120676D01*
X0107116Y0120676D01*
X0106065Y0119625D01*
X0106065Y0118574D01*
X0107116Y0116472D01*
X0103964Y0116472D01*
X0103964Y0120676D01*
X0105014Y0122918D02*
X0103964Y0123969D01*
X0103964Y0126070D01*
X0105014Y0127121D01*
X0109218Y0122918D01*
X0110269Y0123969D01*
X0110269Y0126070D01*
X0109218Y0127121D01*
X0105014Y0127121D01*
X0103964Y0129363D02*
X0103964Y0133567D01*
X0106065Y0135809D02*
X0103964Y0137911D01*
X0110269Y0137911D01*
X0110269Y0140012D02*
X0110269Y0135809D01*
X0107116Y0131465D02*
X0107116Y0129363D01*
X0103964Y0129363D02*
X0110269Y0129363D01*
X0109218Y0122918D02*
X0105014Y0122918D01*
X0110269Y0107785D02*
X0103964Y0103581D01*
X0105014Y0142254D02*
X0103964Y0143305D01*
X0103964Y0145407D01*
X0105014Y0146458D01*
X0106065Y0146458D01*
X0110269Y0142254D01*
X0110269Y0146458D01*
X0109218Y0148700D02*
X0108167Y0148700D01*
X0107116Y0149751D01*
X0107116Y0151852D01*
X0108167Y0152903D01*
X0109218Y0152903D01*
X0110269Y0151852D01*
X0110269Y0149751D01*
X0109218Y0148700D01*
X0107116Y0149751D02*
X0106065Y0148700D01*
X0105014Y0148700D01*
X0103964Y0149751D01*
X0103964Y0151852D01*
X0105014Y0152903D01*
X0106065Y0152903D01*
X0107116Y0151852D01*
X0107116Y0155145D02*
X0107116Y0158298D01*
X0108167Y0159349D01*
X0109218Y0159349D01*
X0110269Y0158298D01*
X0110269Y0155145D01*
X0103964Y0155145D01*
X0103964Y0158298D01*
X0105014Y0159349D01*
X0106065Y0159349D01*
X0107116Y0158298D01*
X0106216Y0169040D02*
X0106216Y0177447D01*
X0105165Y0176396D02*
X0107267Y0176396D01*
X0108318Y0175345D01*
X0107267Y0173244D02*
X0105165Y0173244D01*
X0104114Y0174295D01*
X0104114Y0175345D01*
X0105165Y0176396D01*
X0101872Y0176396D02*
X0101872Y0171142D01*
X0100822Y0170091D01*
X0098720Y0170091D01*
X0097669Y0171142D01*
X0097669Y0176396D01*
X0104114Y0171142D02*
X0105165Y0170091D01*
X0107267Y0170091D01*
X0108318Y0171142D01*
X0108318Y0172193D01*
X0107267Y0173244D01*
X0110560Y0174295D02*
X0112662Y0176396D01*
X0112662Y0170091D01*
X0114763Y0170091D02*
X0110560Y0170091D01*
D20*
X0087004Y0175028D02*
X0087004Y0191957D01*
X0053146Y0191957D01*
X0053146Y0175028D01*
X0087004Y0175028D01*
X0077949Y0193335D02*
X0077949Y0199241D01*
X0075980Y0199241D01*
X0074012Y0197272D01*
X0072043Y0199241D01*
X0070075Y0199241D01*
X0070075Y0193335D01*
D21*
X0075252Y0099438D02*
X0050252Y0099438D01*
X0047752Y0096938D01*
X0047752Y0091938D01*
X0050252Y0089438D01*
X0075252Y0089438D01*
X0077752Y0091938D01*
X0077752Y0096938D01*
X0075252Y0099438D01*
X0072437Y0027627D02*
X0092437Y0027627D01*
X0094937Y0022627D01*
X0097437Y0020127D01*
X0097437Y0015127D01*
X0094937Y0012627D01*
X0092437Y0007627D01*
X0072437Y0007627D01*
X0069937Y0012627D01*
X0067437Y0015127D01*
X0067437Y0020127D01*
X0069937Y0022627D01*
X0072437Y0027627D01*
X0065665Y0020127D02*
X0065665Y0015127D01*
X0063165Y0012627D01*
X0060665Y0007627D01*
X0040665Y0007627D01*
X0038165Y0012627D01*
X0035665Y0015127D01*
X0035665Y0020127D01*
X0038165Y0022627D01*
X0040665Y0027627D01*
X0060665Y0027627D01*
X0063165Y0022627D01*
X0065665Y0020127D01*
M02*
