%
M48
M72
T01C0.02362
T02C0.03150
T03C0.03200
T04C0.03937
T05C0.04000
T06C0.07480
%
T01
X28185Y25422
X36059Y41170
X24248Y54950
X40980Y58887
X67555Y37233
X75429Y33296
X75429Y52981
X75429Y64792
X102988Y96288
X106925Y114005
X102988Y159280
X106925Y163217
X113500Y171800
X53500Y156800
X48933Y129221
X31059Y121721
T02
X28106Y161997
X24957Y157272
X31256Y157272
X34406Y161997
X37555Y157272
X62201Y183493
X70075Y183493
X77949Y183493
T03
X92319Y164241
X92319Y154241
X92319Y144241
X92319Y134241
X92319Y124241
X92319Y114241
X92319Y104241
X92319Y94241
X92319Y84241
X92319Y74241
X92319Y64241
X92319Y54241
X92319Y44241
X92319Y34241
X104602Y16170
X114602Y16170
X128461Y16367
X122319Y34241
X122319Y44241
X122319Y54241
X122319Y64241
X122319Y74241
X122319Y84241
X122319Y94241
X122319Y104241
X122319Y114241
X122319Y124241
X122319Y134241
X122319Y144241
X122319Y154241
X122319Y164241
X137122Y155619
X137122Y145619
X150272Y153178
X168972Y167036
X152476Y171761
X142476Y171761
X142280Y185540
X152280Y185540
X168972Y187036
X190193Y188729
X190193Y178729
X190272Y153178
X155154Y84438
X135154Y84438
X66886Y64024
X66886Y54024
X55547Y71013
X40783Y71209
X40783Y31209
X55547Y31013
X168461Y16367
X112831Y181800
X107831Y189300
X102831Y181800
T04
X54327Y183493
X85823Y183493
T05
X13500Y136800
X13500Y126800
X13500Y116800
X13500Y106800
X13500Y96800
X13500Y86800
X13500Y76800
X13500Y66800
X13500Y56800
X13500Y46800
X13500Y36800
X13500Y26800
X13500Y16800
X40665Y17627
X60665Y17627
X72437Y17627
X92437Y17627
X72752Y94438
X62752Y94438
X52752Y94438
X200500Y96800
X200500Y106800
X200500Y116800
X200500Y126800
X200500Y136800
X200500Y86800
X200500Y76800
X200500Y66800
T06
X16886Y177351
X45626Y177351
M30
